%TF.GenerationSoftware,KiCad,Pcbnew,7.0.1-3b83917a11~172~ubuntu22.04.1*%
%TF.CreationDate,2023-04-12T17:14:37-05:00*%
%TF.ProjectId,Project,50726f6a-6563-4742-9e6b-696361645f70,rev?*%
%TF.SameCoordinates,Original*%
%TF.FileFunction,Copper,L2,Bot*%
%TF.FilePolarity,Positive*%
%FSLAX46Y46*%
G04 Gerber Fmt 4.6, Leading zero omitted, Abs format (unit mm)*
G04 Created by KiCad (PCBNEW 7.0.1-3b83917a11~172~ubuntu22.04.1) date 2023-04-12 17:14:37*
%MOMM*%
%LPD*%
G01*
G04 APERTURE LIST*
%TA.AperFunction,ComponentPad*%
%ADD10R,1.600000X1.600000*%
%TD*%
%TA.AperFunction,ComponentPad*%
%ADD11O,1.600000X1.600000*%
%TD*%
%TA.AperFunction,ComponentPad*%
%ADD12R,1.500000X1.500000*%
%TD*%
%TA.AperFunction,ComponentPad*%
%ADD13C,1.500000*%
%TD*%
%TA.AperFunction,ComponentPad*%
%ADD14R,1.700000X1.700000*%
%TD*%
%TA.AperFunction,ComponentPad*%
%ADD15C,1.700000*%
%TD*%
%TA.AperFunction,ComponentPad*%
%ADD16C,1.600000*%
%TD*%
%TA.AperFunction,ComponentPad*%
%ADD17O,1.700000X1.700000*%
%TD*%
%TA.AperFunction,ComponentPad*%
%ADD18R,1.800000X1.800000*%
%TD*%
%TA.AperFunction,ComponentPad*%
%ADD19C,1.800000*%
%TD*%
%TA.AperFunction,ViaPad*%
%ADD20C,0.800000*%
%TD*%
%TA.AperFunction,Conductor*%
%ADD21C,0.250000*%
%TD*%
%TA.AperFunction,Conductor*%
%ADD22C,0.500000*%
%TD*%
%TA.AperFunction,Profile*%
%ADD23C,0.100000*%
%TD*%
G04 APERTURE END LIST*
D10*
%TO.P,U2,1,MCLR*%
%TO.N,/MCLR*%
X121920000Y-109220000D03*
D11*
%TO.P,U2,2,A0*%
%TO.N,/A0*%
X121920000Y-111760000D03*
%TO.P,U2,3,A1*%
%TO.N,/A1*%
X121920000Y-114300000D03*
%TO.P,U2,4,B0*%
%TO.N,/B0*%
X121920000Y-116840000D03*
%TO.P,U2,5,B1*%
%TO.N,/B1*%
X121920000Y-119380000D03*
%TO.P,U2,6,B2*%
%TO.N,/B2*%
X121920000Y-121920000D03*
%TO.P,U2,7,B3*%
%TO.N,/U1TX*%
X121920000Y-124460000D03*
%TO.P,U2,8,Vss*%
%TO.N,GND*%
X121920000Y-127000000D03*
%TO.P,U2,9,A2*%
%TO.N,/U1RX*%
X121920000Y-129540000D03*
%TO.P,U2,10,A3*%
%TO.N,/A3*%
X121920000Y-132080000D03*
%TO.P,U2,11,B4*%
%TO.N,/GREEN*%
X121920000Y-134620000D03*
%TO.P,U2,12,A4*%
%TO.N,/USER*%
X121920000Y-137160000D03*
%TO.P,U2,13,Vdd*%
%TO.N,+3.3V*%
X121920000Y-139700000D03*
%TO.P,U2,14,B5*%
%TO.N,/YELLOW*%
X121920000Y-142240000D03*
%TO.P,U2,15,B6*%
%TO.N,/B6*%
X129540000Y-142240000D03*
%TO.P,U2,16,B7*%
%TO.N,/B7*%
X129540000Y-139700000D03*
%TO.P,U2,17,B8*%
%TO.N,/B8*%
X129540000Y-137160000D03*
%TO.P,U2,18,B9*%
%TO.N,/B9*%
X129540000Y-134620000D03*
%TO.P,U2,19,Vss*%
%TO.N,GND*%
X129540000Y-132080000D03*
%TO.P,U2,20,Vcap*%
%TO.N,Net-(U2-Vcap)*%
X129540000Y-129540000D03*
%TO.P,U2,21,B10*%
%TO.N,/B10*%
X129540000Y-127000000D03*
%TO.P,U2,22,B11*%
%TO.N,/B11*%
X129540000Y-124460000D03*
%TO.P,U2,23,B12*%
%TO.N,/B12*%
X129540000Y-121920000D03*
%TO.P,U2,24,B13*%
%TO.N,/B13*%
X129540000Y-119380000D03*
%TO.P,U2,25,B14*%
%TO.N,/B14*%
X129540000Y-116840000D03*
%TO.P,U2,26,B15*%
%TO.N,/B15*%
X129540000Y-114300000D03*
%TO.P,U2,27,AVss*%
%TO.N,GND*%
X129540000Y-111760000D03*
%TO.P,U2,28,AVdd*%
%TO.N,+3.3V*%
X129540000Y-109220000D03*
%TD*%
D12*
%TO.P,U1,1,VO*%
%TO.N,+3.3V*%
X109220000Y-142240000D03*
D13*
%TO.P,U1,2,GND*%
%TO.N,GND*%
X111760000Y-142240000D03*
%TO.P,U1,3,VI*%
%TO.N,/Vin*%
X114300000Y-142240000D03*
%TD*%
D14*
%TO.P,SW3,1,1*%
%TO.N,GND*%
X101680000Y-104140000D03*
D15*
%TO.P,SW3,2,2*%
%TO.N,/MCLR*%
X106680000Y-104140000D03*
%TD*%
D14*
%TO.P,SW2,1,1*%
%TO.N,GND*%
X142240000Y-104140000D03*
D15*
%TO.P,SW2,2,2*%
%TO.N,/USER*%
X147240000Y-104140000D03*
%TD*%
D14*
%TO.P,SW1,1,A*%
%TO.N,+5V*%
X121920000Y-147320000D03*
D15*
%TO.P,SW1,2,B*%
%TO.N,/Vin*%
X124420000Y-147320000D03*
%TO.P,SW1,3,C*%
%TO.N,Net-(J1-5V)*%
X126920000Y-147320000D03*
%TD*%
D16*
%TO.P,R5,1*%
%TO.N,Net-(D3-K)*%
X123190000Y-104140000D03*
D11*
%TO.P,R5,2*%
%TO.N,GND*%
X130810000Y-104140000D03*
%TD*%
D16*
%TO.P,R4,1*%
%TO.N,Net-(D2-K)*%
X106680000Y-127000000D03*
D11*
%TO.P,R4,2*%
%TO.N,/YELLOW*%
X114300000Y-127000000D03*
%TD*%
D16*
%TO.P,R3,1*%
%TO.N,Net-(D1-K)*%
X106680000Y-122300000D03*
D11*
%TO.P,R3,2*%
%TO.N,/GREEN*%
X114300000Y-122300000D03*
%TD*%
D16*
%TO.P,R2,1*%
%TO.N,+3.3V*%
X106680000Y-116840000D03*
D11*
%TO.P,R2,2*%
%TO.N,/USER*%
X114300000Y-116840000D03*
%TD*%
D16*
%TO.P,R1,1*%
%TO.N,+3.3V*%
X106680000Y-111760000D03*
D11*
%TO.P,R1,2*%
%TO.N,/MCLR*%
X114300000Y-111760000D03*
%TD*%
D14*
%TO.P,J4,1,1*%
%TO.N,/B15*%
X147500000Y-115000000D03*
D17*
%TO.P,J4,2,2*%
%TO.N,/B14*%
X147500000Y-117540000D03*
%TO.P,J4,3,3*%
%TO.N,/B13*%
X147500000Y-120080000D03*
%TO.P,J4,4,4*%
%TO.N,/B12*%
X147500000Y-122620000D03*
%TO.P,J4,5,5*%
%TO.N,/B11*%
X147500000Y-125160000D03*
%TO.P,J4,6,6*%
%TO.N,/B10*%
X147500000Y-127700000D03*
%TO.P,J4,7,7*%
%TO.N,/B9*%
X147500000Y-130240000D03*
%TO.P,J4,8,8*%
%TO.N,/B8*%
X147500000Y-132780000D03*
%TO.P,J4,9,9*%
%TO.N,/B7*%
X147500000Y-135320000D03*
%TO.P,J4,10,10*%
%TO.N,/Vin*%
X147500000Y-137860000D03*
%TO.P,J4,11,11*%
%TO.N,+3.3V*%
X147500000Y-140400000D03*
%TO.P,J4,12,12*%
%TO.N,GND*%
X147500000Y-142940000D03*
%TD*%
D14*
%TO.P,J3,1,1*%
%TO.N,/A0*%
X102500000Y-115000000D03*
D17*
%TO.P,J3,2,2*%
%TO.N,/A1*%
X102500000Y-117540000D03*
%TO.P,J3,3,3*%
%TO.N,/B0*%
X102500000Y-120080000D03*
%TO.P,J3,4,4*%
%TO.N,/B1*%
X102500000Y-122620000D03*
%TO.P,J3,5,5*%
%TO.N,/B2*%
X102500000Y-125160000D03*
%TO.P,J3,6,6*%
%TO.N,/A3*%
X102500000Y-127700000D03*
%TO.P,J3,7,7*%
%TO.N,/GREEN*%
X102500000Y-130240000D03*
%TO.P,J3,8,8*%
%TO.N,/YELLOW*%
X102500000Y-132780000D03*
%TO.P,J3,9,9*%
%TO.N,/B6*%
X102500000Y-135320000D03*
%TO.P,J3,10,10*%
%TO.N,/Vin*%
X102500000Y-137860000D03*
%TO.P,J3,11,11*%
%TO.N,+3.3V*%
X102500000Y-140400000D03*
%TO.P,J3,12,12*%
%TO.N,GND*%
X102500000Y-142940000D03*
%TD*%
D14*
%TO.P,J2,1,1*%
%TO.N,unconnected-(J2-Pad1)*%
X102500000Y-147320000D03*
D17*
%TO.P,J2,2,2*%
%TO.N,/U1TX*%
X105040000Y-147320000D03*
%TO.P,J2,3,3*%
%TO.N,/U1RX*%
X107580000Y-147320000D03*
%TO.P,J2,4,4*%
%TO.N,+5V*%
X110120000Y-147320000D03*
%TO.P,J2,5,5*%
%TO.N,unconnected-(J2-Pad5)*%
X112660000Y-147320000D03*
%TO.P,J2,6,6*%
%TO.N,GND*%
X115200000Y-147320000D03*
%TD*%
D14*
%TO.P,J1,1,5V*%
%TO.N,Net-(J1-5V)*%
X139700000Y-147320000D03*
D17*
%TO.P,J1,2,GND*%
%TO.N,GND*%
X142240000Y-147320000D03*
%TD*%
D18*
%TO.P,D3,1,K*%
%TO.N,Net-(D3-K)*%
X134620000Y-104140000D03*
D19*
%TO.P,D3,2,A*%
%TO.N,+3.3V*%
X137160000Y-104140000D03*
%TD*%
D18*
%TO.P,D2,1,K*%
%TO.N,Net-(D2-K)*%
X116840000Y-104140000D03*
D19*
%TO.P,D2,2,A*%
%TO.N,+3.3V*%
X119380000Y-104140000D03*
%TD*%
D18*
%TO.P,D1,1,K*%
%TO.N,Net-(D1-K)*%
X111760000Y-104140000D03*
D19*
%TO.P,D1,2,A*%
%TO.N,+3.3V*%
X114300000Y-104140000D03*
%TD*%
D16*
%TO.P,C6,1*%
%TO.N,+3.3V*%
X134620000Y-134620000D03*
%TO.P,C6,2*%
%TO.N,GND*%
X139620000Y-134620000D03*
%TD*%
%TO.P,C5,1*%
%TO.N,+3.3V*%
X134700000Y-127000000D03*
%TO.P,C5,2*%
%TO.N,GND*%
X139700000Y-127000000D03*
%TD*%
%TO.P,C4,1*%
%TO.N,Net-(U2-Vcap)*%
X134700000Y-119380000D03*
%TO.P,C4,2*%
%TO.N,GND*%
X139700000Y-119380000D03*
%TD*%
%TO.P,C3,1*%
%TO.N,+3.3V*%
X139700000Y-109220000D03*
%TO.P,C3,2*%
%TO.N,GND*%
X139700000Y-111720000D03*
%TD*%
%TO.P,C2,1*%
%TO.N,+3.3V*%
X134660000Y-109220000D03*
%TO.P,C2,2*%
%TO.N,GND*%
X134660000Y-111720000D03*
%TD*%
%TO.P,C1,1*%
%TO.N,/Vin*%
X134700000Y-142240000D03*
%TO.P,C1,2*%
%TO.N,GND*%
X139700000Y-142240000D03*
%TD*%
D20*
%TO.N,/MCLR*%
X109220000Y-111760000D03*
%TO.N,+3.3V*%
X127000000Y-127000000D03*
X142240000Y-137160000D03*
X132080000Y-137160000D03*
X132080000Y-144780000D03*
%TO.N,/U1TX*%
X124460000Y-124460000D03*
%TO.N,/U1RX*%
X127000000Y-129540000D03*
%TO.N,/GREEN*%
X111760000Y-129540000D03*
X119380000Y-121920000D03*
X119380000Y-132080000D03*
%TO.N,/USER*%
X116840000Y-137160000D03*
%TO.N,/YELLOW*%
X119380000Y-134620000D03*
X119380000Y-142240000D03*
%TO.N,/USER*%
X124460000Y-101600000D03*
X119380000Y-111760000D03*
%TO.N,/Vin*%
X106680000Y-139700000D03*
X106680000Y-144780000D03*
%TD*%
D21*
%TO.N,/MCLR*%
X109220000Y-111760000D02*
X109220000Y-106680000D01*
X109220000Y-106680000D02*
X106680000Y-104140000D01*
%TO.N,+3.3V*%
X128415000Y-128415000D02*
X127000000Y-127000000D01*
X128415000Y-130005991D02*
X128415000Y-128415000D01*
X129074009Y-130665000D02*
X128415000Y-130005991D01*
X131035000Y-130665000D02*
X129074009Y-130665000D01*
X134700000Y-127000000D02*
X131035000Y-130665000D01*
X144260000Y-137160000D02*
X142240000Y-137160000D01*
X147500000Y-140400000D02*
X144260000Y-137160000D01*
X132080000Y-144780000D02*
X132080000Y-137160000D01*
%TO.N,/U1TX*%
X108205000Y-144330000D02*
X124460000Y-144330000D01*
X105215000Y-147320000D02*
X108205000Y-144330000D01*
X105040000Y-147320000D02*
X105215000Y-147320000D01*
X124460000Y-144330000D02*
X124460000Y-124460000D01*
%TO.N,/U1RX*%
X127000000Y-144780000D02*
X127000000Y-129540000D01*
X107580000Y-147320000D02*
X110120000Y-144780000D01*
X110120000Y-144780000D02*
X127000000Y-144780000D01*
%TO.N,Net-(D1-K)*%
X106680000Y-122300000D02*
X110860000Y-118120000D01*
X110860000Y-118120000D02*
X110860000Y-105040000D01*
X110860000Y-105040000D02*
X111760000Y-104140000D01*
%TO.N,Net-(D2-K)*%
X106680000Y-127000000D02*
X111310000Y-127000000D01*
X111310000Y-127000000D02*
X111310000Y-109670000D01*
X111310000Y-109670000D02*
X116840000Y-104140000D01*
%TO.N,/GREEN*%
X111760000Y-129540000D02*
X111760000Y-124840000D01*
X111760000Y-124840000D02*
X114300000Y-122300000D01*
X119380000Y-132080000D02*
X119380000Y-121920000D01*
%TO.N,+3.3V*%
X106680000Y-116840000D02*
X106680000Y-111760000D01*
%TO.N,/USER*%
X116840000Y-116840000D02*
X114300000Y-116840000D01*
X116840000Y-137160000D02*
X116840000Y-116840000D01*
%TO.N,/YELLOW*%
X119380000Y-135279009D02*
X119380000Y-134620000D01*
X119380000Y-137160000D02*
X119380000Y-135279009D01*
X119380000Y-142240000D02*
X119380000Y-137160000D01*
%TO.N,/USER*%
X119380000Y-106680000D02*
X119380000Y-111760000D01*
X124460000Y-101600000D02*
X124460000Y-104460991D01*
X122240991Y-106680000D02*
X119380000Y-106680000D01*
X124460000Y-104460991D02*
X122240991Y-106680000D01*
%TO.N,Net-(U2-Vcap)*%
X132080000Y-127000000D02*
X132080000Y-119380000D01*
X129540000Y-129540000D02*
X132080000Y-127000000D01*
X132080000Y-119380000D02*
X134700000Y-119380000D01*
%TO.N,+3.3V*%
X134620000Y-134620000D02*
X134620000Y-127000000D01*
D22*
%TO.N,/Vin*%
X106680000Y-144780000D02*
X106680000Y-139700000D01*
%TD*%
%TA.AperFunction,Conductor*%
%TO.N,GND*%
G36*
X149937500Y-100017113D02*
G01*
X149982887Y-100062500D01*
X149999500Y-100124500D01*
X149999500Y-149875500D01*
X149982887Y-149937500D01*
X149937500Y-149982887D01*
X149875500Y-149999500D01*
X100124500Y-149999500D01*
X100062500Y-149982887D01*
X100017113Y-149937500D01*
X100000500Y-149875500D01*
X100000500Y-148217869D01*
X101149500Y-148217869D01*
X101155909Y-148277484D01*
X101168056Y-148310051D01*
X101206204Y-148412331D01*
X101292454Y-148527546D01*
X101407669Y-148613796D01*
X101542517Y-148664091D01*
X101602127Y-148670500D01*
X103397872Y-148670499D01*
X103457483Y-148664091D01*
X103592331Y-148613796D01*
X103707546Y-148527546D01*
X103793796Y-148412331D01*
X103842810Y-148280916D01*
X103877789Y-148230537D01*
X103932634Y-148203084D01*
X103993927Y-148205273D01*
X104046673Y-148236569D01*
X104168599Y-148358495D01*
X104362170Y-148494035D01*
X104576337Y-148593903D01*
X104788070Y-148650636D01*
X104804592Y-148655063D01*
X105039999Y-148675659D01*
X105039999Y-148675658D01*
X105040000Y-148675659D01*
X105275408Y-148655063D01*
X105503663Y-148593903D01*
X105717830Y-148494035D01*
X105911401Y-148358495D01*
X106078495Y-148191401D01*
X106208428Y-148005837D01*
X106252742Y-147966975D01*
X106309999Y-147952964D01*
X106367255Y-147966974D01*
X106411573Y-148005839D01*
X106541505Y-148191401D01*
X106708599Y-148358495D01*
X106902170Y-148494035D01*
X107116337Y-148593903D01*
X107328070Y-148650636D01*
X107344592Y-148655063D01*
X107579999Y-148675659D01*
X107579999Y-148675658D01*
X107580000Y-148675659D01*
X107815408Y-148655063D01*
X108043663Y-148593903D01*
X108257830Y-148494035D01*
X108451401Y-148358495D01*
X108618495Y-148191401D01*
X108748428Y-148005837D01*
X108792742Y-147966975D01*
X108849999Y-147952964D01*
X108907255Y-147966974D01*
X108951573Y-148005839D01*
X109081505Y-148191401D01*
X109248599Y-148358495D01*
X109442170Y-148494035D01*
X109656337Y-148593903D01*
X109868070Y-148650636D01*
X109884592Y-148655063D01*
X110119999Y-148675659D01*
X110119999Y-148675658D01*
X110120000Y-148675659D01*
X110355408Y-148655063D01*
X110583663Y-148593903D01*
X110797830Y-148494035D01*
X110991401Y-148358495D01*
X111158495Y-148191401D01*
X111288428Y-148005837D01*
X111332742Y-147966975D01*
X111389999Y-147952964D01*
X111447255Y-147966974D01*
X111491573Y-148005839D01*
X111621505Y-148191401D01*
X111788599Y-148358495D01*
X111982170Y-148494035D01*
X112196337Y-148593903D01*
X112408070Y-148650636D01*
X112424592Y-148655063D01*
X112659999Y-148675659D01*
X112659999Y-148675658D01*
X112660000Y-148675659D01*
X112895408Y-148655063D01*
X113123663Y-148593903D01*
X113337830Y-148494035D01*
X113531401Y-148358495D01*
X113698495Y-148191401D01*
X113828732Y-148005402D01*
X113873048Y-147966539D01*
X113930305Y-147952528D01*
X113987562Y-147966539D01*
X114031880Y-148005404D01*
X114161893Y-148191081D01*
X114328918Y-148358106D01*
X114522423Y-148493600D01*
X114736507Y-148593430D01*
X114949999Y-148650635D01*
X114950000Y-148650636D01*
X114950000Y-147570000D01*
X115450000Y-147570000D01*
X115450000Y-148650635D01*
X115663492Y-148593430D01*
X115877576Y-148493600D01*
X116071081Y-148358106D01*
X116211318Y-148217869D01*
X120569500Y-148217869D01*
X120575909Y-148277484D01*
X120588056Y-148310051D01*
X120626204Y-148412331D01*
X120712454Y-148527546D01*
X120827669Y-148613796D01*
X120962517Y-148664091D01*
X121022127Y-148670500D01*
X122817872Y-148670499D01*
X122877483Y-148664091D01*
X123012331Y-148613796D01*
X123127546Y-148527546D01*
X123213796Y-148412331D01*
X123251943Y-148310051D01*
X123286923Y-148259671D01*
X123341768Y-148232218D01*
X123403061Y-148234407D01*
X123455807Y-148265703D01*
X123548599Y-148358495D01*
X123742170Y-148494035D01*
X123956337Y-148593903D01*
X124168070Y-148650636D01*
X124184592Y-148655063D01*
X124419999Y-148675659D01*
X124419999Y-148675658D01*
X124420000Y-148675659D01*
X124655408Y-148655063D01*
X124883663Y-148593903D01*
X125097830Y-148494035D01*
X125291401Y-148358495D01*
X125458495Y-148191401D01*
X125568428Y-148034400D01*
X125612742Y-147995538D01*
X125669998Y-147981527D01*
X125727255Y-147995537D01*
X125771573Y-148034402D01*
X125881505Y-148191401D01*
X126048599Y-148358495D01*
X126242170Y-148494035D01*
X126456337Y-148593903D01*
X126668070Y-148650636D01*
X126684592Y-148655063D01*
X126919999Y-148675659D01*
X126919999Y-148675658D01*
X126920000Y-148675659D01*
X127155408Y-148655063D01*
X127383663Y-148593903D01*
X127597830Y-148494035D01*
X127791401Y-148358495D01*
X127932027Y-148217869D01*
X138349500Y-148217869D01*
X138355909Y-148277484D01*
X138368056Y-148310051D01*
X138406204Y-148412331D01*
X138492454Y-148527546D01*
X138607669Y-148613796D01*
X138742517Y-148664091D01*
X138802127Y-148670500D01*
X140597872Y-148670499D01*
X140657483Y-148664091D01*
X140792331Y-148613796D01*
X140907546Y-148527546D01*
X140993796Y-148412331D01*
X141043003Y-148280398D01*
X141077981Y-148230021D01*
X141132826Y-148202568D01*
X141194119Y-148204757D01*
X141246865Y-148236053D01*
X141368918Y-148358106D01*
X141562423Y-148493600D01*
X141776507Y-148593430D01*
X141989999Y-148650635D01*
X141990000Y-148650636D01*
X141990000Y-147570000D01*
X142490000Y-147570000D01*
X142490000Y-148650635D01*
X142703492Y-148593430D01*
X142917576Y-148493600D01*
X143111081Y-148358106D01*
X143278106Y-148191081D01*
X143413600Y-147997576D01*
X143513430Y-147783492D01*
X143570636Y-147570000D01*
X142490000Y-147570000D01*
X141990000Y-147570000D01*
X141990000Y-145989364D01*
X142490000Y-145989364D01*
X142490000Y-147070000D01*
X143570636Y-147070000D01*
X143570635Y-147069999D01*
X143513430Y-146856507D01*
X143413599Y-146642421D01*
X143278109Y-146448921D01*
X143111081Y-146281893D01*
X142917576Y-146146399D01*
X142703492Y-146046569D01*
X142490000Y-145989364D01*
X141990000Y-145989364D01*
X141989999Y-145989364D01*
X141776507Y-146046569D01*
X141562421Y-146146400D01*
X141368924Y-146281888D01*
X141246865Y-146403947D01*
X141194118Y-146435242D01*
X141132825Y-146437431D01*
X141077981Y-146409978D01*
X141043002Y-146359598D01*
X141042810Y-146359082D01*
X140993796Y-146227669D01*
X140907546Y-146112454D01*
X140792331Y-146026204D01*
X140657483Y-145975909D01*
X140597873Y-145969500D01*
X140597869Y-145969500D01*
X138802130Y-145969500D01*
X138742515Y-145975909D01*
X138607669Y-146026204D01*
X138492454Y-146112454D01*
X138406204Y-146227668D01*
X138356997Y-146359598D01*
X138355909Y-146362517D01*
X138351043Y-146407782D01*
X138349500Y-146422130D01*
X138349500Y-148217869D01*
X127932027Y-148217869D01*
X127958495Y-148191401D01*
X128094035Y-147997830D01*
X128193903Y-147783663D01*
X128255063Y-147555408D01*
X128275659Y-147320000D01*
X128255063Y-147084592D01*
X128193903Y-146856337D01*
X128094035Y-146642171D01*
X127958495Y-146448599D01*
X127791401Y-146281505D01*
X127597830Y-146145965D01*
X127383663Y-146046097D01*
X127322502Y-146029709D01*
X127155407Y-145984936D01*
X126920000Y-145964340D01*
X126684592Y-145984936D01*
X126456336Y-146046097D01*
X126242170Y-146145965D01*
X126048598Y-146281505D01*
X125881505Y-146448598D01*
X125771575Y-146605596D01*
X125727257Y-146644462D01*
X125670000Y-146658473D01*
X125612743Y-146644462D01*
X125568425Y-146605596D01*
X125458494Y-146448598D01*
X125291404Y-146281508D01*
X125291401Y-146281505D01*
X125097830Y-146145965D01*
X124883663Y-146046097D01*
X124822502Y-146029709D01*
X124655407Y-145984936D01*
X124420000Y-145964340D01*
X124184592Y-145984936D01*
X123956336Y-146046097D01*
X123742170Y-146145965D01*
X123548601Y-146281503D01*
X123455806Y-146374298D01*
X123403059Y-146405593D01*
X123341766Y-146407782D01*
X123286922Y-146380328D01*
X123251945Y-146329951D01*
X123213796Y-146227669D01*
X123127546Y-146112454D01*
X123012331Y-146026204D01*
X122877483Y-145975909D01*
X122817873Y-145969500D01*
X122817869Y-145969500D01*
X121022130Y-145969500D01*
X120962515Y-145975909D01*
X120827669Y-146026204D01*
X120712454Y-146112454D01*
X120626204Y-146227668D01*
X120576997Y-146359598D01*
X120575909Y-146362517D01*
X120571043Y-146407782D01*
X120569500Y-146422130D01*
X120569500Y-148217869D01*
X116211318Y-148217869D01*
X116238106Y-148191081D01*
X116373600Y-147997576D01*
X116473430Y-147783492D01*
X116530636Y-147570000D01*
X115450000Y-147570000D01*
X114950000Y-147570000D01*
X114950000Y-145989364D01*
X115450000Y-145989364D01*
X115450000Y-147070000D01*
X116530636Y-147070000D01*
X116530635Y-147069999D01*
X116473430Y-146856507D01*
X116373599Y-146642421D01*
X116238109Y-146448921D01*
X116071081Y-146281893D01*
X115877576Y-146146399D01*
X115663492Y-146046569D01*
X115450000Y-145989364D01*
X114950000Y-145989364D01*
X114949999Y-145989364D01*
X114736507Y-146046569D01*
X114522421Y-146146400D01*
X114328921Y-146281890D01*
X114161893Y-146448918D01*
X114031880Y-146634596D01*
X113987562Y-146673461D01*
X113930305Y-146687472D01*
X113873048Y-146673461D01*
X113828730Y-146634595D01*
X113828425Y-146634159D01*
X113698495Y-146448599D01*
X113531401Y-146281505D01*
X113337830Y-146145965D01*
X113123663Y-146046097D01*
X113062502Y-146029709D01*
X112895407Y-145984936D01*
X112660000Y-145964340D01*
X112424592Y-145984936D01*
X112196336Y-146046097D01*
X111982170Y-146145965D01*
X111788598Y-146281505D01*
X111621505Y-146448598D01*
X111491575Y-146634159D01*
X111447257Y-146673025D01*
X111390000Y-146687036D01*
X111332743Y-146673025D01*
X111288425Y-146634159D01*
X111158494Y-146448598D01*
X110991404Y-146281508D01*
X110991401Y-146281505D01*
X110797830Y-146145965D01*
X110583663Y-146046097D01*
X110522502Y-146029709D01*
X110355407Y-145984936D01*
X110109270Y-145963401D01*
X110044591Y-145938248D01*
X110003556Y-145882283D01*
X109999017Y-145813034D01*
X110032394Y-145752196D01*
X110342774Y-145441816D01*
X110383000Y-145414939D01*
X110430453Y-145405500D01*
X126929151Y-145405500D01*
X126952385Y-145407696D01*
X126960412Y-145409227D01*
X127015759Y-145405745D01*
X127023545Y-145405500D01*
X127039351Y-145405500D01*
X127043582Y-145404965D01*
X127055036Y-145403517D01*
X127062738Y-145402788D01*
X127118138Y-145399304D01*
X127125902Y-145396781D01*
X127148676Y-145391689D01*
X127156792Y-145390664D01*
X127208396Y-145370231D01*
X127215671Y-145367612D01*
X127268441Y-145350467D01*
X127275337Y-145346090D01*
X127296132Y-145335494D01*
X127303732Y-145332486D01*
X127348624Y-145299869D01*
X127355026Y-145295517D01*
X127401877Y-145265786D01*
X127407461Y-145259838D01*
X127424979Y-145244394D01*
X127431587Y-145239594D01*
X127431588Y-145239591D01*
X127431590Y-145239591D01*
X127466938Y-145196861D01*
X127472080Y-145191027D01*
X127510062Y-145150582D01*
X127513999Y-145143418D01*
X127527119Y-145124114D01*
X127532324Y-145117823D01*
X127555942Y-145067630D01*
X127559467Y-145060711D01*
X127586197Y-145012092D01*
X127588228Y-145004177D01*
X127596132Y-144982223D01*
X127599614Y-144974826D01*
X127610010Y-144920325D01*
X127611698Y-144912768D01*
X127625500Y-144859019D01*
X127625500Y-144850849D01*
X127627696Y-144827615D01*
X127629227Y-144819587D01*
X127626736Y-144780000D01*
X131174540Y-144780000D01*
X131194326Y-144968257D01*
X131252820Y-145148284D01*
X131347466Y-145312216D01*
X131474129Y-145452889D01*
X131627269Y-145564151D01*
X131800197Y-145641144D01*
X131985352Y-145680500D01*
X131985354Y-145680500D01*
X132174646Y-145680500D01*
X132174648Y-145680500D01*
X132298083Y-145654262D01*
X132359803Y-145641144D01*
X132532730Y-145564151D01*
X132555619Y-145547521D01*
X132685870Y-145452889D01*
X132695839Y-145441818D01*
X132812533Y-145312216D01*
X132907179Y-145148284D01*
X132965674Y-144968256D01*
X132985460Y-144780000D01*
X132965674Y-144591744D01*
X132907179Y-144411716D01*
X132907179Y-144411715D01*
X132812535Y-144247786D01*
X132781600Y-144213430D01*
X132737347Y-144164282D01*
X132713736Y-144125751D01*
X132705500Y-144081313D01*
X132705500Y-142239999D01*
X133394531Y-142239999D01*
X133414364Y-142466689D01*
X133473261Y-142686497D01*
X133569432Y-142892735D01*
X133699953Y-143079140D01*
X133860859Y-143240046D01*
X134047264Y-143370567D01*
X134047265Y-143370567D01*
X134047266Y-143370568D01*
X134253504Y-143466739D01*
X134473308Y-143525635D01*
X134700000Y-143545468D01*
X134926692Y-143525635D01*
X135146496Y-143466739D01*
X135352734Y-143370568D01*
X135426344Y-143319026D01*
X138974526Y-143319026D01*
X139047515Y-143370133D01*
X139253673Y-143466266D01*
X139473397Y-143525141D01*
X139700000Y-143544966D01*
X139926602Y-143525141D01*
X140146326Y-143466266D01*
X140352480Y-143370134D01*
X140425472Y-143319025D01*
X140296447Y-143190000D01*
X146169364Y-143190000D01*
X146226569Y-143403492D01*
X146326399Y-143617576D01*
X146461893Y-143811081D01*
X146628918Y-143978106D01*
X146822423Y-144113600D01*
X147036507Y-144213430D01*
X147249999Y-144270635D01*
X147250000Y-144270636D01*
X147250000Y-143190000D01*
X147750000Y-143190000D01*
X147750000Y-144270635D01*
X147963492Y-144213430D01*
X148177576Y-144113600D01*
X148371081Y-143978106D01*
X148538106Y-143811081D01*
X148673600Y-143617576D01*
X148773430Y-143403492D01*
X148830636Y-143190000D01*
X147750000Y-143190000D01*
X147250000Y-143190000D01*
X146169364Y-143190000D01*
X140296447Y-143190000D01*
X139700001Y-142593553D01*
X139700000Y-142593553D01*
X138974526Y-143319025D01*
X138974526Y-143319026D01*
X135426344Y-143319026D01*
X135539139Y-143240047D01*
X135700047Y-143079139D01*
X135830568Y-142892734D01*
X135926739Y-142686496D01*
X135985635Y-142466692D01*
X136005468Y-142240000D01*
X138395033Y-142240000D01*
X138414858Y-142466602D01*
X138473733Y-142686326D01*
X138569866Y-142892484D01*
X138620972Y-142965471D01*
X138620974Y-142965472D01*
X139346446Y-142240001D01*
X140053553Y-142240001D01*
X140779025Y-142965472D01*
X140830134Y-142892480D01*
X140926266Y-142686326D01*
X140985141Y-142466602D01*
X141004966Y-142239999D01*
X140985141Y-142013397D01*
X140926266Y-141793673D01*
X140830133Y-141587515D01*
X140779025Y-141514526D01*
X140053553Y-142240000D01*
X140053553Y-142240001D01*
X139346446Y-142240001D01*
X139346446Y-142239999D01*
X138620973Y-141514526D01*
X138620973Y-141514527D01*
X138569865Y-141587516D01*
X138473733Y-141793672D01*
X138414858Y-142013397D01*
X138395033Y-142240000D01*
X136005468Y-142240000D01*
X135985635Y-142013308D01*
X135926739Y-141793504D01*
X135830568Y-141587266D01*
X135829507Y-141585751D01*
X135700046Y-141400859D01*
X135539140Y-141239953D01*
X135426344Y-141160973D01*
X138974526Y-141160973D01*
X139700000Y-141886446D01*
X139700001Y-141886446D01*
X140425472Y-141160974D01*
X140425471Y-141160972D01*
X140352484Y-141109866D01*
X140146326Y-141013733D01*
X139926602Y-140954858D01*
X139700000Y-140935033D01*
X139473397Y-140954858D01*
X139253672Y-141013733D01*
X139047516Y-141109865D01*
X138974527Y-141160973D01*
X138974526Y-141160973D01*
X135426344Y-141160973D01*
X135352735Y-141109432D01*
X135146497Y-141013261D01*
X134926689Y-140954364D01*
X134700000Y-140934531D01*
X134473310Y-140954364D01*
X134253502Y-141013261D01*
X134047264Y-141109432D01*
X133860859Y-141239953D01*
X133699953Y-141400859D01*
X133569432Y-141587264D01*
X133473261Y-141793502D01*
X133414364Y-142013310D01*
X133394531Y-142239999D01*
X132705500Y-142239999D01*
X132705500Y-137858687D01*
X132713736Y-137814249D01*
X132737347Y-137775717D01*
X132812533Y-137692216D01*
X132907179Y-137528284D01*
X132965674Y-137348256D01*
X132985460Y-137160000D01*
X132985460Y-137159999D01*
X141334540Y-137159999D01*
X141354326Y-137348257D01*
X141412820Y-137528284D01*
X141507466Y-137692216D01*
X141634129Y-137832889D01*
X141787269Y-137944151D01*
X141960197Y-138021144D01*
X142145352Y-138060500D01*
X142145354Y-138060500D01*
X142334646Y-138060500D01*
X142334648Y-138060500D01*
X142458083Y-138034262D01*
X142519803Y-138021144D01*
X142692730Y-137944151D01*
X142845871Y-137832888D01*
X142851598Y-137826526D01*
X142893312Y-137796220D01*
X142943747Y-137785500D01*
X143949548Y-137785500D01*
X143997001Y-137794939D01*
X144037229Y-137821819D01*
X146159761Y-139944352D01*
X146191855Y-139999939D01*
X146191855Y-140064125D01*
X146164936Y-140164591D01*
X146144340Y-140400000D01*
X146164936Y-140635407D01*
X146209709Y-140802502D01*
X146226097Y-140863663D01*
X146325965Y-141077830D01*
X146461505Y-141271401D01*
X146628599Y-141438495D01*
X146814597Y-141568732D01*
X146853460Y-141613048D01*
X146867471Y-141670305D01*
X146853461Y-141727561D01*
X146814595Y-141771880D01*
X146628919Y-141901892D01*
X146461890Y-142068921D01*
X146326400Y-142262421D01*
X146226569Y-142476507D01*
X146169364Y-142689999D01*
X146169364Y-142690000D01*
X148830636Y-142690000D01*
X148830635Y-142689999D01*
X148773430Y-142476507D01*
X148673599Y-142262421D01*
X148538109Y-142068921D01*
X148371081Y-141901893D01*
X148185404Y-141771880D01*
X148146539Y-141727562D01*
X148132528Y-141670305D01*
X148146539Y-141613048D01*
X148185402Y-141568732D01*
X148371401Y-141438495D01*
X148538495Y-141271401D01*
X148674035Y-141077830D01*
X148773903Y-140863663D01*
X148835063Y-140635408D01*
X148855659Y-140400000D01*
X148835063Y-140164592D01*
X148773903Y-139936337D01*
X148674035Y-139722171D01*
X148538495Y-139528599D01*
X148371401Y-139361505D01*
X148185839Y-139231573D01*
X148146975Y-139187257D01*
X148132964Y-139130000D01*
X148146975Y-139072743D01*
X148185839Y-139028426D01*
X148371401Y-138898495D01*
X148538495Y-138731401D01*
X148674035Y-138537830D01*
X148773903Y-138323663D01*
X148835063Y-138095408D01*
X148855659Y-137860000D01*
X148835063Y-137624592D01*
X148773903Y-137396337D01*
X148674035Y-137182171D01*
X148538495Y-136988599D01*
X148371401Y-136821505D01*
X148185839Y-136691573D01*
X148146974Y-136647255D01*
X148132964Y-136589999D01*
X148146975Y-136532742D01*
X148185837Y-136488428D01*
X148371401Y-136358495D01*
X148538495Y-136191401D01*
X148674035Y-135997830D01*
X148773903Y-135783663D01*
X148835063Y-135555408D01*
X148855659Y-135320000D01*
X148835063Y-135084592D01*
X148773903Y-134856337D01*
X148674035Y-134642171D01*
X148538495Y-134448599D01*
X148371401Y-134281505D01*
X148185839Y-134151573D01*
X148146976Y-134107257D01*
X148132965Y-134050000D01*
X148146976Y-133992743D01*
X148185839Y-133948426D01*
X148371401Y-133818495D01*
X148538495Y-133651401D01*
X148674035Y-133457830D01*
X148773903Y-133243663D01*
X148835063Y-133015408D01*
X148855659Y-132780000D01*
X148851501Y-132732480D01*
X148835063Y-132544592D01*
X148773903Y-132316337D01*
X148674035Y-132102171D01*
X148538495Y-131908599D01*
X148371401Y-131741505D01*
X148185839Y-131611573D01*
X148146975Y-131567257D01*
X148132964Y-131510000D01*
X148146975Y-131452743D01*
X148185839Y-131408426D01*
X148371401Y-131278495D01*
X148538495Y-131111401D01*
X148674035Y-130917830D01*
X148773903Y-130703663D01*
X148835063Y-130475408D01*
X148855659Y-130240000D01*
X148835063Y-130004592D01*
X148773903Y-129776337D01*
X148674035Y-129562171D01*
X148538495Y-129368599D01*
X148371401Y-129201505D01*
X148185839Y-129071573D01*
X148146974Y-129027255D01*
X148132964Y-128969999D01*
X148146975Y-128912742D01*
X148185837Y-128868428D01*
X148371401Y-128738495D01*
X148538495Y-128571401D01*
X148674035Y-128377830D01*
X148773903Y-128163663D01*
X148835063Y-127935408D01*
X148855659Y-127700000D01*
X148835063Y-127464592D01*
X148773903Y-127236337D01*
X148674035Y-127022171D01*
X148538495Y-126828599D01*
X148371401Y-126661505D01*
X148185839Y-126531573D01*
X148146975Y-126487257D01*
X148132964Y-126430000D01*
X148146975Y-126372743D01*
X148185839Y-126328426D01*
X148371401Y-126198495D01*
X148538495Y-126031401D01*
X148674035Y-125837830D01*
X148773903Y-125623663D01*
X148835063Y-125395408D01*
X148855659Y-125160000D01*
X148835063Y-124924592D01*
X148773903Y-124696337D01*
X148674035Y-124482171D01*
X148538495Y-124288599D01*
X148371401Y-124121505D01*
X148185839Y-123991573D01*
X148146975Y-123947257D01*
X148132964Y-123890000D01*
X148146975Y-123832743D01*
X148185839Y-123788426D01*
X148371401Y-123658495D01*
X148538495Y-123491401D01*
X148674035Y-123297830D01*
X148773903Y-123083663D01*
X148835063Y-122855408D01*
X148855659Y-122620000D01*
X148835063Y-122384592D01*
X148773903Y-122156337D01*
X148674035Y-121942171D01*
X148538495Y-121748599D01*
X148371401Y-121581505D01*
X148185839Y-121451573D01*
X148146975Y-121407257D01*
X148132964Y-121350000D01*
X148146975Y-121292743D01*
X148185839Y-121248426D01*
X148371401Y-121118495D01*
X148538495Y-120951401D01*
X148674035Y-120757830D01*
X148773903Y-120543663D01*
X148835063Y-120315408D01*
X148855659Y-120080000D01*
X148851501Y-120032480D01*
X148835063Y-119844592D01*
X148835062Y-119844591D01*
X148773903Y-119616337D01*
X148674035Y-119402171D01*
X148538495Y-119208599D01*
X148371401Y-119041505D01*
X148185839Y-118911573D01*
X148146974Y-118867255D01*
X148132964Y-118809999D01*
X148146975Y-118752742D01*
X148185837Y-118708428D01*
X148371401Y-118578495D01*
X148538495Y-118411401D01*
X148674035Y-118217830D01*
X148773903Y-118003663D01*
X148835063Y-117775408D01*
X148855659Y-117540000D01*
X148835063Y-117304592D01*
X148773903Y-117076337D01*
X148674035Y-116862171D01*
X148538495Y-116668599D01*
X148416569Y-116546673D01*
X148385273Y-116493927D01*
X148383084Y-116432634D01*
X148410537Y-116377789D01*
X148460916Y-116342810D01*
X148592331Y-116293796D01*
X148707546Y-116207546D01*
X148793796Y-116092331D01*
X148844091Y-115957483D01*
X148850500Y-115897873D01*
X148850499Y-114102128D01*
X148844091Y-114042517D01*
X148793796Y-113907669D01*
X148707546Y-113792454D01*
X148592331Y-113706204D01*
X148457483Y-113655909D01*
X148397873Y-113649500D01*
X148397869Y-113649500D01*
X146602130Y-113649500D01*
X146542515Y-113655909D01*
X146407669Y-113706204D01*
X146292454Y-113792454D01*
X146206204Y-113907668D01*
X146155909Y-114042515D01*
X146155909Y-114042517D01*
X146152599Y-114073308D01*
X146149500Y-114102130D01*
X146149500Y-115897869D01*
X146155909Y-115957483D01*
X146206204Y-116092331D01*
X146292454Y-116207546D01*
X146407669Y-116293796D01*
X146504571Y-116329938D01*
X146539082Y-116342810D01*
X146589462Y-116377789D01*
X146616915Y-116432634D01*
X146614726Y-116493926D01*
X146583431Y-116546673D01*
X146461503Y-116668601D01*
X146325965Y-116862170D01*
X146226097Y-117076336D01*
X146164936Y-117304592D01*
X146144340Y-117540000D01*
X146164936Y-117775407D01*
X146187847Y-117860910D01*
X146226097Y-118003663D01*
X146325965Y-118217830D01*
X146461505Y-118411401D01*
X146628599Y-118578495D01*
X146814160Y-118708426D01*
X146853024Y-118752743D01*
X146867035Y-118810000D01*
X146853024Y-118867257D01*
X146814159Y-118911575D01*
X146628595Y-119041508D01*
X146461505Y-119208598D01*
X146325965Y-119402170D01*
X146226097Y-119616336D01*
X146164936Y-119844592D01*
X146144340Y-120079999D01*
X146164936Y-120315407D01*
X146203419Y-120459026D01*
X146226097Y-120543663D01*
X146325965Y-120757830D01*
X146461505Y-120951401D01*
X146628599Y-121118495D01*
X146814160Y-121248426D01*
X146853024Y-121292743D01*
X146867035Y-121350000D01*
X146853024Y-121407257D01*
X146814159Y-121451575D01*
X146628595Y-121581508D01*
X146461505Y-121748598D01*
X146325965Y-121942170D01*
X146226097Y-122156336D01*
X146164936Y-122384592D01*
X146144340Y-122620000D01*
X146164936Y-122855407D01*
X146191015Y-122952734D01*
X146226097Y-123083663D01*
X146325965Y-123297830D01*
X146461505Y-123491401D01*
X146628599Y-123658495D01*
X146814160Y-123788426D01*
X146853024Y-123832743D01*
X146867035Y-123890000D01*
X146853024Y-123947257D01*
X146814159Y-123991575D01*
X146628595Y-124121508D01*
X146461505Y-124288598D01*
X146325965Y-124482170D01*
X146226097Y-124696336D01*
X146164936Y-124924592D01*
X146144340Y-125160000D01*
X146164936Y-125395407D01*
X146209709Y-125562502D01*
X146226097Y-125623663D01*
X146325965Y-125837830D01*
X146461505Y-126031401D01*
X146628599Y-126198495D01*
X146814160Y-126328426D01*
X146853024Y-126372743D01*
X146867035Y-126430000D01*
X146853024Y-126487257D01*
X146814159Y-126531575D01*
X146628595Y-126661508D01*
X146461505Y-126828598D01*
X146325965Y-127022170D01*
X146226097Y-127236336D01*
X146164936Y-127464592D01*
X146144340Y-127700000D01*
X146164936Y-127935407D01*
X146203419Y-128079026D01*
X146226097Y-128163663D01*
X146325965Y-128377830D01*
X146461505Y-128571401D01*
X146628599Y-128738495D01*
X146814160Y-128868426D01*
X146853024Y-128912743D01*
X146867035Y-128970000D01*
X146853024Y-129027257D01*
X146814160Y-129071574D01*
X146764347Y-129106454D01*
X146628595Y-129201508D01*
X146461505Y-129368598D01*
X146325965Y-129562170D01*
X146226097Y-129776336D01*
X146164936Y-130004592D01*
X146144340Y-130240000D01*
X146164936Y-130475407D01*
X146209709Y-130642502D01*
X146226097Y-130703663D01*
X146325965Y-130917830D01*
X146461505Y-131111401D01*
X146628599Y-131278495D01*
X146814160Y-131408426D01*
X146853024Y-131452743D01*
X146867035Y-131510000D01*
X146853024Y-131567257D01*
X146814159Y-131611575D01*
X146628595Y-131741508D01*
X146461505Y-131908598D01*
X146325965Y-132102170D01*
X146226097Y-132316336D01*
X146164936Y-132544592D01*
X146144340Y-132779999D01*
X146164936Y-133015407D01*
X146209709Y-133182501D01*
X146226097Y-133243663D01*
X146325965Y-133457830D01*
X146461505Y-133651401D01*
X146628599Y-133818495D01*
X146814160Y-133948426D01*
X146853024Y-133992743D01*
X146867035Y-134050000D01*
X146853024Y-134107257D01*
X146814159Y-134151575D01*
X146628595Y-134281508D01*
X146461505Y-134448598D01*
X146325965Y-134642170D01*
X146226097Y-134856336D01*
X146164936Y-135084592D01*
X146144340Y-135320000D01*
X146164936Y-135555407D01*
X146203419Y-135699026D01*
X146226097Y-135783663D01*
X146325965Y-135997830D01*
X146461505Y-136191401D01*
X146628599Y-136358495D01*
X146814160Y-136488426D01*
X146853024Y-136532743D01*
X146867035Y-136590000D01*
X146853024Y-136647257D01*
X146814159Y-136691575D01*
X146628595Y-136821508D01*
X146461505Y-136988598D01*
X146325965Y-137182170D01*
X146226097Y-137396336D01*
X146164936Y-137624592D01*
X146143401Y-137870728D01*
X146118249Y-137935407D01*
X146062283Y-137976442D01*
X145993034Y-137980981D01*
X145932192Y-137947601D01*
X144760802Y-136776211D01*
X144747906Y-136760113D01*
X144696775Y-136712098D01*
X144693978Y-136709387D01*
X144674470Y-136689879D01*
X144671290Y-136687412D01*
X144662424Y-136679839D01*
X144630582Y-136649938D01*
X144613024Y-136640285D01*
X144596764Y-136629604D01*
X144580936Y-136617327D01*
X144540851Y-136599980D01*
X144530361Y-136594841D01*
X144492091Y-136573802D01*
X144472691Y-136568821D01*
X144454284Y-136562519D01*
X144435897Y-136554562D01*
X144392758Y-136547729D01*
X144381324Y-136545361D01*
X144339019Y-136534500D01*
X144318984Y-136534500D01*
X144299586Y-136532973D01*
X144292162Y-136531797D01*
X144279805Y-136529840D01*
X144279804Y-136529840D01*
X144249094Y-136532743D01*
X144236325Y-136533950D01*
X144224656Y-136534500D01*
X142943747Y-136534500D01*
X142893312Y-136523780D01*
X142851598Y-136493473D01*
X142845871Y-136487112D01*
X142692730Y-136375849D01*
X142692729Y-136375848D01*
X142692727Y-136375847D01*
X142519802Y-136298855D01*
X142334648Y-136259500D01*
X142334646Y-136259500D01*
X142145354Y-136259500D01*
X142145352Y-136259500D01*
X141960197Y-136298855D01*
X141787269Y-136375848D01*
X141634129Y-136487110D01*
X141507466Y-136627783D01*
X141412820Y-136791715D01*
X141354326Y-136971742D01*
X141334540Y-137159999D01*
X132985460Y-137159999D01*
X132965674Y-136971744D01*
X132907179Y-136791716D01*
X132907179Y-136791715D01*
X132812533Y-136627783D01*
X132685870Y-136487110D01*
X132532730Y-136375848D01*
X132359802Y-136298855D01*
X132174648Y-136259500D01*
X132174646Y-136259500D01*
X131985354Y-136259500D01*
X131985352Y-136259500D01*
X131800197Y-136298855D01*
X131627269Y-136375848D01*
X131474129Y-136487110D01*
X131347466Y-136627783D01*
X131252820Y-136791715D01*
X131194326Y-136971742D01*
X131174540Y-137159999D01*
X131194326Y-137348257D01*
X131252820Y-137528284D01*
X131347464Y-137692213D01*
X131347467Y-137692216D01*
X131422652Y-137775717D01*
X131446264Y-137814249D01*
X131454500Y-137858687D01*
X131454500Y-144081313D01*
X131446264Y-144125751D01*
X131422652Y-144164282D01*
X131389545Y-144201051D01*
X131347464Y-144247786D01*
X131252820Y-144411715D01*
X131194326Y-144591742D01*
X131174540Y-144780000D01*
X127626736Y-144780000D01*
X127625745Y-144764241D01*
X127625500Y-144756455D01*
X127625500Y-142239999D01*
X128234531Y-142239999D01*
X128254364Y-142466689D01*
X128313261Y-142686497D01*
X128409432Y-142892735D01*
X128539953Y-143079140D01*
X128700859Y-143240046D01*
X128887264Y-143370567D01*
X128887265Y-143370567D01*
X128887266Y-143370568D01*
X129093504Y-143466739D01*
X129313308Y-143525635D01*
X129540000Y-143545468D01*
X129766692Y-143525635D01*
X129986496Y-143466739D01*
X130192734Y-143370568D01*
X130379139Y-143240047D01*
X130540047Y-143079139D01*
X130670568Y-142892734D01*
X130766739Y-142686496D01*
X130825635Y-142466692D01*
X130845468Y-142240000D01*
X130825635Y-142013308D01*
X130766739Y-141793504D01*
X130670568Y-141587266D01*
X130669507Y-141585751D01*
X130540046Y-141400859D01*
X130379140Y-141239953D01*
X130192733Y-141109431D01*
X130134725Y-141082382D01*
X130082549Y-141036625D01*
X130063129Y-140970000D01*
X130082549Y-140903375D01*
X130134725Y-140857618D01*
X130192734Y-140830568D01*
X130379139Y-140700047D01*
X130540047Y-140539139D01*
X130670568Y-140352734D01*
X130766739Y-140146496D01*
X130825635Y-139926692D01*
X130845468Y-139700000D01*
X130825635Y-139473308D01*
X130766739Y-139253504D01*
X130670568Y-139047266D01*
X130656456Y-139027112D01*
X130540046Y-138860859D01*
X130379140Y-138699953D01*
X130192733Y-138569431D01*
X130134725Y-138542382D01*
X130082549Y-138496625D01*
X130063129Y-138430000D01*
X130082549Y-138363375D01*
X130134725Y-138317618D01*
X130192734Y-138290568D01*
X130379139Y-138160047D01*
X130540047Y-137999139D01*
X130670568Y-137812734D01*
X130766739Y-137606496D01*
X130825635Y-137386692D01*
X130845468Y-137160000D01*
X130825635Y-136933308D01*
X130766739Y-136713504D01*
X130670568Y-136507266D01*
X130669507Y-136505751D01*
X130540046Y-136320859D01*
X130379140Y-136159953D01*
X130192733Y-136029431D01*
X130134725Y-136002382D01*
X130082549Y-135956625D01*
X130063129Y-135890000D01*
X130082549Y-135823375D01*
X130134725Y-135777618D01*
X130192734Y-135750568D01*
X130379139Y-135620047D01*
X130540047Y-135459139D01*
X130670568Y-135272734D01*
X130766739Y-135066496D01*
X130825635Y-134846692D01*
X130845468Y-134620000D01*
X130825635Y-134393308D01*
X130766739Y-134173504D01*
X130670568Y-133967266D01*
X130656456Y-133947112D01*
X130540046Y-133780859D01*
X130379140Y-133619953D01*
X130192736Y-133489433D01*
X130165499Y-133476732D01*
X130134132Y-133462105D01*
X130081958Y-133416348D01*
X130062539Y-133349723D01*
X130081959Y-133283098D01*
X130134135Y-133237342D01*
X130192479Y-133210135D01*
X130378819Y-133079658D01*
X130539658Y-132918819D01*
X130670134Y-132732480D01*
X130766266Y-132526326D01*
X130818872Y-132330000D01*
X128261128Y-132330000D01*
X128313733Y-132526326D01*
X128409865Y-132732480D01*
X128540341Y-132918819D01*
X128701180Y-133079658D01*
X128887519Y-133210134D01*
X128945865Y-133237342D01*
X128998040Y-133283099D01*
X129017460Y-133349723D01*
X128998041Y-133416348D01*
X128945866Y-133462105D01*
X128887267Y-133489430D01*
X128700859Y-133619953D01*
X128539953Y-133780859D01*
X128409432Y-133967264D01*
X128313261Y-134173502D01*
X128254364Y-134393310D01*
X128234531Y-134619999D01*
X128254364Y-134846689D01*
X128313261Y-135066497D01*
X128409432Y-135272735D01*
X128539953Y-135459140D01*
X128700859Y-135620046D01*
X128886645Y-135750133D01*
X128887266Y-135750568D01*
X128945275Y-135777618D01*
X128997450Y-135823375D01*
X129016869Y-135890000D01*
X128997450Y-135956625D01*
X128945275Y-136002382D01*
X128887263Y-136029433D01*
X128700859Y-136159953D01*
X128539953Y-136320859D01*
X128409432Y-136507264D01*
X128313261Y-136713502D01*
X128254364Y-136933310D01*
X128234531Y-137159999D01*
X128254364Y-137386689D01*
X128313261Y-137606497D01*
X128409432Y-137812735D01*
X128539953Y-137999140D01*
X128700859Y-138160046D01*
X128774251Y-138211435D01*
X128887266Y-138290568D01*
X128945275Y-138317618D01*
X128997450Y-138363375D01*
X129016869Y-138430000D01*
X128997450Y-138496625D01*
X128945275Y-138542382D01*
X128887263Y-138569433D01*
X128700859Y-138699953D01*
X128539953Y-138860859D01*
X128409432Y-139047264D01*
X128313261Y-139253502D01*
X128254364Y-139473310D01*
X128234531Y-139699999D01*
X128254364Y-139926689D01*
X128313261Y-140146497D01*
X128409432Y-140352735D01*
X128539953Y-140539140D01*
X128700859Y-140700046D01*
X128887263Y-140830566D01*
X128887266Y-140830568D01*
X128945275Y-140857618D01*
X128997450Y-140903375D01*
X129016869Y-140970000D01*
X128997450Y-141036625D01*
X128945275Y-141082382D01*
X128887263Y-141109433D01*
X128700859Y-141239953D01*
X128539953Y-141400859D01*
X128409432Y-141587264D01*
X128313261Y-141793502D01*
X128254364Y-142013310D01*
X128234531Y-142239999D01*
X127625500Y-142239999D01*
X127625500Y-130361124D01*
X127643977Y-130296003D01*
X127693900Y-130250288D01*
X127760393Y-130237603D01*
X127823640Y-130261729D01*
X127851622Y-130298275D01*
X127853307Y-130297051D01*
X127888180Y-130345050D01*
X127894593Y-130354813D01*
X127916826Y-130392407D01*
X127916829Y-130392410D01*
X127916830Y-130392411D01*
X127930995Y-130406576D01*
X127943627Y-130421366D01*
X127955406Y-130437578D01*
X127989058Y-130465417D01*
X127997698Y-130473279D01*
X128565290Y-131040872D01*
X128597383Y-131096457D01*
X128597383Y-131160643D01*
X128565291Y-131216231D01*
X128540339Y-131241183D01*
X128409865Y-131427519D01*
X128313733Y-131633673D01*
X128261128Y-131829999D01*
X128261128Y-131830000D01*
X130818872Y-131830000D01*
X130818871Y-131829999D01*
X130766265Y-131633671D01*
X130688501Y-131466904D01*
X130677149Y-131406390D01*
X130696303Y-131347875D01*
X130741240Y-131305786D01*
X130800883Y-131290500D01*
X130952256Y-131290500D01*
X130972762Y-131292764D01*
X130975665Y-131292672D01*
X130975667Y-131292673D01*
X131042872Y-131290561D01*
X131046768Y-131290500D01*
X131074349Y-131290500D01*
X131074350Y-131290500D01*
X131078319Y-131289998D01*
X131089965Y-131289080D01*
X131133627Y-131287709D01*
X131152859Y-131282120D01*
X131171918Y-131278174D01*
X131178196Y-131277381D01*
X131191792Y-131275664D01*
X131232407Y-131259582D01*
X131243444Y-131255803D01*
X131285390Y-131243618D01*
X131302629Y-131233422D01*
X131320102Y-131224862D01*
X131338732Y-131217486D01*
X131374064Y-131191814D01*
X131383830Y-131185400D01*
X131421418Y-131163171D01*
X131421417Y-131163171D01*
X131421420Y-131163170D01*
X131435585Y-131149004D01*
X131450373Y-131136373D01*
X131466587Y-131124594D01*
X131494438Y-131090926D01*
X131502279Y-131082309D01*
X133782818Y-128801771D01*
X133832182Y-128771521D01*
X133889898Y-128766979D01*
X133943385Y-128789134D01*
X133980985Y-128833157D01*
X133994500Y-128889452D01*
X133994500Y-133405812D01*
X133980489Y-133463069D01*
X133941623Y-133507387D01*
X133780859Y-133619953D01*
X133619953Y-133780859D01*
X133489432Y-133967264D01*
X133393261Y-134173502D01*
X133334364Y-134393310D01*
X133314531Y-134619999D01*
X133334364Y-134846689D01*
X133393261Y-135066497D01*
X133489432Y-135272735D01*
X133619953Y-135459140D01*
X133780859Y-135620046D01*
X133967264Y-135750567D01*
X133967265Y-135750567D01*
X133967266Y-135750568D01*
X134173504Y-135846739D01*
X134393308Y-135905635D01*
X134620000Y-135925468D01*
X134846692Y-135905635D01*
X135066496Y-135846739D01*
X135272734Y-135750568D01*
X135346344Y-135699026D01*
X138894526Y-135699026D01*
X138967515Y-135750133D01*
X139173673Y-135846266D01*
X139393397Y-135905141D01*
X139620000Y-135924966D01*
X139846602Y-135905141D01*
X140066326Y-135846266D01*
X140272480Y-135750134D01*
X140345472Y-135699025D01*
X139620001Y-134973553D01*
X139620000Y-134973553D01*
X138894526Y-135699025D01*
X138894526Y-135699026D01*
X135346344Y-135699026D01*
X135459139Y-135620047D01*
X135620047Y-135459139D01*
X135750568Y-135272734D01*
X135846739Y-135066496D01*
X135905635Y-134846692D01*
X135925468Y-134620000D01*
X138315033Y-134620000D01*
X138334858Y-134846602D01*
X138393733Y-135066326D01*
X138489866Y-135272484D01*
X138540972Y-135345471D01*
X138540973Y-135345472D01*
X139266445Y-134620000D01*
X139973553Y-134620000D01*
X140699025Y-135345472D01*
X140750134Y-135272480D01*
X140846266Y-135066326D01*
X140905141Y-134846602D01*
X140924966Y-134619999D01*
X140905141Y-134393397D01*
X140846266Y-134173673D01*
X140750133Y-133967515D01*
X140699025Y-133894526D01*
X139973553Y-134619998D01*
X139973553Y-134620000D01*
X139266445Y-134620000D01*
X139266446Y-134619999D01*
X139266446Y-134619998D01*
X138540973Y-133894527D01*
X138489865Y-133967516D01*
X138393733Y-134173672D01*
X138334858Y-134393397D01*
X138315033Y-134620000D01*
X135925468Y-134620000D01*
X135905635Y-134393308D01*
X135846739Y-134173504D01*
X135750568Y-133967266D01*
X135736456Y-133947112D01*
X135620046Y-133780859D01*
X135459140Y-133619953D01*
X135346343Y-133540973D01*
X138894526Y-133540973D01*
X139619998Y-134266446D01*
X139619999Y-134266446D01*
X140345472Y-133540973D01*
X140345471Y-133540972D01*
X140272484Y-133489866D01*
X140066326Y-133393733D01*
X139846602Y-133334858D01*
X139620000Y-133315033D01*
X139393397Y-133334858D01*
X139173672Y-133393733D01*
X138967516Y-133489865D01*
X138894526Y-133540973D01*
X135346343Y-133540973D01*
X135298377Y-133507387D01*
X135259511Y-133463069D01*
X135245500Y-133405812D01*
X135245500Y-128259569D01*
X135264919Y-128192944D01*
X135317094Y-128147187D01*
X135352734Y-128130568D01*
X135426344Y-128079026D01*
X138974526Y-128079026D01*
X139047515Y-128130133D01*
X139253673Y-128226266D01*
X139473397Y-128285141D01*
X139700000Y-128304966D01*
X139926602Y-128285141D01*
X140146326Y-128226266D01*
X140352480Y-128130134D01*
X140425472Y-128079025D01*
X139700001Y-127353553D01*
X139700000Y-127353553D01*
X138974526Y-128079025D01*
X138974526Y-128079026D01*
X135426344Y-128079026D01*
X135539139Y-128000047D01*
X135700047Y-127839139D01*
X135830568Y-127652734D01*
X135926739Y-127446496D01*
X135985635Y-127226692D01*
X136005468Y-127000000D01*
X138395033Y-127000000D01*
X138414858Y-127226602D01*
X138473733Y-127446326D01*
X138569866Y-127652484D01*
X138620972Y-127725471D01*
X138620974Y-127725472D01*
X139346446Y-127000001D01*
X140053553Y-127000001D01*
X140779025Y-127725472D01*
X140830134Y-127652480D01*
X140926266Y-127446326D01*
X140985141Y-127226602D01*
X141004966Y-126999999D01*
X140985141Y-126773397D01*
X140926266Y-126553673D01*
X140830133Y-126347515D01*
X140779025Y-126274526D01*
X140053553Y-127000000D01*
X140053553Y-127000001D01*
X139346446Y-127000001D01*
X139346446Y-126999999D01*
X138620973Y-126274526D01*
X138620973Y-126274527D01*
X138569865Y-126347516D01*
X138473733Y-126553672D01*
X138414858Y-126773397D01*
X138395033Y-127000000D01*
X136005468Y-127000000D01*
X135985635Y-126773308D01*
X135926739Y-126553504D01*
X135830568Y-126347266D01*
X135816456Y-126327112D01*
X135700046Y-126160859D01*
X135539140Y-125999953D01*
X135426344Y-125920973D01*
X138974526Y-125920973D01*
X139700000Y-126646446D01*
X139700001Y-126646446D01*
X140425472Y-125920974D01*
X140425471Y-125920972D01*
X140352484Y-125869866D01*
X140146326Y-125773733D01*
X139926602Y-125714858D01*
X139700000Y-125695033D01*
X139473397Y-125714858D01*
X139253672Y-125773733D01*
X139047516Y-125869865D01*
X138974527Y-125920973D01*
X138974526Y-125920973D01*
X135426344Y-125920973D01*
X135352735Y-125869432D01*
X135146497Y-125773261D01*
X134926689Y-125714364D01*
X134700000Y-125694531D01*
X134473310Y-125714364D01*
X134253502Y-125773261D01*
X134047264Y-125869432D01*
X133860859Y-125999953D01*
X133699953Y-126160859D01*
X133569432Y-126347264D01*
X133473261Y-126553502D01*
X133414364Y-126773310D01*
X133394531Y-126999999D01*
X133414364Y-127226690D01*
X133432680Y-127295047D01*
X133432680Y-127359234D01*
X133400586Y-127414821D01*
X131045148Y-129770259D01*
X130993721Y-129801160D01*
X130933806Y-129804300D01*
X130879431Y-129778944D01*
X130843324Y-129731028D01*
X130833939Y-129671772D01*
X130845468Y-129540000D01*
X130825635Y-129313308D01*
X130807319Y-129244951D01*
X130807319Y-129180763D01*
X130839411Y-129125178D01*
X132463789Y-127500800D01*
X132479885Y-127487906D01*
X132481873Y-127485787D01*
X132481877Y-127485786D01*
X132527948Y-127436723D01*
X132530566Y-127434023D01*
X132550120Y-127414471D01*
X132552581Y-127411298D01*
X132560156Y-127402427D01*
X132590062Y-127370582D01*
X132599717Y-127353018D01*
X132610394Y-127336764D01*
X132622673Y-127320936D01*
X132640018Y-127280852D01*
X132645160Y-127270356D01*
X132666197Y-127232092D01*
X132671179Y-127212684D01*
X132677481Y-127194280D01*
X132685437Y-127175896D01*
X132692269Y-127132752D01*
X132694633Y-127121338D01*
X132705500Y-127079019D01*
X132705500Y-127058984D01*
X132707027Y-127039585D01*
X132707068Y-127039321D01*
X132710160Y-127019804D01*
X132706050Y-126976325D01*
X132705500Y-126964656D01*
X132705500Y-120129500D01*
X132722113Y-120067500D01*
X132767500Y-120022113D01*
X132829500Y-120005500D01*
X133485812Y-120005500D01*
X133543069Y-120019511D01*
X133587387Y-120058377D01*
X133699953Y-120219140D01*
X133860859Y-120380046D01*
X134047264Y-120510567D01*
X134047265Y-120510567D01*
X134047266Y-120510568D01*
X134253504Y-120606739D01*
X134473308Y-120665635D01*
X134700000Y-120685468D01*
X134926692Y-120665635D01*
X135146496Y-120606739D01*
X135352734Y-120510568D01*
X135426344Y-120459026D01*
X138974526Y-120459026D01*
X139047515Y-120510133D01*
X139253673Y-120606266D01*
X139473397Y-120665141D01*
X139700000Y-120684966D01*
X139926602Y-120665141D01*
X140146326Y-120606266D01*
X140352480Y-120510134D01*
X140425472Y-120459025D01*
X139700001Y-119733553D01*
X139700000Y-119733553D01*
X138974526Y-120459025D01*
X138974526Y-120459026D01*
X135426344Y-120459026D01*
X135539139Y-120380047D01*
X135700047Y-120219139D01*
X135830568Y-120032734D01*
X135926739Y-119826496D01*
X135985635Y-119606692D01*
X136005468Y-119380000D01*
X138395033Y-119380000D01*
X138414858Y-119606602D01*
X138473733Y-119826326D01*
X138569866Y-120032484D01*
X138620972Y-120105471D01*
X138620974Y-120105472D01*
X139346446Y-119380001D01*
X140053553Y-119380001D01*
X140779025Y-120105472D01*
X140830134Y-120032480D01*
X140926266Y-119826326D01*
X140985141Y-119606602D01*
X141004966Y-119379999D01*
X140985141Y-119153397D01*
X140926266Y-118933673D01*
X140830133Y-118727515D01*
X140779025Y-118654526D01*
X140053553Y-119380000D01*
X140053553Y-119380001D01*
X139346446Y-119380001D01*
X139346446Y-119379999D01*
X138620973Y-118654526D01*
X138620973Y-118654527D01*
X138569865Y-118727516D01*
X138473733Y-118933672D01*
X138414858Y-119153397D01*
X138395033Y-119380000D01*
X136005468Y-119380000D01*
X135985635Y-119153308D01*
X135926739Y-118933504D01*
X135830568Y-118727266D01*
X135779635Y-118654526D01*
X135700046Y-118540859D01*
X135539140Y-118379953D01*
X135426344Y-118300973D01*
X138974526Y-118300973D01*
X139700000Y-119026446D01*
X139700001Y-119026446D01*
X140425472Y-118300974D01*
X140425471Y-118300972D01*
X140352484Y-118249866D01*
X140146326Y-118153733D01*
X139926602Y-118094858D01*
X139700000Y-118075033D01*
X139473397Y-118094858D01*
X139253672Y-118153733D01*
X139047516Y-118249865D01*
X138974527Y-118300973D01*
X138974526Y-118300973D01*
X135426344Y-118300973D01*
X135352735Y-118249432D01*
X135146497Y-118153261D01*
X134926689Y-118094364D01*
X134700000Y-118074531D01*
X134473310Y-118094364D01*
X134253502Y-118153261D01*
X134047264Y-118249432D01*
X133860859Y-118379953D01*
X133699953Y-118540859D01*
X133587387Y-118701623D01*
X133543069Y-118740489D01*
X133485812Y-118754500D01*
X132150849Y-118754500D01*
X132127615Y-118752304D01*
X132119587Y-118750772D01*
X132064241Y-118754255D01*
X132056455Y-118754500D01*
X132040650Y-118754500D01*
X132024957Y-118756481D01*
X132017215Y-118757212D01*
X131961862Y-118760695D01*
X131954085Y-118763222D01*
X131931322Y-118768310D01*
X131923210Y-118769335D01*
X131871619Y-118789760D01*
X131864296Y-118792396D01*
X131811559Y-118809532D01*
X131804656Y-118813913D01*
X131783876Y-118824501D01*
X131776268Y-118827513D01*
X131731389Y-118860119D01*
X131724952Y-118864494D01*
X131678120Y-118894215D01*
X131672528Y-118900171D01*
X131655031Y-118915597D01*
X131648412Y-118920406D01*
X131613053Y-118963146D01*
X131607905Y-118968986D01*
X131569938Y-119009417D01*
X131565997Y-119016586D01*
X131552886Y-119035878D01*
X131547675Y-119042176D01*
X131524060Y-119092360D01*
X131520526Y-119099296D01*
X131493802Y-119147908D01*
X131491770Y-119155823D01*
X131483868Y-119177774D01*
X131480385Y-119185174D01*
X131469993Y-119239650D01*
X131468295Y-119247247D01*
X131454500Y-119300980D01*
X131454500Y-119309151D01*
X131452304Y-119332385D01*
X131450772Y-119340412D01*
X131454255Y-119395759D01*
X131454500Y-119403545D01*
X131454500Y-126689547D01*
X131445061Y-126737000D01*
X131418181Y-126777228D01*
X131052819Y-127142589D01*
X131001392Y-127173490D01*
X130941477Y-127176630D01*
X130887102Y-127151274D01*
X130850995Y-127103358D01*
X130841610Y-127044100D01*
X130845468Y-126999999D01*
X130828998Y-126811744D01*
X130825635Y-126773308D01*
X130766739Y-126553504D01*
X130670568Y-126347266D01*
X130656456Y-126327112D01*
X130540046Y-126160859D01*
X130379140Y-125999953D01*
X130192733Y-125869431D01*
X130134725Y-125842382D01*
X130082549Y-125796625D01*
X130063129Y-125730000D01*
X130082549Y-125663375D01*
X130134725Y-125617618D01*
X130192734Y-125590568D01*
X130379139Y-125460047D01*
X130540047Y-125299139D01*
X130670568Y-125112734D01*
X130766739Y-124906496D01*
X130825635Y-124686692D01*
X130845468Y-124460000D01*
X130825635Y-124233308D01*
X130766739Y-124013504D01*
X130670568Y-123807266D01*
X130656456Y-123787112D01*
X130540046Y-123620859D01*
X130379140Y-123459953D01*
X130192732Y-123329430D01*
X130134724Y-123302380D01*
X130082549Y-123256623D01*
X130063130Y-123189997D01*
X130082550Y-123123373D01*
X130134721Y-123077619D01*
X130192734Y-123050568D01*
X130379139Y-122920047D01*
X130540047Y-122759139D01*
X130670568Y-122572734D01*
X130766739Y-122366496D01*
X130825635Y-122146692D01*
X130845468Y-121920000D01*
X130825635Y-121693308D01*
X130766739Y-121473504D01*
X130670568Y-121267266D01*
X130656456Y-121247112D01*
X130540046Y-121080859D01*
X130379140Y-120919953D01*
X130192733Y-120789431D01*
X130134725Y-120762382D01*
X130082549Y-120716625D01*
X130063129Y-120650000D01*
X130082549Y-120583375D01*
X130134725Y-120537618D01*
X130192734Y-120510568D01*
X130379139Y-120380047D01*
X130540047Y-120219139D01*
X130670568Y-120032734D01*
X130766739Y-119826496D01*
X130825635Y-119606692D01*
X130845468Y-119380000D01*
X130825635Y-119153308D01*
X130766739Y-118933504D01*
X130670568Y-118727266D01*
X130619635Y-118654526D01*
X130540046Y-118540859D01*
X130379140Y-118379953D01*
X130192733Y-118249431D01*
X130134725Y-118222382D01*
X130082549Y-118176625D01*
X130063129Y-118110000D01*
X130082549Y-118043375D01*
X130134725Y-117997618D01*
X130192734Y-117970568D01*
X130379139Y-117840047D01*
X130540047Y-117679139D01*
X130670568Y-117492734D01*
X130766739Y-117286496D01*
X130825635Y-117066692D01*
X130845468Y-116840000D01*
X130825635Y-116613308D01*
X130766739Y-116393504D01*
X130670568Y-116187266D01*
X130604094Y-116092331D01*
X130540046Y-116000859D01*
X130379140Y-115839953D01*
X130192732Y-115709430D01*
X130134724Y-115682380D01*
X130082549Y-115636623D01*
X130063130Y-115569997D01*
X130082550Y-115503373D01*
X130134721Y-115457619D01*
X130192734Y-115430568D01*
X130379139Y-115300047D01*
X130540047Y-115139139D01*
X130670568Y-114952734D01*
X130766739Y-114746496D01*
X130825635Y-114526692D01*
X130845468Y-114300000D01*
X130825635Y-114073308D01*
X130766739Y-113853504D01*
X130670568Y-113647266D01*
X130540047Y-113460861D01*
X130540046Y-113460859D01*
X130379140Y-113299953D01*
X130192736Y-113169433D01*
X130134723Y-113142381D01*
X130134132Y-113142105D01*
X130081958Y-113096348D01*
X130062539Y-113029723D01*
X130081959Y-112963098D01*
X130134135Y-112917342D01*
X130192479Y-112890135D01*
X130322596Y-112799026D01*
X133934526Y-112799026D01*
X134007515Y-112850133D01*
X134213673Y-112946266D01*
X134433397Y-113005141D01*
X134660000Y-113024966D01*
X134886602Y-113005141D01*
X135106326Y-112946266D01*
X135312480Y-112850134D01*
X135385471Y-112799026D01*
X138974526Y-112799026D01*
X139047515Y-112850133D01*
X139253673Y-112946266D01*
X139473397Y-113005141D01*
X139700000Y-113024966D01*
X139926602Y-113005141D01*
X140146326Y-112946266D01*
X140352480Y-112850134D01*
X140425472Y-112799025D01*
X139700001Y-112073553D01*
X139700000Y-112073553D01*
X138974526Y-112799025D01*
X138974526Y-112799026D01*
X135385471Y-112799026D01*
X135385472Y-112799025D01*
X134660001Y-112073553D01*
X134660000Y-112073553D01*
X133934526Y-112799025D01*
X133934526Y-112799026D01*
X130322596Y-112799026D01*
X130378819Y-112759658D01*
X130539658Y-112598819D01*
X130670134Y-112412480D01*
X130766266Y-112206326D01*
X130818872Y-112010000D01*
X128261128Y-112010000D01*
X128313733Y-112206326D01*
X128409865Y-112412480D01*
X128540341Y-112598819D01*
X128701180Y-112759658D01*
X128887519Y-112890134D01*
X128945865Y-112917342D01*
X128998040Y-112963099D01*
X129017460Y-113029723D01*
X128998041Y-113096348D01*
X128945866Y-113142105D01*
X128887267Y-113169430D01*
X128700859Y-113299953D01*
X128539953Y-113460859D01*
X128409432Y-113647264D01*
X128313261Y-113853502D01*
X128254364Y-114073310D01*
X128234531Y-114299999D01*
X128254364Y-114526689D01*
X128313261Y-114746497D01*
X128409432Y-114952735D01*
X128539953Y-115139140D01*
X128700859Y-115300046D01*
X128887262Y-115430565D01*
X128887266Y-115430568D01*
X128945275Y-115457618D01*
X128997450Y-115503375D01*
X129016869Y-115570000D01*
X128997450Y-115636625D01*
X128945275Y-115682381D01*
X128924576Y-115692033D01*
X128887263Y-115709433D01*
X128700859Y-115839953D01*
X128539953Y-116000859D01*
X128409432Y-116187264D01*
X128313261Y-116393502D01*
X128254364Y-116613310D01*
X128234531Y-116839999D01*
X128254364Y-117066689D01*
X128313261Y-117286497D01*
X128409432Y-117492735D01*
X128539953Y-117679140D01*
X128700859Y-117840046D01*
X128782526Y-117897229D01*
X128887266Y-117970568D01*
X128945275Y-117997618D01*
X128997450Y-118043375D01*
X129016869Y-118110000D01*
X128997450Y-118176625D01*
X128945275Y-118222382D01*
X128887263Y-118249433D01*
X128700859Y-118379953D01*
X128539953Y-118540859D01*
X128409432Y-118727264D01*
X128313261Y-118933502D01*
X128254364Y-119153310D01*
X128234531Y-119379999D01*
X128254364Y-119606689D01*
X128313261Y-119826497D01*
X128409432Y-120032735D01*
X128539953Y-120219140D01*
X128700859Y-120380046D01*
X128813654Y-120459025D01*
X128887266Y-120510568D01*
X128945273Y-120537617D01*
X128997449Y-120583373D01*
X129016869Y-120649997D01*
X128997451Y-120716622D01*
X128945276Y-120762380D01*
X128887266Y-120789431D01*
X128700859Y-120919953D01*
X128539953Y-121080859D01*
X128409432Y-121267264D01*
X128313261Y-121473502D01*
X128254364Y-121693310D01*
X128234531Y-121919999D01*
X128254364Y-122146689D01*
X128313261Y-122366497D01*
X128409432Y-122572735D01*
X128539953Y-122759140D01*
X128700859Y-122920046D01*
X128887262Y-123050565D01*
X128887266Y-123050568D01*
X128945273Y-123077617D01*
X128997449Y-123123373D01*
X129016869Y-123189997D01*
X128997451Y-123256622D01*
X128945276Y-123302380D01*
X128887266Y-123329431D01*
X128700859Y-123459953D01*
X128539953Y-123620859D01*
X128409432Y-123807264D01*
X128313261Y-124013502D01*
X128254364Y-124233310D01*
X128234531Y-124459999D01*
X128254364Y-124686689D01*
X128313261Y-124906497D01*
X128409432Y-125112735D01*
X128539953Y-125299140D01*
X128700859Y-125460046D01*
X128887263Y-125590566D01*
X128887266Y-125590568D01*
X128945275Y-125617618D01*
X128997450Y-125663375D01*
X129016869Y-125730000D01*
X128997450Y-125796625D01*
X128945275Y-125842382D01*
X128887263Y-125869433D01*
X128700859Y-125999953D01*
X128539953Y-126160859D01*
X128409432Y-126347264D01*
X128313261Y-126553502D01*
X128254364Y-126773310D01*
X128234531Y-127000000D01*
X128238389Y-127044103D01*
X128229003Y-127103360D01*
X128192896Y-127151275D01*
X128138521Y-127176630D01*
X128078607Y-127173490D01*
X128027180Y-127142589D01*
X127938960Y-127054369D01*
X127914720Y-127020071D01*
X127903321Y-126979655D01*
X127885674Y-126811744D01*
X127827179Y-126631716D01*
X127827179Y-126631715D01*
X127732533Y-126467783D01*
X127605870Y-126327110D01*
X127452730Y-126215848D01*
X127279802Y-126138855D01*
X127094648Y-126099500D01*
X127094646Y-126099500D01*
X126905354Y-126099500D01*
X126905352Y-126099500D01*
X126720197Y-126138855D01*
X126547269Y-126215848D01*
X126394129Y-126327110D01*
X126267466Y-126467783D01*
X126172820Y-126631715D01*
X126114326Y-126811742D01*
X126098255Y-126964656D01*
X126094540Y-127000000D01*
X126099175Y-127044100D01*
X126114326Y-127188257D01*
X126172820Y-127368284D01*
X126267466Y-127532216D01*
X126394129Y-127672889D01*
X126547269Y-127784151D01*
X126720197Y-127861144D01*
X126905352Y-127900500D01*
X126905354Y-127900500D01*
X126964548Y-127900500D01*
X127012001Y-127909939D01*
X127052229Y-127936819D01*
X127753181Y-128637772D01*
X127780061Y-128678000D01*
X127789500Y-128725453D01*
X127789500Y-128757162D01*
X127771227Y-128821952D01*
X127721795Y-128867647D01*
X127655771Y-128880780D01*
X127592615Y-128857480D01*
X127452730Y-128755848D01*
X127279802Y-128678855D01*
X127094648Y-128639500D01*
X127094646Y-128639500D01*
X126905354Y-128639500D01*
X126905352Y-128639500D01*
X126720197Y-128678855D01*
X126547269Y-128755848D01*
X126394129Y-128867110D01*
X126267466Y-129007783D01*
X126172820Y-129171715D01*
X126114326Y-129351742D01*
X126094540Y-129540000D01*
X126114326Y-129728257D01*
X126172820Y-129908284D01*
X126267464Y-130072213D01*
X126267467Y-130072216D01*
X126342652Y-130155717D01*
X126366264Y-130194249D01*
X126374500Y-130238687D01*
X126374500Y-144030500D01*
X126357887Y-144092500D01*
X126312500Y-144137887D01*
X126250500Y-144154500D01*
X125209500Y-144154500D01*
X125147500Y-144137887D01*
X125102113Y-144092500D01*
X125085500Y-144030500D01*
X125085500Y-125158687D01*
X125093736Y-125114249D01*
X125117347Y-125075717D01*
X125192533Y-124992216D01*
X125287179Y-124828284D01*
X125345674Y-124648256D01*
X125365460Y-124460000D01*
X125345674Y-124271744D01*
X125287179Y-124091716D01*
X125287179Y-124091715D01*
X125192533Y-123927783D01*
X125065870Y-123787110D01*
X124912730Y-123675848D01*
X124739802Y-123598855D01*
X124554648Y-123559500D01*
X124554646Y-123559500D01*
X124365354Y-123559500D01*
X124365352Y-123559500D01*
X124180197Y-123598855D01*
X124007269Y-123675848D01*
X123854129Y-123787110D01*
X123727466Y-123927783D01*
X123632820Y-124091715D01*
X123574326Y-124271742D01*
X123554540Y-124460000D01*
X123574326Y-124648257D01*
X123632820Y-124828284D01*
X123727464Y-124992213D01*
X123727467Y-124992216D01*
X123802652Y-125075717D01*
X123826264Y-125114249D01*
X123834500Y-125158687D01*
X123834500Y-143580500D01*
X123817887Y-143642500D01*
X123772500Y-143687887D01*
X123710500Y-143704500D01*
X122415944Y-143704500D01*
X122352079Y-143686789D01*
X122306459Y-143638715D01*
X122292114Y-143574011D01*
X122313143Y-143511160D01*
X122363539Y-143468118D01*
X122437144Y-143433795D01*
X122572734Y-143370568D01*
X122759139Y-143240047D01*
X122920047Y-143079139D01*
X123050568Y-142892734D01*
X123146739Y-142686496D01*
X123205635Y-142466692D01*
X123225468Y-142240000D01*
X123205635Y-142013308D01*
X123146739Y-141793504D01*
X123050568Y-141587266D01*
X123049507Y-141585751D01*
X122920046Y-141400859D01*
X122759140Y-141239953D01*
X122572733Y-141109431D01*
X122514725Y-141082382D01*
X122462549Y-141036625D01*
X122443129Y-140970000D01*
X122462549Y-140903375D01*
X122514725Y-140857618D01*
X122572734Y-140830568D01*
X122759139Y-140700047D01*
X122920047Y-140539139D01*
X123050568Y-140352734D01*
X123146739Y-140146496D01*
X123205635Y-139926692D01*
X123225468Y-139700000D01*
X123205635Y-139473308D01*
X123146739Y-139253504D01*
X123050568Y-139047266D01*
X123036456Y-139027112D01*
X122920046Y-138860859D01*
X122759140Y-138699953D01*
X122572733Y-138569431D01*
X122514725Y-138542382D01*
X122462549Y-138496625D01*
X122443129Y-138430000D01*
X122462549Y-138363375D01*
X122514725Y-138317618D01*
X122572734Y-138290568D01*
X122759139Y-138160047D01*
X122920047Y-137999139D01*
X123050568Y-137812734D01*
X123146739Y-137606496D01*
X123205635Y-137386692D01*
X123225468Y-137160000D01*
X123205635Y-136933308D01*
X123146739Y-136713504D01*
X123050568Y-136507266D01*
X123049507Y-136505751D01*
X122920046Y-136320859D01*
X122759140Y-136159953D01*
X122572733Y-136029431D01*
X122514725Y-136002382D01*
X122462549Y-135956625D01*
X122443129Y-135890000D01*
X122462549Y-135823375D01*
X122514725Y-135777618D01*
X122572734Y-135750568D01*
X122759139Y-135620047D01*
X122920047Y-135459139D01*
X123050568Y-135272734D01*
X123146739Y-135066496D01*
X123205635Y-134846692D01*
X123225468Y-134620000D01*
X123205635Y-134393308D01*
X123146739Y-134173504D01*
X123050568Y-133967266D01*
X123036456Y-133947112D01*
X122920046Y-133780859D01*
X122759140Y-133619953D01*
X122572736Y-133489433D01*
X122545499Y-133476732D01*
X122514722Y-133462380D01*
X122462548Y-133416623D01*
X122443129Y-133349997D01*
X122462549Y-133283372D01*
X122514721Y-133237619D01*
X122572734Y-133210568D01*
X122759139Y-133080047D01*
X122920047Y-132919139D01*
X123050568Y-132732734D01*
X123146739Y-132526496D01*
X123205635Y-132306692D01*
X123225468Y-132080000D01*
X123205635Y-131853308D01*
X123146739Y-131633504D01*
X123050568Y-131427266D01*
X123049507Y-131425751D01*
X122920046Y-131240859D01*
X122759140Y-131079953D01*
X122572733Y-130949431D01*
X122514725Y-130922382D01*
X122462549Y-130876625D01*
X122443129Y-130810000D01*
X122462549Y-130743375D01*
X122514725Y-130697618D01*
X122572734Y-130670568D01*
X122759139Y-130540047D01*
X122920047Y-130379139D01*
X123050568Y-130192734D01*
X123146739Y-129986496D01*
X123205635Y-129766692D01*
X123225468Y-129540000D01*
X123205635Y-129313308D01*
X123146739Y-129093504D01*
X123050568Y-128887266D01*
X123049507Y-128885751D01*
X122920046Y-128700859D01*
X122759140Y-128539953D01*
X122572736Y-128409433D01*
X122572730Y-128409430D01*
X122514132Y-128382105D01*
X122461958Y-128336348D01*
X122442539Y-128269723D01*
X122461959Y-128203098D01*
X122514135Y-128157342D01*
X122572479Y-128130135D01*
X122758819Y-127999658D01*
X122919658Y-127838819D01*
X123050134Y-127652480D01*
X123146266Y-127446326D01*
X123198872Y-127250000D01*
X120641128Y-127250000D01*
X120693733Y-127446326D01*
X120789865Y-127652480D01*
X120920341Y-127838819D01*
X121081180Y-127999658D01*
X121267519Y-128130134D01*
X121325865Y-128157342D01*
X121378040Y-128203099D01*
X121397460Y-128269723D01*
X121378041Y-128336348D01*
X121325866Y-128382105D01*
X121267267Y-128409430D01*
X121080859Y-128539953D01*
X120919953Y-128700859D01*
X120789432Y-128887264D01*
X120693261Y-129093502D01*
X120634364Y-129313310D01*
X120614531Y-129540000D01*
X120634364Y-129766689D01*
X120693261Y-129986497D01*
X120789432Y-130192735D01*
X120919953Y-130379140D01*
X121080859Y-130540046D01*
X121267263Y-130670566D01*
X121267266Y-130670568D01*
X121325275Y-130697618D01*
X121377450Y-130743375D01*
X121396869Y-130810000D01*
X121377450Y-130876625D01*
X121325275Y-130922382D01*
X121267263Y-130949433D01*
X121080859Y-131079953D01*
X120919953Y-131240859D01*
X120789432Y-131427264D01*
X120693261Y-131633502D01*
X120634364Y-131853310D01*
X120614531Y-132080000D01*
X120634364Y-132306689D01*
X120693261Y-132526497D01*
X120789432Y-132732735D01*
X120919953Y-132919140D01*
X121080859Y-133080046D01*
X121267263Y-133210566D01*
X121267266Y-133210568D01*
X121325275Y-133237618D01*
X121377450Y-133283375D01*
X121396869Y-133350000D01*
X121377450Y-133416625D01*
X121325275Y-133462381D01*
X121304576Y-133472033D01*
X121267263Y-133489433D01*
X121080859Y-133619953D01*
X120919953Y-133780859D01*
X120789432Y-133967264D01*
X120693261Y-134173502D01*
X120634364Y-134393310D01*
X120614531Y-134620000D01*
X120634364Y-134846689D01*
X120693261Y-135066497D01*
X120789432Y-135272735D01*
X120919953Y-135459140D01*
X121080859Y-135620046D01*
X121266645Y-135750133D01*
X121267266Y-135750568D01*
X121325275Y-135777618D01*
X121377450Y-135823375D01*
X121396869Y-135890000D01*
X121377450Y-135956625D01*
X121325275Y-136002382D01*
X121267263Y-136029433D01*
X121080859Y-136159953D01*
X120919953Y-136320859D01*
X120789432Y-136507264D01*
X120693261Y-136713502D01*
X120634364Y-136933310D01*
X120614531Y-137160000D01*
X120634364Y-137386689D01*
X120693261Y-137606497D01*
X120789432Y-137812735D01*
X120919953Y-137999140D01*
X121080859Y-138160046D01*
X121154251Y-138211435D01*
X121267266Y-138290568D01*
X121325275Y-138317618D01*
X121377450Y-138363375D01*
X121396869Y-138430000D01*
X121377450Y-138496625D01*
X121325275Y-138542382D01*
X121267263Y-138569433D01*
X121080859Y-138699953D01*
X120919953Y-138860859D01*
X120789432Y-139047264D01*
X120693261Y-139253502D01*
X120634364Y-139473310D01*
X120614531Y-139700000D01*
X120634364Y-139926689D01*
X120693261Y-140146497D01*
X120789432Y-140352735D01*
X120919953Y-140539140D01*
X121080859Y-140700046D01*
X121267263Y-140830566D01*
X121267266Y-140830568D01*
X121325275Y-140857618D01*
X121377450Y-140903375D01*
X121396869Y-140970000D01*
X121377450Y-141036625D01*
X121325275Y-141082382D01*
X121267263Y-141109433D01*
X121080859Y-141239953D01*
X120919953Y-141400859D01*
X120789432Y-141587264D01*
X120693261Y-141793502D01*
X120634364Y-142013310D01*
X120614531Y-142240000D01*
X120634364Y-142466689D01*
X120693261Y-142686497D01*
X120789432Y-142892735D01*
X120919953Y-143079140D01*
X121080859Y-143240046D01*
X121267264Y-143370567D01*
X121476461Y-143468118D01*
X121526857Y-143511160D01*
X121547886Y-143574011D01*
X121533541Y-143638715D01*
X121487921Y-143686789D01*
X121424056Y-143704500D01*
X114607851Y-143704500D01*
X114550594Y-143690489D01*
X114506276Y-143651624D01*
X114484912Y-143596685D01*
X114491329Y-143538090D01*
X114524078Y-143489078D01*
X114575757Y-143460725D01*
X114600568Y-143454076D01*
X114729330Y-143419575D01*
X114927639Y-143327102D01*
X115106877Y-143201598D01*
X115261598Y-143046877D01*
X115387102Y-142867639D01*
X115479575Y-142669330D01*
X115536207Y-142457977D01*
X115555277Y-142240000D01*
X118474540Y-142240000D01*
X118494326Y-142428257D01*
X118552820Y-142608284D01*
X118647466Y-142772216D01*
X118774129Y-142912889D01*
X118927269Y-143024151D01*
X119100197Y-143101144D01*
X119285352Y-143140500D01*
X119285354Y-143140500D01*
X119474646Y-143140500D01*
X119474648Y-143140500D01*
X119598083Y-143114262D01*
X119659803Y-143101144D01*
X119832730Y-143024151D01*
X119832730Y-143024150D01*
X119985870Y-142912889D01*
X119987684Y-142910875D01*
X120112533Y-142772216D01*
X120207179Y-142608284D01*
X120265674Y-142428256D01*
X120285460Y-142240000D01*
X120265674Y-142051744D01*
X120216984Y-141901892D01*
X120207179Y-141871715D01*
X120112535Y-141707786D01*
X120082026Y-141673903D01*
X120037347Y-141624282D01*
X120013736Y-141585751D01*
X120005500Y-141541313D01*
X120005500Y-135318687D01*
X120013736Y-135274249D01*
X120037347Y-135235717D01*
X120112533Y-135152216D01*
X120207179Y-134988284D01*
X120265674Y-134808256D01*
X120285460Y-134620000D01*
X120265674Y-134431744D01*
X120207179Y-134251716D01*
X120207179Y-134251715D01*
X120112533Y-134087783D01*
X119985870Y-133947110D01*
X119832730Y-133835848D01*
X119659802Y-133758855D01*
X119474648Y-133719500D01*
X119474646Y-133719500D01*
X119285354Y-133719500D01*
X119285352Y-133719500D01*
X119100197Y-133758855D01*
X118927269Y-133835848D01*
X118774129Y-133947110D01*
X118647466Y-134087783D01*
X118552820Y-134251715D01*
X118494326Y-134431742D01*
X118474540Y-134620000D01*
X118494326Y-134808257D01*
X118552820Y-134988284D01*
X118647464Y-135152213D01*
X118647467Y-135152216D01*
X118722652Y-135235717D01*
X118746264Y-135274249D01*
X118754500Y-135318687D01*
X118754500Y-141541313D01*
X118746264Y-141585751D01*
X118722652Y-141624282D01*
X118689545Y-141661051D01*
X118647464Y-141707786D01*
X118552820Y-141871715D01*
X118494326Y-142051742D01*
X118474540Y-142240000D01*
X115555277Y-142240000D01*
X115536207Y-142022023D01*
X115479575Y-141810670D01*
X115387102Y-141612362D01*
X115261598Y-141433123D01*
X115106877Y-141278402D01*
X114927639Y-141152898D01*
X114834424Y-141109431D01*
X114729331Y-141060425D01*
X114517974Y-141003792D01*
X114300000Y-140984722D01*
X114082025Y-141003792D01*
X113870668Y-141060425D01*
X113672361Y-141152898D01*
X113493122Y-141278402D01*
X113338402Y-141433122D01*
X113212899Y-141612359D01*
X113142105Y-141764176D01*
X113096347Y-141816351D01*
X113029722Y-141835770D01*
X112963098Y-141816350D01*
X112917341Y-141764175D01*
X112846667Y-141612615D01*
X112803123Y-141550428D01*
X112113553Y-142240000D01*
X112803124Y-142929572D01*
X112846668Y-142867384D01*
X112917341Y-142715825D01*
X112963097Y-142663649D01*
X113029722Y-142644229D01*
X113096348Y-142663648D01*
X113142105Y-142715824D01*
X113181723Y-142800785D01*
X113212898Y-142867639D01*
X113338402Y-143046877D01*
X113493123Y-143201598D01*
X113672361Y-143327102D01*
X113870670Y-143419575D01*
X113988444Y-143451132D01*
X114024243Y-143460725D01*
X114075922Y-143489078D01*
X114108671Y-143538090D01*
X114115088Y-143596685D01*
X114093724Y-143651624D01*
X114049406Y-143690489D01*
X113992149Y-143704500D01*
X112065916Y-143704500D01*
X112008659Y-143690489D01*
X111964341Y-143651624D01*
X111942977Y-143596685D01*
X111949394Y-143538090D01*
X111982143Y-143489078D01*
X112033822Y-143460725D01*
X112189159Y-143419102D01*
X112387385Y-143326667D01*
X112449572Y-143283124D01*
X111760001Y-142593553D01*
X111760000Y-142593553D01*
X111070426Y-143283124D01*
X111070427Y-143283125D01*
X111132610Y-143326666D01*
X111330840Y-143419102D01*
X111486178Y-143460725D01*
X111537857Y-143489078D01*
X111570606Y-143538090D01*
X111577023Y-143596685D01*
X111555659Y-143651624D01*
X111511341Y-143690489D01*
X111454084Y-143704500D01*
X110173830Y-143704500D01*
X110108287Y-143685762D01*
X110062553Y-143635211D01*
X110050449Y-143568126D01*
X110075634Y-143504780D01*
X110130497Y-143464318D01*
X110212331Y-143433796D01*
X110327546Y-143347546D01*
X110413796Y-143232331D01*
X110464091Y-143097483D01*
X110470500Y-143037873D01*
X110470499Y-142970988D01*
X110486046Y-142910875D01*
X110528788Y-142865833D01*
X110588009Y-142847160D01*
X110648857Y-142859539D01*
X110696074Y-142899867D01*
X110716873Y-142929571D01*
X110716875Y-142929572D01*
X111406447Y-142240001D01*
X111406447Y-142240000D01*
X110716875Y-141550427D01*
X110716874Y-141550428D01*
X110696074Y-141580135D01*
X110648857Y-141620462D01*
X110588010Y-141632842D01*
X110528789Y-141614170D01*
X110486046Y-141569128D01*
X110470499Y-141509012D01*
X110470499Y-141442130D01*
X110469531Y-141433122D01*
X110464091Y-141382517D01*
X110413796Y-141247669D01*
X110375772Y-141196875D01*
X111070427Y-141196875D01*
X111760000Y-141886447D01*
X111760001Y-141886447D01*
X112449572Y-141196875D01*
X112449571Y-141196873D01*
X112387386Y-141153331D01*
X112189161Y-141060898D01*
X111977886Y-141004287D01*
X111760000Y-140985224D01*
X111542113Y-141004287D01*
X111330840Y-141060897D01*
X111132611Y-141153333D01*
X111070428Y-141196874D01*
X111070427Y-141196875D01*
X110375772Y-141196875D01*
X110327546Y-141132454D01*
X110212331Y-141046204D01*
X110077483Y-140995909D01*
X110017873Y-140989500D01*
X110017869Y-140989500D01*
X108422130Y-140989500D01*
X108362515Y-140995909D01*
X108227669Y-141046204D01*
X108112454Y-141132454D01*
X108026204Y-141247668D01*
X107975909Y-141382515D01*
X107975909Y-141382517D01*
X107969891Y-141438495D01*
X107969500Y-141442130D01*
X107969500Y-143037869D01*
X107970469Y-143046880D01*
X107975909Y-143097483D01*
X108026204Y-143232331D01*
X108112454Y-143347546D01*
X108227669Y-143433796D01*
X108303835Y-143462204D01*
X108358219Y-143502048D01*
X108383717Y-143564460D01*
X108372790Y-143630988D01*
X108328669Y-143681966D01*
X108264397Y-143702324D01*
X108200227Y-143704341D01*
X108197111Y-143704439D01*
X108193219Y-143704500D01*
X108165650Y-143704500D01*
X108161671Y-143705002D01*
X108150041Y-143705917D01*
X108106372Y-143707289D01*
X108087128Y-143712880D01*
X108068084Y-143716824D01*
X108048208Y-143719335D01*
X108007600Y-143735413D01*
X107996554Y-143739194D01*
X107954610Y-143751382D01*
X107954607Y-143751383D01*
X107937365Y-143761579D01*
X107919904Y-143770133D01*
X107901267Y-143777512D01*
X107865931Y-143803185D01*
X107856174Y-143809595D01*
X107818580Y-143831829D01*
X107804413Y-143845996D01*
X107789624Y-143858626D01*
X107773413Y-143870404D01*
X107745572Y-143904058D01*
X107737711Y-143912697D01*
X107642180Y-144008229D01*
X107592819Y-144038478D01*
X107535103Y-144043020D01*
X107481615Y-144020865D01*
X107444015Y-143976842D01*
X107430500Y-143920547D01*
X107430500Y-140234322D01*
X107447113Y-140172322D01*
X107507179Y-140068284D01*
X107529386Y-139999939D01*
X107565674Y-139888256D01*
X107585460Y-139700000D01*
X107565674Y-139511744D01*
X107507179Y-139331716D01*
X107507179Y-139331715D01*
X107412533Y-139167783D01*
X107285870Y-139027110D01*
X107132730Y-138915848D01*
X106959802Y-138838855D01*
X106774648Y-138799500D01*
X106774646Y-138799500D01*
X106585354Y-138799500D01*
X106585352Y-138799500D01*
X106400197Y-138838855D01*
X106227269Y-138915848D01*
X106074129Y-139027110D01*
X105947466Y-139167783D01*
X105852820Y-139331715D01*
X105794326Y-139511742D01*
X105774540Y-139700000D01*
X105794326Y-139888257D01*
X105852820Y-140068284D01*
X105912887Y-140172322D01*
X105929500Y-140234322D01*
X105929500Y-144245678D01*
X105912887Y-144307678D01*
X105852820Y-144411715D01*
X105794326Y-144591742D01*
X105774540Y-144780000D01*
X105794326Y-144968257D01*
X105852820Y-145148284D01*
X105947464Y-145312213D01*
X105947467Y-145312216D01*
X106053855Y-145430372D01*
X106082526Y-145485448D01*
X106080901Y-145547521D01*
X106049385Y-145601023D01*
X105633665Y-146016743D01*
X105578078Y-146048837D01*
X105513891Y-146048837D01*
X105275407Y-145984936D01*
X105040000Y-145964340D01*
X104804592Y-145984936D01*
X104576336Y-146046097D01*
X104362170Y-146145965D01*
X104168601Y-146281503D01*
X104046673Y-146403431D01*
X103993926Y-146434726D01*
X103932634Y-146436915D01*
X103877789Y-146409462D01*
X103842810Y-146359082D01*
X103814018Y-146281888D01*
X103793796Y-146227669D01*
X103707546Y-146112454D01*
X103592331Y-146026204D01*
X103457483Y-145975909D01*
X103397873Y-145969500D01*
X103397869Y-145969500D01*
X101602130Y-145969500D01*
X101542515Y-145975909D01*
X101407669Y-146026204D01*
X101292454Y-146112454D01*
X101206204Y-146227668D01*
X101156997Y-146359598D01*
X101155909Y-146362517D01*
X101151043Y-146407782D01*
X101149500Y-146422130D01*
X101149500Y-148217869D01*
X100000500Y-148217869D01*
X100000500Y-143190000D01*
X101169364Y-143190000D01*
X101226569Y-143403492D01*
X101326399Y-143617576D01*
X101461893Y-143811081D01*
X101628918Y-143978106D01*
X101822423Y-144113600D01*
X102036507Y-144213430D01*
X102249999Y-144270635D01*
X102250000Y-144270636D01*
X102250000Y-143190000D01*
X102750000Y-143190000D01*
X102750000Y-144270635D01*
X102963492Y-144213430D01*
X103177576Y-144113600D01*
X103371081Y-143978106D01*
X103538106Y-143811081D01*
X103673600Y-143617576D01*
X103773430Y-143403492D01*
X103830636Y-143190000D01*
X102750000Y-143190000D01*
X102250000Y-143190000D01*
X101169364Y-143190000D01*
X100000500Y-143190000D01*
X100000500Y-140399999D01*
X101144340Y-140399999D01*
X101164936Y-140635407D01*
X101209709Y-140802502D01*
X101226097Y-140863663D01*
X101325965Y-141077830D01*
X101461505Y-141271401D01*
X101628599Y-141438495D01*
X101814597Y-141568732D01*
X101853460Y-141613048D01*
X101867471Y-141670305D01*
X101853461Y-141727561D01*
X101814595Y-141771880D01*
X101628919Y-141901892D01*
X101461890Y-142068921D01*
X101326400Y-142262421D01*
X101226569Y-142476507D01*
X101169364Y-142689999D01*
X101169364Y-142690000D01*
X103830636Y-142690000D01*
X103830635Y-142689999D01*
X103773430Y-142476507D01*
X103673599Y-142262421D01*
X103538109Y-142068921D01*
X103371081Y-141901893D01*
X103185404Y-141771880D01*
X103146539Y-141727562D01*
X103132528Y-141670305D01*
X103146539Y-141613048D01*
X103185402Y-141568732D01*
X103371401Y-141438495D01*
X103538495Y-141271401D01*
X103674035Y-141077830D01*
X103773903Y-140863663D01*
X103835063Y-140635408D01*
X103855659Y-140400000D01*
X103835063Y-140164592D01*
X103773903Y-139936337D01*
X103674035Y-139722171D01*
X103538495Y-139528599D01*
X103371401Y-139361505D01*
X103185839Y-139231573D01*
X103146975Y-139187257D01*
X103132964Y-139130000D01*
X103146975Y-139072743D01*
X103185839Y-139028426D01*
X103371401Y-138898495D01*
X103538495Y-138731401D01*
X103674035Y-138537830D01*
X103773903Y-138323663D01*
X103835063Y-138095408D01*
X103855659Y-137860000D01*
X103835063Y-137624592D01*
X103773903Y-137396337D01*
X103674035Y-137182171D01*
X103538495Y-136988599D01*
X103371401Y-136821505D01*
X103185839Y-136691573D01*
X103146974Y-136647255D01*
X103132964Y-136589999D01*
X103146975Y-136532742D01*
X103185837Y-136488428D01*
X103371401Y-136358495D01*
X103538495Y-136191401D01*
X103674035Y-135997830D01*
X103773903Y-135783663D01*
X103835063Y-135555408D01*
X103855659Y-135320000D01*
X103851501Y-135272480D01*
X103835063Y-135084592D01*
X103773903Y-134856337D01*
X103674035Y-134642171D01*
X103538495Y-134448599D01*
X103371401Y-134281505D01*
X103185839Y-134151573D01*
X103146976Y-134107257D01*
X103132965Y-134050000D01*
X103146976Y-133992743D01*
X103185839Y-133948426D01*
X103371401Y-133818495D01*
X103538495Y-133651401D01*
X103674035Y-133457830D01*
X103773903Y-133243663D01*
X103835063Y-133015408D01*
X103855659Y-132780000D01*
X103835063Y-132544592D01*
X103773903Y-132316337D01*
X103674035Y-132102171D01*
X103538495Y-131908599D01*
X103371401Y-131741505D01*
X103185839Y-131611573D01*
X103146975Y-131567257D01*
X103132964Y-131510000D01*
X103146975Y-131452743D01*
X103185839Y-131408426D01*
X103371401Y-131278495D01*
X103538495Y-131111401D01*
X103674035Y-130917830D01*
X103773903Y-130703663D01*
X103835063Y-130475408D01*
X103855659Y-130240000D01*
X103835063Y-130004592D01*
X103773903Y-129776337D01*
X103674035Y-129562171D01*
X103538495Y-129368599D01*
X103371401Y-129201505D01*
X103185839Y-129071573D01*
X103146974Y-129027255D01*
X103132964Y-128969999D01*
X103146975Y-128912742D01*
X103185837Y-128868428D01*
X103371401Y-128738495D01*
X103538495Y-128571401D01*
X103674035Y-128377830D01*
X103773903Y-128163663D01*
X103835063Y-127935408D01*
X103855659Y-127700000D01*
X103835063Y-127464592D01*
X103773903Y-127236337D01*
X103674035Y-127022171D01*
X103538495Y-126828599D01*
X103371401Y-126661505D01*
X103185839Y-126531573D01*
X103146975Y-126487257D01*
X103132964Y-126430000D01*
X103146975Y-126372743D01*
X103185839Y-126328426D01*
X103371401Y-126198495D01*
X103538495Y-126031401D01*
X103674035Y-125837830D01*
X103773903Y-125623663D01*
X103835063Y-125395408D01*
X103855659Y-125160000D01*
X103835063Y-124924592D01*
X103773903Y-124696337D01*
X103674035Y-124482171D01*
X103538495Y-124288599D01*
X103371401Y-124121505D01*
X103185839Y-123991573D01*
X103146975Y-123947257D01*
X103132964Y-123890000D01*
X103146975Y-123832743D01*
X103185839Y-123788426D01*
X103371401Y-123658495D01*
X103538495Y-123491401D01*
X103674035Y-123297830D01*
X103773903Y-123083663D01*
X103835063Y-122855408D01*
X103855659Y-122620000D01*
X103835063Y-122384592D01*
X103773903Y-122156337D01*
X103674035Y-121942171D01*
X103538495Y-121748599D01*
X103371401Y-121581505D01*
X103185839Y-121451573D01*
X103146975Y-121407257D01*
X103132964Y-121350000D01*
X103146975Y-121292743D01*
X103185839Y-121248426D01*
X103371401Y-121118495D01*
X103538495Y-120951401D01*
X103674035Y-120757830D01*
X103773903Y-120543663D01*
X103835063Y-120315408D01*
X103855659Y-120080000D01*
X103835063Y-119844592D01*
X103773903Y-119616337D01*
X103674035Y-119402171D01*
X103538495Y-119208599D01*
X103371401Y-119041505D01*
X103185839Y-118911573D01*
X103146974Y-118867255D01*
X103132964Y-118809999D01*
X103146975Y-118752742D01*
X103185837Y-118708428D01*
X103371401Y-118578495D01*
X103538495Y-118411401D01*
X103674035Y-118217830D01*
X103773903Y-118003663D01*
X103835063Y-117775408D01*
X103855659Y-117540000D01*
X103835063Y-117304592D01*
X103773903Y-117076337D01*
X103674035Y-116862171D01*
X103658510Y-116839999D01*
X105374531Y-116839999D01*
X105394364Y-117066689D01*
X105453261Y-117286497D01*
X105549432Y-117492735D01*
X105679953Y-117679140D01*
X105840859Y-117840046D01*
X106027264Y-117970567D01*
X106027265Y-117970567D01*
X106027266Y-117970568D01*
X106233504Y-118066739D01*
X106453308Y-118125635D01*
X106680000Y-118145468D01*
X106906692Y-118125635D01*
X107126496Y-118066739D01*
X107332734Y-117970568D01*
X107519139Y-117840047D01*
X107680047Y-117679139D01*
X107810568Y-117492734D01*
X107906739Y-117286496D01*
X107965635Y-117066692D01*
X107985468Y-116840000D01*
X107965635Y-116613308D01*
X107906739Y-116393504D01*
X107810568Y-116187266D01*
X107744094Y-116092331D01*
X107680046Y-116000859D01*
X107519140Y-115839953D01*
X107358377Y-115727387D01*
X107319511Y-115683069D01*
X107305500Y-115625812D01*
X107305500Y-112974188D01*
X107319511Y-112916931D01*
X107358377Y-112872613D01*
X107519140Y-112760046D01*
X107680046Y-112599140D01*
X107718549Y-112544151D01*
X107810568Y-112412734D01*
X107906739Y-112206496D01*
X107965635Y-111986692D01*
X107985468Y-111760000D01*
X107965635Y-111533308D01*
X107906739Y-111313504D01*
X107810568Y-111107266D01*
X107809507Y-111105751D01*
X107680046Y-110920859D01*
X107519140Y-110759953D01*
X107332735Y-110629432D01*
X107126497Y-110533261D01*
X106906689Y-110474364D01*
X106680000Y-110454531D01*
X106453310Y-110474364D01*
X106233502Y-110533261D01*
X106027264Y-110629432D01*
X105840859Y-110759953D01*
X105679953Y-110920859D01*
X105549432Y-111107264D01*
X105453261Y-111313502D01*
X105394364Y-111533310D01*
X105374531Y-111759999D01*
X105394364Y-111986689D01*
X105453261Y-112206497D01*
X105549432Y-112412735D01*
X105679953Y-112599140D01*
X105840859Y-112760046D01*
X106001623Y-112872613D01*
X106040489Y-112916931D01*
X106054500Y-112974188D01*
X106054500Y-115625812D01*
X106040489Y-115683069D01*
X106001623Y-115727387D01*
X105840859Y-115839953D01*
X105679953Y-116000859D01*
X105549432Y-116187264D01*
X105453261Y-116393502D01*
X105394364Y-116613310D01*
X105374531Y-116839999D01*
X103658510Y-116839999D01*
X103538495Y-116668599D01*
X103416569Y-116546673D01*
X103385273Y-116493927D01*
X103383084Y-116432634D01*
X103410537Y-116377789D01*
X103460916Y-116342810D01*
X103592331Y-116293796D01*
X103707546Y-116207546D01*
X103793796Y-116092331D01*
X103844091Y-115957483D01*
X103850500Y-115897873D01*
X103850499Y-114102128D01*
X103844091Y-114042517D01*
X103793796Y-113907669D01*
X103707546Y-113792454D01*
X103592331Y-113706204D01*
X103457483Y-113655909D01*
X103397873Y-113649500D01*
X103397869Y-113649500D01*
X101602130Y-113649500D01*
X101542515Y-113655909D01*
X101407669Y-113706204D01*
X101292454Y-113792454D01*
X101206204Y-113907668D01*
X101155909Y-114042515D01*
X101155909Y-114042517D01*
X101152599Y-114073308D01*
X101149500Y-114102130D01*
X101149500Y-115897869D01*
X101155909Y-115957483D01*
X101206204Y-116092331D01*
X101292454Y-116207546D01*
X101407669Y-116293796D01*
X101504571Y-116329938D01*
X101539082Y-116342810D01*
X101589462Y-116377789D01*
X101616915Y-116432634D01*
X101614726Y-116493926D01*
X101583431Y-116546673D01*
X101461503Y-116668601D01*
X101325965Y-116862170D01*
X101226097Y-117076336D01*
X101164936Y-117304592D01*
X101144340Y-117539999D01*
X101164936Y-117775407D01*
X101187847Y-117860910D01*
X101226097Y-118003663D01*
X101325965Y-118217830D01*
X101461505Y-118411401D01*
X101628599Y-118578495D01*
X101814160Y-118708426D01*
X101853024Y-118752743D01*
X101867035Y-118810000D01*
X101853024Y-118867257D01*
X101814159Y-118911575D01*
X101628595Y-119041508D01*
X101461505Y-119208598D01*
X101325965Y-119402170D01*
X101226097Y-119616336D01*
X101164936Y-119844592D01*
X101144340Y-120080000D01*
X101164936Y-120315407D01*
X101203419Y-120459026D01*
X101226097Y-120543663D01*
X101325965Y-120757830D01*
X101461505Y-120951401D01*
X101628599Y-121118495D01*
X101814160Y-121248426D01*
X101853024Y-121292743D01*
X101867035Y-121350000D01*
X101853024Y-121407257D01*
X101814159Y-121451575D01*
X101628595Y-121581508D01*
X101461505Y-121748598D01*
X101325965Y-121942170D01*
X101226097Y-122156336D01*
X101164936Y-122384592D01*
X101144340Y-122619999D01*
X101164936Y-122855407D01*
X101191015Y-122952734D01*
X101226097Y-123083663D01*
X101325965Y-123297830D01*
X101461505Y-123491401D01*
X101628599Y-123658495D01*
X101814160Y-123788426D01*
X101853024Y-123832743D01*
X101867035Y-123890000D01*
X101853024Y-123947257D01*
X101814159Y-123991575D01*
X101628595Y-124121508D01*
X101461505Y-124288598D01*
X101325965Y-124482170D01*
X101226097Y-124696336D01*
X101164936Y-124924592D01*
X101144340Y-125160000D01*
X101164936Y-125395407D01*
X101209709Y-125562502D01*
X101226097Y-125623663D01*
X101325965Y-125837830D01*
X101461505Y-126031401D01*
X101628599Y-126198495D01*
X101814160Y-126328426D01*
X101853024Y-126372743D01*
X101867035Y-126430000D01*
X101853024Y-126487257D01*
X101814159Y-126531575D01*
X101628595Y-126661508D01*
X101461505Y-126828598D01*
X101325965Y-127022170D01*
X101226097Y-127236336D01*
X101164936Y-127464592D01*
X101144340Y-127700000D01*
X101164936Y-127935407D01*
X101203419Y-128079026D01*
X101226097Y-128163663D01*
X101325965Y-128377830D01*
X101461505Y-128571401D01*
X101628599Y-128738495D01*
X101814160Y-128868426D01*
X101853024Y-128912743D01*
X101867035Y-128970000D01*
X101853024Y-129027257D01*
X101814160Y-129071574D01*
X101764347Y-129106454D01*
X101628595Y-129201508D01*
X101461505Y-129368598D01*
X101325965Y-129562170D01*
X101226097Y-129776336D01*
X101164936Y-130004592D01*
X101144340Y-130239999D01*
X101164936Y-130475407D01*
X101209709Y-130642501D01*
X101226097Y-130703663D01*
X101325965Y-130917830D01*
X101461505Y-131111401D01*
X101628599Y-131278495D01*
X101814160Y-131408426D01*
X101853024Y-131452743D01*
X101867035Y-131510000D01*
X101853024Y-131567257D01*
X101814159Y-131611575D01*
X101628595Y-131741508D01*
X101461505Y-131908598D01*
X101325965Y-132102170D01*
X101226097Y-132316336D01*
X101164936Y-132544592D01*
X101144340Y-132780000D01*
X101164936Y-133015407D01*
X101209709Y-133182502D01*
X101226097Y-133243663D01*
X101325965Y-133457830D01*
X101461505Y-133651401D01*
X101628599Y-133818495D01*
X101814160Y-133948426D01*
X101853024Y-133992743D01*
X101867035Y-134050000D01*
X101853024Y-134107257D01*
X101814159Y-134151575D01*
X101628595Y-134281508D01*
X101461505Y-134448598D01*
X101325965Y-134642170D01*
X101226097Y-134856336D01*
X101164936Y-135084592D01*
X101144340Y-135319999D01*
X101164936Y-135555407D01*
X101203419Y-135699026D01*
X101226097Y-135783663D01*
X101325965Y-135997830D01*
X101461505Y-136191401D01*
X101628599Y-136358495D01*
X101814160Y-136488426D01*
X101853024Y-136532743D01*
X101867035Y-136590000D01*
X101853024Y-136647257D01*
X101814159Y-136691575D01*
X101628595Y-136821508D01*
X101461505Y-136988598D01*
X101325965Y-137182170D01*
X101226097Y-137396336D01*
X101164936Y-137624592D01*
X101144340Y-137860000D01*
X101164936Y-138095407D01*
X101196026Y-138211435D01*
X101226097Y-138323663D01*
X101325965Y-138537830D01*
X101461505Y-138731401D01*
X101628599Y-138898495D01*
X101814160Y-139028426D01*
X101853024Y-139072743D01*
X101867035Y-139130000D01*
X101853024Y-139187257D01*
X101814159Y-139231575D01*
X101628595Y-139361508D01*
X101461505Y-139528598D01*
X101325965Y-139722170D01*
X101226097Y-139936336D01*
X101164936Y-140164592D01*
X101144340Y-140399999D01*
X100000500Y-140399999D01*
X100000500Y-104390000D01*
X100330000Y-104390000D01*
X100330000Y-105037824D01*
X100336402Y-105097375D01*
X100386647Y-105232089D01*
X100472811Y-105347188D01*
X100587910Y-105433352D01*
X100722624Y-105483597D01*
X100782176Y-105490000D01*
X101430000Y-105490000D01*
X101430000Y-104390000D01*
X101930000Y-104390000D01*
X101930000Y-105490000D01*
X102577824Y-105490000D01*
X102637375Y-105483597D01*
X102772089Y-105433352D01*
X102887188Y-105347188D01*
X102973352Y-105232089D01*
X103023597Y-105097375D01*
X103030000Y-105037824D01*
X103030000Y-104390000D01*
X101930000Y-104390000D01*
X101430000Y-104390000D01*
X100330000Y-104390000D01*
X100000500Y-104390000D01*
X100000500Y-104140000D01*
X105324340Y-104140000D01*
X105344936Y-104375407D01*
X105358398Y-104425647D01*
X105406097Y-104603663D01*
X105505965Y-104817830D01*
X105641505Y-105011401D01*
X105808599Y-105178495D01*
X106002170Y-105314035D01*
X106216337Y-105413903D01*
X106444592Y-105475063D01*
X106680000Y-105495659D01*
X106915408Y-105475063D01*
X107015874Y-105448143D01*
X107080059Y-105448143D01*
X107135647Y-105480237D01*
X108558181Y-106902772D01*
X108585061Y-106943000D01*
X108594500Y-106990453D01*
X108594500Y-111061313D01*
X108586264Y-111105751D01*
X108562652Y-111144282D01*
X108529545Y-111181051D01*
X108487464Y-111227786D01*
X108392820Y-111391715D01*
X108334326Y-111571742D01*
X108314540Y-111759999D01*
X108334326Y-111948257D01*
X108392820Y-112128284D01*
X108487466Y-112292216D01*
X108614129Y-112432889D01*
X108767269Y-112544151D01*
X108940197Y-112621144D01*
X109125352Y-112660500D01*
X109125354Y-112660500D01*
X109314646Y-112660500D01*
X109314648Y-112660500D01*
X109438083Y-112634262D01*
X109499803Y-112621144D01*
X109672730Y-112544151D01*
X109825871Y-112432888D01*
X109952533Y-112292216D01*
X109974519Y-112254133D01*
X110003113Y-112204610D01*
X110048500Y-112159223D01*
X110110500Y-112142610D01*
X110172500Y-112159223D01*
X110217887Y-112204610D01*
X110234500Y-112266610D01*
X110234500Y-117809548D01*
X110225061Y-117857001D01*
X110198181Y-117897229D01*
X107094821Y-121000586D01*
X107039234Y-121032680D01*
X106975047Y-121032680D01*
X106906690Y-121014364D01*
X106679999Y-120994531D01*
X106453310Y-121014364D01*
X106233502Y-121073261D01*
X106027264Y-121169432D01*
X105840859Y-121299953D01*
X105679953Y-121460859D01*
X105549432Y-121647264D01*
X105453261Y-121853502D01*
X105394364Y-122073310D01*
X105374531Y-122300000D01*
X105394364Y-122526689D01*
X105453261Y-122746497D01*
X105549432Y-122952735D01*
X105679953Y-123139140D01*
X105840859Y-123300046D01*
X106027264Y-123430567D01*
X106027265Y-123430567D01*
X106027266Y-123430568D01*
X106233504Y-123526739D01*
X106453308Y-123585635D01*
X106680000Y-123605468D01*
X106906692Y-123585635D01*
X107126496Y-123526739D01*
X107332734Y-123430568D01*
X107519139Y-123300047D01*
X107680047Y-123139139D01*
X107810568Y-122952734D01*
X107906739Y-122746496D01*
X107965635Y-122526692D01*
X107985468Y-122300000D01*
X107965635Y-122073308D01*
X107947318Y-122004947D01*
X107947318Y-121940764D01*
X107979410Y-121885178D01*
X110472818Y-119391771D01*
X110522182Y-119361521D01*
X110579898Y-119356979D01*
X110633385Y-119379134D01*
X110670985Y-119423157D01*
X110684500Y-119479452D01*
X110684500Y-126250500D01*
X110667887Y-126312500D01*
X110622500Y-126357887D01*
X110560500Y-126374500D01*
X107894188Y-126374500D01*
X107836931Y-126360489D01*
X107792613Y-126321623D01*
X107680046Y-126160859D01*
X107519140Y-125999953D01*
X107332735Y-125869432D01*
X107126497Y-125773261D01*
X106906689Y-125714364D01*
X106680000Y-125694531D01*
X106453310Y-125714364D01*
X106233502Y-125773261D01*
X106027264Y-125869432D01*
X105840859Y-125999953D01*
X105679953Y-126160859D01*
X105549432Y-126347264D01*
X105453261Y-126553502D01*
X105394364Y-126773310D01*
X105374531Y-126999999D01*
X105394364Y-127226689D01*
X105453261Y-127446497D01*
X105549432Y-127652735D01*
X105679953Y-127839140D01*
X105840859Y-128000046D01*
X106027264Y-128130567D01*
X106027265Y-128130567D01*
X106027266Y-128130568D01*
X106233504Y-128226739D01*
X106453308Y-128285635D01*
X106680000Y-128305468D01*
X106906692Y-128285635D01*
X107126496Y-128226739D01*
X107332734Y-128130568D01*
X107519139Y-128000047D01*
X107680047Y-127839139D01*
X107759637Y-127725472D01*
X107792613Y-127678377D01*
X107836931Y-127639511D01*
X107894188Y-127625500D01*
X111010500Y-127625500D01*
X111072500Y-127642113D01*
X111117887Y-127687500D01*
X111134500Y-127749500D01*
X111134500Y-128841313D01*
X111126264Y-128885751D01*
X111102652Y-128924282D01*
X111069545Y-128961051D01*
X111027464Y-129007786D01*
X110932820Y-129171715D01*
X110874326Y-129351742D01*
X110854540Y-129540000D01*
X110874326Y-129728257D01*
X110932820Y-129908284D01*
X111027466Y-130072216D01*
X111154129Y-130212889D01*
X111307269Y-130324151D01*
X111480197Y-130401144D01*
X111665352Y-130440500D01*
X111665354Y-130440500D01*
X111854646Y-130440500D01*
X111854648Y-130440500D01*
X112014275Y-130406570D01*
X112039803Y-130401144D01*
X112212730Y-130324151D01*
X112251473Y-130296003D01*
X112365870Y-130212889D01*
X112492533Y-130072216D01*
X112587179Y-129908284D01*
X112587179Y-129908283D01*
X112645674Y-129728256D01*
X112665460Y-129540000D01*
X112645674Y-129351744D01*
X112587179Y-129171716D01*
X112587179Y-129171715D01*
X112492535Y-129007786D01*
X112458511Y-128969999D01*
X112417347Y-128924282D01*
X112393736Y-128885751D01*
X112385500Y-128841313D01*
X112385500Y-126999999D01*
X112994531Y-126999999D01*
X113014364Y-127226689D01*
X113073261Y-127446497D01*
X113169432Y-127652735D01*
X113299953Y-127839140D01*
X113460859Y-128000046D01*
X113647264Y-128130567D01*
X113647265Y-128130567D01*
X113647266Y-128130568D01*
X113853504Y-128226739D01*
X114073308Y-128285635D01*
X114300000Y-128305468D01*
X114526692Y-128285635D01*
X114746496Y-128226739D01*
X114952734Y-128130568D01*
X115139139Y-128000047D01*
X115300047Y-127839139D01*
X115430568Y-127652734D01*
X115526739Y-127446496D01*
X115585635Y-127226692D01*
X115605468Y-127000000D01*
X115585635Y-126773308D01*
X115526739Y-126553504D01*
X115430568Y-126347266D01*
X115416456Y-126327112D01*
X115300046Y-126160859D01*
X115139140Y-125999953D01*
X114952735Y-125869432D01*
X114746497Y-125773261D01*
X114526689Y-125714364D01*
X114300000Y-125694531D01*
X114073310Y-125714364D01*
X113853502Y-125773261D01*
X113647264Y-125869432D01*
X113460859Y-125999953D01*
X113299953Y-126160859D01*
X113169432Y-126347264D01*
X113073261Y-126553502D01*
X113014364Y-126773310D01*
X112994531Y-126999999D01*
X112385500Y-126999999D01*
X112385500Y-125150452D01*
X112394939Y-125102999D01*
X112421819Y-125062771D01*
X113024591Y-124459999D01*
X113885178Y-123599411D01*
X113940763Y-123567319D01*
X114004951Y-123567319D01*
X114073308Y-123585635D01*
X114300000Y-123605468D01*
X114526692Y-123585635D01*
X114746496Y-123526739D01*
X114952734Y-123430568D01*
X115139139Y-123300047D01*
X115300047Y-123139139D01*
X115430568Y-122952734D01*
X115526739Y-122746496D01*
X115585635Y-122526692D01*
X115605468Y-122300000D01*
X115585635Y-122073308D01*
X115526739Y-121853504D01*
X115430568Y-121647266D01*
X115384524Y-121581508D01*
X115300046Y-121460859D01*
X115139140Y-121299953D01*
X114952735Y-121169432D01*
X114746497Y-121073261D01*
X114526689Y-121014364D01*
X114300000Y-120994531D01*
X114073310Y-121014364D01*
X113853502Y-121073261D01*
X113647264Y-121169432D01*
X113460859Y-121299953D01*
X113299953Y-121460859D01*
X113169432Y-121647264D01*
X113073261Y-121853502D01*
X113014364Y-122073310D01*
X112994531Y-122299999D01*
X113014364Y-122526690D01*
X113032680Y-122595047D01*
X113032680Y-122659234D01*
X113000586Y-122714821D01*
X112147181Y-123568228D01*
X112097818Y-123598478D01*
X112040102Y-123603020D01*
X111986615Y-123580865D01*
X111949015Y-123536842D01*
X111935500Y-123480547D01*
X111935500Y-116839999D01*
X112994531Y-116839999D01*
X113014364Y-117066689D01*
X113073261Y-117286497D01*
X113169432Y-117492735D01*
X113299953Y-117679140D01*
X113460859Y-117840046D01*
X113647264Y-117970567D01*
X113647265Y-117970567D01*
X113647266Y-117970568D01*
X113853504Y-118066739D01*
X114073308Y-118125635D01*
X114300000Y-118145468D01*
X114526692Y-118125635D01*
X114746496Y-118066739D01*
X114952734Y-117970568D01*
X115139139Y-117840047D01*
X115300047Y-117679139D01*
X115412612Y-117518377D01*
X115456931Y-117479511D01*
X115514188Y-117465500D01*
X116090500Y-117465500D01*
X116152500Y-117482113D01*
X116197887Y-117527500D01*
X116214500Y-117589500D01*
X116214500Y-136461313D01*
X116206264Y-136505751D01*
X116182652Y-136544282D01*
X116166232Y-136562519D01*
X116107464Y-136627786D01*
X116012820Y-136791715D01*
X115954326Y-136971742D01*
X115934540Y-137159999D01*
X115954326Y-137348257D01*
X116012820Y-137528284D01*
X116107466Y-137692216D01*
X116234129Y-137832889D01*
X116387269Y-137944151D01*
X116560197Y-138021144D01*
X116745352Y-138060500D01*
X116745354Y-138060500D01*
X116934646Y-138060500D01*
X116934648Y-138060500D01*
X117058083Y-138034262D01*
X117119803Y-138021144D01*
X117292730Y-137944151D01*
X117304765Y-137935407D01*
X117445870Y-137832889D01*
X117451598Y-137826528D01*
X117572533Y-137692216D01*
X117667179Y-137528284D01*
X117725674Y-137348256D01*
X117745460Y-137160000D01*
X117725674Y-136971744D01*
X117667179Y-136791716D01*
X117667179Y-136791715D01*
X117572535Y-136627786D01*
X117519442Y-136568821D01*
X117497347Y-136544282D01*
X117473736Y-136505751D01*
X117465500Y-136461313D01*
X117465500Y-132079999D01*
X118474540Y-132079999D01*
X118494326Y-132268257D01*
X118552820Y-132448284D01*
X118647466Y-132612216D01*
X118774129Y-132752889D01*
X118927269Y-132864151D01*
X119100197Y-132941144D01*
X119285352Y-132980500D01*
X119285354Y-132980500D01*
X119474646Y-132980500D01*
X119474648Y-132980500D01*
X119598084Y-132954262D01*
X119659803Y-132941144D01*
X119832730Y-132864151D01*
X119832730Y-132864150D01*
X119985870Y-132752889D01*
X120112533Y-132612216D01*
X120207179Y-132448284D01*
X120250051Y-132316337D01*
X120265674Y-132268256D01*
X120285460Y-132080000D01*
X120265674Y-131891744D01*
X120207179Y-131711716D01*
X120207179Y-131711715D01*
X120112535Y-131547786D01*
X120078512Y-131510000D01*
X120037347Y-131464282D01*
X120013736Y-131425751D01*
X120005500Y-131381313D01*
X120005500Y-124459999D01*
X120614531Y-124459999D01*
X120634364Y-124686689D01*
X120693261Y-124906497D01*
X120789432Y-125112735D01*
X120919953Y-125299140D01*
X121080859Y-125460046D01*
X121267264Y-125590567D01*
X121267265Y-125590567D01*
X121267266Y-125590568D01*
X121325865Y-125617893D01*
X121378040Y-125663650D01*
X121397460Y-125730274D01*
X121378041Y-125796899D01*
X121325866Y-125842656D01*
X121267522Y-125869863D01*
X121081180Y-126000341D01*
X120920341Y-126161180D01*
X120789865Y-126347519D01*
X120693733Y-126553673D01*
X120641128Y-126749999D01*
X120641128Y-126750000D01*
X123198872Y-126750000D01*
X123198871Y-126749999D01*
X123146266Y-126553673D01*
X123050134Y-126347519D01*
X122919658Y-126161180D01*
X122758819Y-126000341D01*
X122572482Y-125869866D01*
X122514133Y-125842657D01*
X122461958Y-125796899D01*
X122442539Y-125730274D01*
X122461959Y-125663649D01*
X122514134Y-125617893D01*
X122572734Y-125590568D01*
X122759139Y-125460047D01*
X122920047Y-125299139D01*
X123050568Y-125112734D01*
X123146739Y-124906496D01*
X123205635Y-124686692D01*
X123225468Y-124460000D01*
X123205635Y-124233308D01*
X123146739Y-124013504D01*
X123050568Y-123807266D01*
X123036456Y-123787112D01*
X122920046Y-123620859D01*
X122759140Y-123459953D01*
X122572732Y-123329430D01*
X122514724Y-123302380D01*
X122462549Y-123256623D01*
X122443130Y-123189997D01*
X122462550Y-123123373D01*
X122514721Y-123077619D01*
X122572734Y-123050568D01*
X122759139Y-122920047D01*
X122920047Y-122759139D01*
X123050568Y-122572734D01*
X123146739Y-122366496D01*
X123205635Y-122146692D01*
X123225468Y-121920000D01*
X123205635Y-121693308D01*
X123146739Y-121473504D01*
X123050568Y-121267266D01*
X123036456Y-121247112D01*
X122920046Y-121080859D01*
X122759140Y-120919953D01*
X122572733Y-120789431D01*
X122514725Y-120762382D01*
X122462549Y-120716625D01*
X122443129Y-120650000D01*
X122462549Y-120583375D01*
X122514725Y-120537618D01*
X122572734Y-120510568D01*
X122759139Y-120380047D01*
X122920047Y-120219139D01*
X123050568Y-120032734D01*
X123146739Y-119826496D01*
X123205635Y-119606692D01*
X123225468Y-119380000D01*
X123222004Y-119340412D01*
X123205635Y-119153310D01*
X123205635Y-119153308D01*
X123146739Y-118933504D01*
X123050568Y-118727266D01*
X122999635Y-118654526D01*
X122920046Y-118540859D01*
X122759140Y-118379953D01*
X122572733Y-118249431D01*
X122514725Y-118222382D01*
X122462549Y-118176625D01*
X122443129Y-118110000D01*
X122462549Y-118043375D01*
X122514725Y-117997618D01*
X122572734Y-117970568D01*
X122759139Y-117840047D01*
X122920047Y-117679139D01*
X123050568Y-117492734D01*
X123146739Y-117286496D01*
X123205635Y-117066692D01*
X123225468Y-116840000D01*
X123205635Y-116613308D01*
X123146739Y-116393504D01*
X123050568Y-116187266D01*
X122984094Y-116092331D01*
X122920046Y-116000859D01*
X122759140Y-115839953D01*
X122572732Y-115709430D01*
X122514724Y-115682380D01*
X122462549Y-115636623D01*
X122443130Y-115569997D01*
X122462550Y-115503373D01*
X122514721Y-115457619D01*
X122572734Y-115430568D01*
X122759139Y-115300047D01*
X122920047Y-115139139D01*
X123050568Y-114952734D01*
X123146739Y-114746496D01*
X123205635Y-114526692D01*
X123225468Y-114300000D01*
X123205635Y-114073308D01*
X123146739Y-113853504D01*
X123050568Y-113647266D01*
X122920047Y-113460861D01*
X122920046Y-113460859D01*
X122759140Y-113299953D01*
X122572736Y-113169433D01*
X122514723Y-113142381D01*
X122462548Y-113096623D01*
X122443129Y-113029997D01*
X122462549Y-112963372D01*
X122514721Y-112917619D01*
X122572734Y-112890568D01*
X122759139Y-112760047D01*
X122920047Y-112599139D01*
X123050568Y-112412734D01*
X123146739Y-112206496D01*
X123205635Y-111986692D01*
X123225468Y-111760000D01*
X123221968Y-111719999D01*
X133355033Y-111719999D01*
X133374858Y-111946602D01*
X133433733Y-112166326D01*
X133529866Y-112372484D01*
X133580972Y-112445471D01*
X133580974Y-112445472D01*
X134306446Y-111720001D01*
X135013553Y-111720001D01*
X135739025Y-112445472D01*
X135790134Y-112372480D01*
X135886266Y-112166326D01*
X135945141Y-111946602D01*
X135964966Y-111720000D01*
X135964966Y-111719999D01*
X138395033Y-111719999D01*
X138414858Y-111946602D01*
X138473733Y-112166326D01*
X138569866Y-112372484D01*
X138620972Y-112445471D01*
X138620974Y-112445472D01*
X139346446Y-111720001D01*
X140053553Y-111720001D01*
X140779025Y-112445472D01*
X140830134Y-112372480D01*
X140926266Y-112166326D01*
X140985141Y-111946602D01*
X141004966Y-111720000D01*
X140985141Y-111493397D01*
X140926266Y-111273673D01*
X140830133Y-111067515D01*
X140779025Y-110994526D01*
X140053553Y-111720000D01*
X140053553Y-111720001D01*
X139346446Y-111720001D01*
X139346446Y-111719999D01*
X138620973Y-110994526D01*
X138620973Y-110994527D01*
X138569865Y-111067516D01*
X138473733Y-111273672D01*
X138414858Y-111493397D01*
X138395033Y-111719999D01*
X135964966Y-111719999D01*
X135945141Y-111493397D01*
X135886266Y-111273673D01*
X135790133Y-111067515D01*
X135739025Y-110994526D01*
X135013553Y-111720000D01*
X135013553Y-111720001D01*
X134306446Y-111720001D01*
X134306446Y-111720000D01*
X133580973Y-110994526D01*
X133580973Y-110994527D01*
X133529865Y-111067516D01*
X133433733Y-111273672D01*
X133374858Y-111493397D01*
X133355033Y-111719999D01*
X123221968Y-111719999D01*
X123205635Y-111533308D01*
X123146739Y-111313504D01*
X123050568Y-111107266D01*
X123049507Y-111105751D01*
X122920046Y-110920859D01*
X122759140Y-110759953D01*
X122734537Y-110742726D01*
X122695399Y-110697884D01*
X122681666Y-110639970D01*
X122696500Y-110582328D01*
X122736485Y-110538239D01*
X122792406Y-110517861D01*
X122827483Y-110514091D01*
X122962331Y-110463796D01*
X123077546Y-110377546D01*
X123163796Y-110262331D01*
X123214091Y-110127483D01*
X123220500Y-110067873D01*
X123220499Y-109220000D01*
X128234531Y-109220000D01*
X128254364Y-109446689D01*
X128313261Y-109666497D01*
X128409432Y-109872735D01*
X128539953Y-110059140D01*
X128700859Y-110220046D01*
X128887264Y-110350567D01*
X128887265Y-110350567D01*
X128887266Y-110350568D01*
X128945865Y-110377893D01*
X128998040Y-110423650D01*
X129017460Y-110490274D01*
X128998041Y-110556899D01*
X128945866Y-110602656D01*
X128887522Y-110629863D01*
X128701180Y-110760341D01*
X128540341Y-110921180D01*
X128409865Y-111107519D01*
X128313733Y-111313673D01*
X128261128Y-111509999D01*
X128261128Y-111510000D01*
X130818872Y-111510000D01*
X130818871Y-111509999D01*
X130766266Y-111313673D01*
X130670134Y-111107519D01*
X130539658Y-110921180D01*
X130378819Y-110760341D01*
X130192482Y-110629866D01*
X130134133Y-110602657D01*
X130081958Y-110556899D01*
X130062539Y-110490274D01*
X130081959Y-110423649D01*
X130134134Y-110377893D01*
X130192734Y-110350568D01*
X130379139Y-110220047D01*
X130540047Y-110059139D01*
X130670568Y-109872734D01*
X130766739Y-109666496D01*
X130825635Y-109446692D01*
X130845468Y-109220000D01*
X133354531Y-109220000D01*
X133374364Y-109446689D01*
X133433261Y-109666497D01*
X133529432Y-109872735D01*
X133659953Y-110059140D01*
X133820859Y-110220046D01*
X134007264Y-110350567D01*
X134007265Y-110350567D01*
X134007266Y-110350568D01*
X134022975Y-110357893D01*
X134075150Y-110403649D01*
X134094570Y-110470274D01*
X134075151Y-110536899D01*
X134022977Y-110582656D01*
X134007517Y-110589865D01*
X133934527Y-110640973D01*
X133934526Y-110640973D01*
X134660000Y-111366446D01*
X134660001Y-111366446D01*
X135385472Y-110640974D01*
X135385471Y-110640972D01*
X135312483Y-110589866D01*
X135297023Y-110582657D01*
X135244847Y-110536899D01*
X135225428Y-110470273D01*
X135244849Y-110403647D01*
X135297023Y-110357893D01*
X135312734Y-110350568D01*
X135499139Y-110220047D01*
X135660047Y-110059139D01*
X135790568Y-109872734D01*
X135886739Y-109666496D01*
X135945635Y-109446692D01*
X135965468Y-109220000D01*
X138394531Y-109220000D01*
X138414364Y-109446689D01*
X138473261Y-109666497D01*
X138569432Y-109872735D01*
X138699953Y-110059140D01*
X138860859Y-110220046D01*
X139047264Y-110350567D01*
X139047265Y-110350567D01*
X139047266Y-110350568D01*
X139062975Y-110357893D01*
X139115150Y-110403649D01*
X139134570Y-110470274D01*
X139115151Y-110536899D01*
X139062977Y-110582656D01*
X139047517Y-110589865D01*
X138974527Y-110640973D01*
X138974526Y-110640973D01*
X139700000Y-111366446D01*
X139700001Y-111366446D01*
X140425472Y-110640974D01*
X140425471Y-110640972D01*
X140352483Y-110589866D01*
X140337023Y-110582657D01*
X140284847Y-110536899D01*
X140265428Y-110470273D01*
X140284849Y-110403647D01*
X140337023Y-110357893D01*
X140352734Y-110350568D01*
X140539139Y-110220047D01*
X140700047Y-110059139D01*
X140830568Y-109872734D01*
X140926739Y-109666496D01*
X140985635Y-109446692D01*
X141005468Y-109220000D01*
X140985635Y-108993308D01*
X140926739Y-108773504D01*
X140830568Y-108567266D01*
X140733388Y-108428478D01*
X140700046Y-108380859D01*
X140539140Y-108219953D01*
X140352735Y-108089432D01*
X140146497Y-107993261D01*
X139926689Y-107934364D01*
X139700000Y-107914531D01*
X139473310Y-107934364D01*
X139253502Y-107993261D01*
X139047264Y-108089432D01*
X138860859Y-108219953D01*
X138699953Y-108380859D01*
X138569432Y-108567264D01*
X138473261Y-108773502D01*
X138414364Y-108993310D01*
X138394531Y-109220000D01*
X135965468Y-109220000D01*
X135945635Y-108993308D01*
X135886739Y-108773504D01*
X135790568Y-108567266D01*
X135693388Y-108428478D01*
X135660046Y-108380859D01*
X135499140Y-108219953D01*
X135312735Y-108089432D01*
X135106497Y-107993261D01*
X134886689Y-107934364D01*
X134660000Y-107914531D01*
X134433310Y-107934364D01*
X134213502Y-107993261D01*
X134007264Y-108089432D01*
X133820859Y-108219953D01*
X133659953Y-108380859D01*
X133529432Y-108567264D01*
X133433261Y-108773502D01*
X133374364Y-108993310D01*
X133354531Y-109220000D01*
X130845468Y-109220000D01*
X130825635Y-108993308D01*
X130766739Y-108773504D01*
X130670568Y-108567266D01*
X130573388Y-108428478D01*
X130540046Y-108380859D01*
X130379140Y-108219953D01*
X130192735Y-108089432D01*
X129986497Y-107993261D01*
X129766689Y-107934364D01*
X129540000Y-107914531D01*
X129313310Y-107934364D01*
X129093502Y-107993261D01*
X128887264Y-108089432D01*
X128700859Y-108219953D01*
X128539953Y-108380859D01*
X128409432Y-108567264D01*
X128313261Y-108773502D01*
X128254364Y-108993310D01*
X128234531Y-109220000D01*
X123220499Y-109220000D01*
X123220499Y-108372128D01*
X123214091Y-108312517D01*
X123163796Y-108177669D01*
X123077546Y-108062454D01*
X122962331Y-107976204D01*
X122827483Y-107925909D01*
X122767873Y-107919500D01*
X122767869Y-107919500D01*
X121072130Y-107919500D01*
X121012515Y-107925909D01*
X120877669Y-107976204D01*
X120762454Y-108062454D01*
X120676204Y-108177668D01*
X120625909Y-108312515D01*
X120625909Y-108312517D01*
X120620069Y-108366842D01*
X120619500Y-108372130D01*
X120619500Y-110067869D01*
X120625909Y-110127483D01*
X120676204Y-110262331D01*
X120762454Y-110377546D01*
X120877669Y-110463796D01*
X121012517Y-110514091D01*
X121047594Y-110517862D01*
X121103513Y-110538239D01*
X121143497Y-110582327D01*
X121158332Y-110639968D01*
X121144600Y-110697881D01*
X121105464Y-110742724D01*
X121080860Y-110759952D01*
X120919953Y-110920859D01*
X120789432Y-111107264D01*
X120693261Y-111313502D01*
X120634364Y-111533310D01*
X120614531Y-111759999D01*
X120634364Y-111986689D01*
X120693261Y-112206497D01*
X120789432Y-112412735D01*
X120919953Y-112599140D01*
X121080859Y-112760046D01*
X121267263Y-112890566D01*
X121267266Y-112890568D01*
X121325275Y-112917618D01*
X121377450Y-112963375D01*
X121396869Y-113030000D01*
X121377450Y-113096625D01*
X121325275Y-113142382D01*
X121267263Y-113169433D01*
X121080859Y-113299953D01*
X120919953Y-113460859D01*
X120789432Y-113647264D01*
X120693261Y-113853502D01*
X120634364Y-114073310D01*
X120614531Y-114299999D01*
X120634364Y-114526689D01*
X120693261Y-114746497D01*
X120789432Y-114952735D01*
X120919953Y-115139140D01*
X121080859Y-115300046D01*
X121267262Y-115430565D01*
X121267266Y-115430568D01*
X121325275Y-115457618D01*
X121377450Y-115503375D01*
X121396869Y-115570000D01*
X121377450Y-115636625D01*
X121325275Y-115682381D01*
X121304576Y-115692033D01*
X121267263Y-115709433D01*
X121080859Y-115839953D01*
X120919953Y-116000859D01*
X120789432Y-116187264D01*
X120693261Y-116393502D01*
X120634364Y-116613310D01*
X120614531Y-116839999D01*
X120634364Y-117066689D01*
X120693261Y-117286497D01*
X120789432Y-117492735D01*
X120919953Y-117679140D01*
X121080859Y-117840046D01*
X121162526Y-117897229D01*
X121267266Y-117970568D01*
X121325275Y-117997618D01*
X121377450Y-118043375D01*
X121396869Y-118110000D01*
X121377450Y-118176625D01*
X121325275Y-118222382D01*
X121267263Y-118249433D01*
X121080859Y-118379953D01*
X120919953Y-118540859D01*
X120789432Y-118727264D01*
X120693261Y-118933502D01*
X120634364Y-119153310D01*
X120614531Y-119379999D01*
X120634364Y-119606689D01*
X120693261Y-119826497D01*
X120789432Y-120032735D01*
X120919953Y-120219140D01*
X121080859Y-120380046D01*
X121193654Y-120459025D01*
X121267266Y-120510568D01*
X121325273Y-120537617D01*
X121377449Y-120583373D01*
X121396869Y-120649997D01*
X121377451Y-120716622D01*
X121325276Y-120762380D01*
X121267266Y-120789431D01*
X121080859Y-120919953D01*
X120919953Y-121080859D01*
X120789432Y-121267264D01*
X120693261Y-121473502D01*
X120634364Y-121693310D01*
X120614531Y-121919999D01*
X120634364Y-122146689D01*
X120693261Y-122366497D01*
X120789432Y-122572735D01*
X120919953Y-122759140D01*
X121080859Y-122920046D01*
X121267262Y-123050565D01*
X121267266Y-123050568D01*
X121325273Y-123077617D01*
X121377449Y-123123373D01*
X121396869Y-123189997D01*
X121377451Y-123256622D01*
X121325276Y-123302380D01*
X121267266Y-123329431D01*
X121080859Y-123459953D01*
X120919953Y-123620859D01*
X120789432Y-123807264D01*
X120693261Y-124013502D01*
X120634364Y-124233310D01*
X120614531Y-124459999D01*
X120005500Y-124459999D01*
X120005500Y-122618687D01*
X120013736Y-122574249D01*
X120037347Y-122535717D01*
X120112533Y-122452216D01*
X120207179Y-122288284D01*
X120265674Y-122108256D01*
X120285460Y-121920000D01*
X120265674Y-121731744D01*
X120207179Y-121551716D01*
X120207179Y-121551715D01*
X120112533Y-121387783D01*
X119985870Y-121247110D01*
X119832730Y-121135848D01*
X119659802Y-121058855D01*
X119474648Y-121019500D01*
X119474646Y-121019500D01*
X119285354Y-121019500D01*
X119285352Y-121019500D01*
X119100197Y-121058855D01*
X118927269Y-121135848D01*
X118774129Y-121247110D01*
X118647466Y-121387783D01*
X118552820Y-121551715D01*
X118494326Y-121731742D01*
X118474540Y-121920000D01*
X118494326Y-122108257D01*
X118552820Y-122288284D01*
X118647464Y-122452213D01*
X118647467Y-122452216D01*
X118722652Y-122535717D01*
X118746264Y-122574249D01*
X118754500Y-122618687D01*
X118754500Y-131381313D01*
X118746264Y-131425751D01*
X118722652Y-131464282D01*
X118689545Y-131501051D01*
X118647464Y-131547786D01*
X118552820Y-131711715D01*
X118494326Y-131891742D01*
X118474540Y-132079999D01*
X117465500Y-132079999D01*
X117465500Y-116910849D01*
X117467696Y-116887615D01*
X117469227Y-116879587D01*
X117465745Y-116824241D01*
X117465500Y-116816455D01*
X117465500Y-116800650D01*
X117463517Y-116784957D01*
X117462789Y-116777266D01*
X117459304Y-116721862D01*
X117456777Y-116714086D01*
X117451688Y-116691317D01*
X117450664Y-116683208D01*
X117430233Y-116631606D01*
X117427608Y-116624315D01*
X117410467Y-116571559D01*
X117406087Y-116564657D01*
X117395495Y-116543869D01*
X117392486Y-116536268D01*
X117359870Y-116491377D01*
X117355503Y-116484949D01*
X117325786Y-116438123D01*
X117319833Y-116432533D01*
X117304396Y-116415023D01*
X117299593Y-116408412D01*
X117256861Y-116373061D01*
X117251018Y-116367910D01*
X117210582Y-116329938D01*
X117203415Y-116325998D01*
X117184113Y-116312879D01*
X117177824Y-116307676D01*
X117146749Y-116293053D01*
X117127633Y-116284058D01*
X117120700Y-116280525D01*
X117072093Y-116253803D01*
X117068813Y-116252961D01*
X117064173Y-116251769D01*
X117042223Y-116243866D01*
X117034826Y-116240386D01*
X117034824Y-116240385D01*
X116980356Y-116229994D01*
X116972759Y-116228296D01*
X116919021Y-116214500D01*
X116919019Y-116214500D01*
X116910849Y-116214500D01*
X116887615Y-116212304D01*
X116879587Y-116210772D01*
X116824241Y-116214255D01*
X116816455Y-116214500D01*
X115514188Y-116214500D01*
X115456931Y-116200489D01*
X115412613Y-116161623D01*
X115300046Y-116000859D01*
X115139140Y-115839953D01*
X114952735Y-115709432D01*
X114746497Y-115613261D01*
X114526689Y-115554364D01*
X114300000Y-115534531D01*
X114073310Y-115554364D01*
X113853502Y-115613261D01*
X113647264Y-115709432D01*
X113460859Y-115839953D01*
X113299953Y-116000859D01*
X113169432Y-116187264D01*
X113073261Y-116393502D01*
X113014364Y-116613310D01*
X112994531Y-116839999D01*
X111935500Y-116839999D01*
X111935500Y-111759999D01*
X112994531Y-111759999D01*
X113014364Y-111986689D01*
X113073261Y-112206497D01*
X113169432Y-112412735D01*
X113299953Y-112599140D01*
X113460859Y-112760046D01*
X113647264Y-112890567D01*
X113647265Y-112890567D01*
X113647266Y-112890568D01*
X113853504Y-112986739D01*
X114073308Y-113045635D01*
X114300000Y-113065468D01*
X114526692Y-113045635D01*
X114746496Y-112986739D01*
X114952734Y-112890568D01*
X115139139Y-112760047D01*
X115300047Y-112599139D01*
X115430568Y-112412734D01*
X115526739Y-112206496D01*
X115585635Y-111986692D01*
X115605468Y-111760000D01*
X115605468Y-111759999D01*
X118474540Y-111759999D01*
X118494326Y-111948257D01*
X118552820Y-112128284D01*
X118647466Y-112292216D01*
X118774129Y-112432889D01*
X118927269Y-112544151D01*
X119100197Y-112621144D01*
X119285352Y-112660500D01*
X119285354Y-112660500D01*
X119474646Y-112660500D01*
X119474648Y-112660500D01*
X119598083Y-112634262D01*
X119659803Y-112621144D01*
X119832730Y-112544151D01*
X119985871Y-112432888D01*
X120112533Y-112292216D01*
X120207179Y-112128284D01*
X120265674Y-111948256D01*
X120285460Y-111760000D01*
X120265674Y-111571744D01*
X120207179Y-111391716D01*
X120207179Y-111391715D01*
X120112535Y-111227786D01*
X120099427Y-111213229D01*
X120037347Y-111144282D01*
X120013736Y-111105751D01*
X120005500Y-111061313D01*
X120005500Y-107429500D01*
X120022113Y-107367500D01*
X120067500Y-107322113D01*
X120129500Y-107305500D01*
X122158247Y-107305500D01*
X122178753Y-107307764D01*
X122181656Y-107307672D01*
X122181658Y-107307673D01*
X122248863Y-107305561D01*
X122252759Y-107305500D01*
X122280340Y-107305500D01*
X122280341Y-107305500D01*
X122284310Y-107304998D01*
X122295956Y-107304080D01*
X122339618Y-107302709D01*
X122358850Y-107297120D01*
X122377909Y-107293174D01*
X122384187Y-107292381D01*
X122397783Y-107290664D01*
X122438398Y-107274582D01*
X122449435Y-107270803D01*
X122491381Y-107258618D01*
X122508620Y-107248422D01*
X122526093Y-107239862D01*
X122544723Y-107232486D01*
X122580055Y-107206814D01*
X122589821Y-107200400D01*
X122627409Y-107178171D01*
X122627408Y-107178171D01*
X122627411Y-107178170D01*
X122641576Y-107164004D01*
X122656364Y-107151373D01*
X122672578Y-107139594D01*
X122700429Y-107105926D01*
X122708270Y-107097309D01*
X124843786Y-104961793D01*
X124859887Y-104948895D01*
X124861874Y-104946778D01*
X124861877Y-104946777D01*
X124907932Y-104897732D01*
X124910613Y-104894967D01*
X124930120Y-104875461D01*
X124932581Y-104872286D01*
X124940152Y-104863422D01*
X124970062Y-104831573D01*
X124979713Y-104814017D01*
X124990393Y-104797758D01*
X125002674Y-104781927D01*
X125020018Y-104741842D01*
X125025160Y-104731347D01*
X125031913Y-104719064D01*
X125046197Y-104693083D01*
X125051178Y-104673679D01*
X125057480Y-104655274D01*
X125065438Y-104636886D01*
X125072270Y-104593739D01*
X125074639Y-104582307D01*
X125085500Y-104540011D01*
X125085500Y-104519975D01*
X125087027Y-104500576D01*
X125090160Y-104480795D01*
X125086050Y-104437316D01*
X125085500Y-104425647D01*
X125085500Y-104390000D01*
X129531128Y-104390000D01*
X129583733Y-104586326D01*
X129679865Y-104792480D01*
X129810341Y-104978819D01*
X129971180Y-105139658D01*
X130157519Y-105270134D01*
X130363673Y-105366266D01*
X130559999Y-105418871D01*
X130560000Y-105418872D01*
X130560000Y-104390000D01*
X131060000Y-104390000D01*
X131060000Y-105418871D01*
X131256326Y-105366266D01*
X131462480Y-105270134D01*
X131648819Y-105139658D01*
X131700608Y-105087869D01*
X133219500Y-105087869D01*
X133225909Y-105147484D01*
X133232383Y-105164842D01*
X133276204Y-105282331D01*
X133362454Y-105397546D01*
X133477669Y-105483796D01*
X133612517Y-105534091D01*
X133672127Y-105540500D01*
X135567872Y-105540499D01*
X135627483Y-105534091D01*
X135762331Y-105483796D01*
X135877546Y-105397546D01*
X135963796Y-105282331D01*
X135992455Y-105205490D01*
X136028405Y-105154279D01*
X136084787Y-105127140D01*
X136147242Y-105130988D01*
X136199864Y-105164841D01*
X136208216Y-105173913D01*
X136391374Y-105316470D01*
X136595497Y-105426936D01*
X136657271Y-105448143D01*
X136815015Y-105502297D01*
X136815017Y-105502297D01*
X136815019Y-105502298D01*
X137043951Y-105540500D01*
X137276048Y-105540500D01*
X137276049Y-105540500D01*
X137504981Y-105502298D01*
X137724503Y-105426936D01*
X137928626Y-105316470D01*
X138111784Y-105173913D01*
X138268979Y-105003153D01*
X138395924Y-104808849D01*
X138489157Y-104596300D01*
X138541400Y-104390000D01*
X140890000Y-104390000D01*
X140890000Y-105037824D01*
X140896402Y-105097375D01*
X140946647Y-105232089D01*
X141032811Y-105347188D01*
X141147910Y-105433352D01*
X141282624Y-105483597D01*
X141342176Y-105490000D01*
X141990000Y-105490000D01*
X141990000Y-104390000D01*
X142490000Y-104390000D01*
X142490000Y-105490000D01*
X143137824Y-105490000D01*
X143197375Y-105483597D01*
X143332089Y-105433352D01*
X143447188Y-105347188D01*
X143533352Y-105232089D01*
X143583597Y-105097375D01*
X143590000Y-105037824D01*
X143590000Y-104390000D01*
X142490000Y-104390000D01*
X141990000Y-104390000D01*
X140890000Y-104390000D01*
X138541400Y-104390000D01*
X138546134Y-104371305D01*
X138565300Y-104140000D01*
X145884340Y-104140000D01*
X145904936Y-104375407D01*
X145918398Y-104425647D01*
X145966097Y-104603663D01*
X146065965Y-104817830D01*
X146201505Y-105011401D01*
X146368599Y-105178495D01*
X146562170Y-105314035D01*
X146776337Y-105413903D01*
X147004592Y-105475063D01*
X147240000Y-105495659D01*
X147475408Y-105475063D01*
X147703663Y-105413903D01*
X147917830Y-105314035D01*
X148111401Y-105178495D01*
X148278495Y-105011401D01*
X148414035Y-104817830D01*
X148513903Y-104603663D01*
X148575063Y-104375408D01*
X148595659Y-104140000D01*
X148575063Y-103904592D01*
X148513903Y-103676337D01*
X148414035Y-103462171D01*
X148278495Y-103268599D01*
X148111401Y-103101505D01*
X147917830Y-102965965D01*
X147703663Y-102866097D01*
X147631074Y-102846647D01*
X147475407Y-102804936D01*
X147240000Y-102784340D01*
X147004592Y-102804936D01*
X146776336Y-102866097D01*
X146562170Y-102965965D01*
X146368598Y-103101505D01*
X146201505Y-103268598D01*
X146065965Y-103462170D01*
X145966097Y-103676336D01*
X145904936Y-103904592D01*
X145884340Y-104140000D01*
X138565300Y-104140000D01*
X138546134Y-103908695D01*
X138541400Y-103890000D01*
X140890000Y-103890000D01*
X141990000Y-103890000D01*
X141990000Y-102790000D01*
X142490000Y-102790000D01*
X142490000Y-103890000D01*
X143590000Y-103890000D01*
X143590000Y-103242176D01*
X143583597Y-103182624D01*
X143533352Y-103047910D01*
X143447188Y-102932811D01*
X143332089Y-102846647D01*
X143197375Y-102796402D01*
X143137824Y-102790000D01*
X142490000Y-102790000D01*
X141990000Y-102790000D01*
X141342176Y-102790000D01*
X141282624Y-102796402D01*
X141147910Y-102846647D01*
X141032811Y-102932811D01*
X140946647Y-103047910D01*
X140896402Y-103182624D01*
X140890000Y-103242176D01*
X140890000Y-103890000D01*
X138541400Y-103890000D01*
X138489157Y-103683700D01*
X138395924Y-103471151D01*
X138268979Y-103276847D01*
X138111784Y-103106087D01*
X137928626Y-102963530D01*
X137724503Y-102853064D01*
X137724499Y-102853062D01*
X137724498Y-102853062D01*
X137504984Y-102777702D01*
X137314456Y-102745909D01*
X137276049Y-102739500D01*
X137043951Y-102739500D01*
X137005544Y-102745909D01*
X136815015Y-102777702D01*
X136595501Y-102853062D01*
X136595497Y-102853063D01*
X136595497Y-102853064D01*
X136541189Y-102882454D01*
X136391372Y-102963531D01*
X136208213Y-103106089D01*
X136199863Y-103115160D01*
X136147239Y-103149012D01*
X136084785Y-103152859D01*
X136028405Y-103125720D01*
X135992455Y-103074508D01*
X135963796Y-102997669D01*
X135877546Y-102882454D01*
X135762331Y-102796204D01*
X135627483Y-102745909D01*
X135567873Y-102739500D01*
X135567869Y-102739500D01*
X133672130Y-102739500D01*
X133612515Y-102745909D01*
X133477669Y-102796204D01*
X133362454Y-102882454D01*
X133276204Y-102997668D01*
X133225909Y-103132516D01*
X133219500Y-103192130D01*
X133219500Y-105087869D01*
X131700608Y-105087869D01*
X131809658Y-104978819D01*
X131940134Y-104792480D01*
X132036266Y-104586326D01*
X132088872Y-104390000D01*
X131060000Y-104390000D01*
X130560000Y-104390000D01*
X129531128Y-104390000D01*
X125085500Y-104390000D01*
X125085500Y-103890000D01*
X129531128Y-103890000D01*
X130560000Y-103890000D01*
X130560000Y-102861128D01*
X131060000Y-102861128D01*
X131060000Y-103890000D01*
X132088872Y-103890000D01*
X132088871Y-103889999D01*
X132036266Y-103693673D01*
X131940134Y-103487519D01*
X131809658Y-103301180D01*
X131648819Y-103140341D01*
X131462480Y-103009865D01*
X131256326Y-102913733D01*
X131060000Y-102861128D01*
X130560000Y-102861128D01*
X130559999Y-102861128D01*
X130363673Y-102913733D01*
X130157519Y-103009865D01*
X129971180Y-103140341D01*
X129810341Y-103301180D01*
X129679865Y-103487519D01*
X129583733Y-103693673D01*
X129531128Y-103889999D01*
X129531128Y-103890000D01*
X125085500Y-103890000D01*
X125085500Y-102298687D01*
X125093736Y-102254249D01*
X125117347Y-102215717D01*
X125192533Y-102132216D01*
X125287179Y-101968284D01*
X125345674Y-101788256D01*
X125365460Y-101600000D01*
X125345674Y-101411744D01*
X125287179Y-101231716D01*
X125287179Y-101231715D01*
X125192533Y-101067783D01*
X125065870Y-100927110D01*
X124912730Y-100815848D01*
X124739802Y-100738855D01*
X124554648Y-100699500D01*
X124554646Y-100699500D01*
X124365354Y-100699500D01*
X124365352Y-100699500D01*
X124180197Y-100738855D01*
X124007269Y-100815848D01*
X123854129Y-100927110D01*
X123727466Y-101067783D01*
X123632820Y-101231715D01*
X123574326Y-101411742D01*
X123554540Y-101599999D01*
X123574326Y-101788257D01*
X123632820Y-101968284D01*
X123727464Y-102132213D01*
X123727467Y-102132216D01*
X123802652Y-102215717D01*
X123826264Y-102254249D01*
X123834500Y-102298687D01*
X123834500Y-102810951D01*
X123819214Y-102870594D01*
X123777125Y-102915532D01*
X123718610Y-102934686D01*
X123658095Y-102923333D01*
X123636497Y-102913261D01*
X123416689Y-102854364D01*
X123190000Y-102834531D01*
X122963310Y-102854364D01*
X122743502Y-102913261D01*
X122537264Y-103009432D01*
X122350859Y-103139953D01*
X122189953Y-103300859D01*
X122059432Y-103487264D01*
X121963261Y-103693502D01*
X121904364Y-103913310D01*
X121884531Y-104140000D01*
X121904364Y-104366689D01*
X121963261Y-104586497D01*
X122059432Y-104792735D01*
X122189953Y-104979140D01*
X122350859Y-105140046D01*
X122546152Y-105276790D01*
X122545047Y-105278367D01*
X122578613Y-105305304D01*
X122602356Y-105359259D01*
X122598503Y-105418081D01*
X122567922Y-105468476D01*
X122018219Y-106018181D01*
X121977991Y-106045061D01*
X121930538Y-106054500D01*
X119450849Y-106054500D01*
X119427615Y-106052304D01*
X119419587Y-106050772D01*
X119364241Y-106054255D01*
X119356455Y-106054500D01*
X119340650Y-106054500D01*
X119324957Y-106056481D01*
X119317215Y-106057212D01*
X119261862Y-106060695D01*
X119254085Y-106063222D01*
X119231322Y-106068310D01*
X119223210Y-106069335D01*
X119171619Y-106089760D01*
X119164296Y-106092396D01*
X119111559Y-106109532D01*
X119104656Y-106113913D01*
X119083876Y-106124501D01*
X119076268Y-106127513D01*
X119031389Y-106160119D01*
X119024952Y-106164494D01*
X118978120Y-106194215D01*
X118972528Y-106200171D01*
X118955031Y-106215597D01*
X118948412Y-106220406D01*
X118913053Y-106263146D01*
X118907905Y-106268986D01*
X118869938Y-106309417D01*
X118865997Y-106316586D01*
X118852886Y-106335878D01*
X118847675Y-106342176D01*
X118824060Y-106392360D01*
X118820526Y-106399296D01*
X118793802Y-106447908D01*
X118791770Y-106455823D01*
X118783868Y-106477774D01*
X118780385Y-106485174D01*
X118769993Y-106539650D01*
X118768295Y-106547247D01*
X118754500Y-106600980D01*
X118754500Y-106609151D01*
X118752304Y-106632385D01*
X118750772Y-106640412D01*
X118754255Y-106695759D01*
X118754500Y-106703545D01*
X118754500Y-111061313D01*
X118746264Y-111105751D01*
X118722652Y-111144282D01*
X118689545Y-111181051D01*
X118647464Y-111227786D01*
X118552820Y-111391715D01*
X118494326Y-111571742D01*
X118474540Y-111759999D01*
X115605468Y-111759999D01*
X115585635Y-111533308D01*
X115526739Y-111313504D01*
X115430568Y-111107266D01*
X115429507Y-111105751D01*
X115300046Y-110920859D01*
X115139140Y-110759953D01*
X114952735Y-110629432D01*
X114746497Y-110533261D01*
X114526689Y-110474364D01*
X114300000Y-110454531D01*
X114073310Y-110474364D01*
X113853502Y-110533261D01*
X113647264Y-110629432D01*
X113460859Y-110759953D01*
X113299953Y-110920859D01*
X113169432Y-111107264D01*
X113073261Y-111313502D01*
X113014364Y-111533310D01*
X112994531Y-111759999D01*
X111935500Y-111759999D01*
X111935500Y-109980452D01*
X111944939Y-109932999D01*
X111971819Y-109892771D01*
X116287772Y-105576818D01*
X116328000Y-105549938D01*
X116375453Y-105540499D01*
X117787870Y-105540499D01*
X117787872Y-105540499D01*
X117847483Y-105534091D01*
X117982331Y-105483796D01*
X118097546Y-105397546D01*
X118183796Y-105282331D01*
X118212455Y-105205490D01*
X118248405Y-105154279D01*
X118304787Y-105127140D01*
X118367242Y-105130988D01*
X118419864Y-105164841D01*
X118428216Y-105173913D01*
X118611374Y-105316470D01*
X118815497Y-105426936D01*
X118877271Y-105448143D01*
X119035015Y-105502297D01*
X119035017Y-105502297D01*
X119035019Y-105502298D01*
X119263951Y-105540500D01*
X119496048Y-105540500D01*
X119496049Y-105540500D01*
X119724981Y-105502298D01*
X119944503Y-105426936D01*
X120148626Y-105316470D01*
X120331784Y-105173913D01*
X120488979Y-105003153D01*
X120615924Y-104808849D01*
X120709157Y-104596300D01*
X120766134Y-104371305D01*
X120785300Y-104140000D01*
X120766134Y-103908695D01*
X120709157Y-103683700D01*
X120615924Y-103471151D01*
X120488979Y-103276847D01*
X120331784Y-103106087D01*
X120148626Y-102963530D01*
X119944503Y-102853064D01*
X119944499Y-102853062D01*
X119944498Y-102853062D01*
X119724984Y-102777702D01*
X119534456Y-102745909D01*
X119496049Y-102739500D01*
X119263951Y-102739500D01*
X119225544Y-102745909D01*
X119035015Y-102777702D01*
X118815501Y-102853062D01*
X118815497Y-102853063D01*
X118815497Y-102853064D01*
X118761189Y-102882454D01*
X118611372Y-102963531D01*
X118428213Y-103106089D01*
X118419863Y-103115160D01*
X118367239Y-103149012D01*
X118304785Y-103152859D01*
X118248405Y-103125720D01*
X118212455Y-103074508D01*
X118183796Y-102997669D01*
X118097546Y-102882454D01*
X117982331Y-102796204D01*
X117847483Y-102745909D01*
X117787873Y-102739500D01*
X117787869Y-102739500D01*
X115892130Y-102739500D01*
X115832515Y-102745909D01*
X115697669Y-102796204D01*
X115582454Y-102882454D01*
X115496204Y-102997669D01*
X115467545Y-103074508D01*
X115431593Y-103125721D01*
X115375211Y-103152859D01*
X115312757Y-103149011D01*
X115260133Y-103115157D01*
X115251784Y-103106087D01*
X115112488Y-102997669D01*
X115068626Y-102963530D01*
X114864503Y-102853064D01*
X114864499Y-102853062D01*
X114864498Y-102853062D01*
X114644984Y-102777702D01*
X114454456Y-102745909D01*
X114416049Y-102739500D01*
X114183951Y-102739500D01*
X114145544Y-102745909D01*
X113955015Y-102777702D01*
X113735501Y-102853062D01*
X113735497Y-102853063D01*
X113735497Y-102853064D01*
X113681189Y-102882454D01*
X113531372Y-102963531D01*
X113348213Y-103106089D01*
X113339863Y-103115160D01*
X113287239Y-103149012D01*
X113224785Y-103152859D01*
X113168405Y-103125720D01*
X113132455Y-103074508D01*
X113103796Y-102997669D01*
X113017546Y-102882454D01*
X112902331Y-102796204D01*
X112767483Y-102745909D01*
X112707873Y-102739500D01*
X112707869Y-102739500D01*
X110812130Y-102739500D01*
X110752515Y-102745909D01*
X110617669Y-102796204D01*
X110502454Y-102882454D01*
X110416204Y-102997668D01*
X110365909Y-103132516D01*
X110359500Y-103192131D01*
X110359500Y-104620187D01*
X110344156Y-104679934D01*
X110341616Y-104684553D01*
X110340282Y-104686981D01*
X110329609Y-104703228D01*
X110317326Y-104719063D01*
X110299975Y-104759158D01*
X110294838Y-104769644D01*
X110273802Y-104807907D01*
X110268821Y-104827309D01*
X110262520Y-104845711D01*
X110254561Y-104864102D01*
X110247728Y-104907242D01*
X110245360Y-104918674D01*
X110234500Y-104960978D01*
X110234500Y-104981016D01*
X110232973Y-105000415D01*
X110229840Y-105020194D01*
X110233950Y-105063675D01*
X110234500Y-105075344D01*
X110234500Y-111253390D01*
X110217887Y-111315390D01*
X110172500Y-111360777D01*
X110110500Y-111377390D01*
X110048500Y-111360777D01*
X110003113Y-111315390D01*
X109952535Y-111227786D01*
X109939427Y-111213229D01*
X109877347Y-111144282D01*
X109853736Y-111105751D01*
X109845500Y-111061313D01*
X109845500Y-106762740D01*
X109847763Y-106742236D01*
X109846547Y-106703545D01*
X109845561Y-106672144D01*
X109845500Y-106668250D01*
X109845500Y-106640657D01*
X109845500Y-106640650D01*
X109844995Y-106636653D01*
X109844080Y-106625023D01*
X109843950Y-106620874D01*
X109842709Y-106581372D01*
X109837119Y-106562134D01*
X109833174Y-106543082D01*
X109830664Y-106523208D01*
X109815605Y-106485174D01*
X109814578Y-106482581D01*
X109810805Y-106471560D01*
X109798617Y-106429610D01*
X109788421Y-106412369D01*
X109779863Y-106394902D01*
X109772486Y-106376268D01*
X109746798Y-106340912D01*
X109740409Y-106331184D01*
X109718170Y-106293579D01*
X109704006Y-106279415D01*
X109691369Y-106264620D01*
X109679595Y-106248414D01*
X109679594Y-106248413D01*
X109645935Y-106220568D01*
X109637305Y-106212714D01*
X108020237Y-104595646D01*
X107988143Y-104540058D01*
X107988143Y-104475872D01*
X108015063Y-104375408D01*
X108015423Y-104371299D01*
X108035659Y-104140000D01*
X108015063Y-103904592D01*
X108011153Y-103889999D01*
X107953903Y-103676337D01*
X107854035Y-103462171D01*
X107718495Y-103268599D01*
X107551401Y-103101505D01*
X107357830Y-102965965D01*
X107143663Y-102866097D01*
X107071074Y-102846647D01*
X106915407Y-102804936D01*
X106680000Y-102784340D01*
X106444592Y-102804936D01*
X106216336Y-102866097D01*
X106002170Y-102965965D01*
X105808598Y-103101505D01*
X105641505Y-103268598D01*
X105505965Y-103462170D01*
X105406097Y-103676336D01*
X105344936Y-103904592D01*
X105324340Y-104140000D01*
X100000500Y-104140000D01*
X100000500Y-103890000D01*
X100330000Y-103890000D01*
X101430000Y-103890000D01*
X101430000Y-102790000D01*
X101930000Y-102790000D01*
X101930000Y-103890000D01*
X103030000Y-103890000D01*
X103030000Y-103242176D01*
X103023597Y-103182624D01*
X102973352Y-103047910D01*
X102887188Y-102932811D01*
X102772089Y-102846647D01*
X102637375Y-102796402D01*
X102577824Y-102790000D01*
X101930000Y-102790000D01*
X101430000Y-102790000D01*
X100782176Y-102790000D01*
X100722624Y-102796402D01*
X100587910Y-102846647D01*
X100472811Y-102932811D01*
X100386647Y-103047910D01*
X100336402Y-103182624D01*
X100330000Y-103242176D01*
X100330000Y-103890000D01*
X100000500Y-103890000D01*
X100000500Y-100124500D01*
X100017113Y-100062500D01*
X100062500Y-100017113D01*
X100124500Y-100000500D01*
X149875500Y-100000500D01*
X149937500Y-100017113D01*
G37*
%TD.AperFunction*%
%TD*%
D23*
X150000000Y-100000000D02*
X100000000Y-100000000D01*
X100000000Y-150000000D02*
X150000000Y-150000000D01*
X150000000Y-150000000D02*
X150000000Y-100000000D01*
X100000000Y-150000000D02*
X100000000Y-100000000D01*
M02*
