%TF.GenerationSoftware,KiCad,Pcbnew,7.0.1-3b83917a11~172~ubuntu22.04.1*%
%TF.CreationDate,2023-04-12T17:14:37-05:00*%
%TF.ProjectId,Project,50726f6a-6563-4742-9e6b-696361645f70,rev?*%
%TF.SameCoordinates,Original*%
%TF.FileFunction,Copper,L1,Top*%
%TF.FilePolarity,Positive*%
%FSLAX46Y46*%
G04 Gerber Fmt 4.6, Leading zero omitted, Abs format (unit mm)*
G04 Created by KiCad (PCBNEW 7.0.1-3b83917a11~172~ubuntu22.04.1) date 2023-04-12 17:14:37*
%MOMM*%
%LPD*%
G01*
G04 APERTURE LIST*
%TA.AperFunction,ComponentPad*%
%ADD10R,1.600000X1.600000*%
%TD*%
%TA.AperFunction,ComponentPad*%
%ADD11O,1.600000X1.600000*%
%TD*%
%TA.AperFunction,ComponentPad*%
%ADD12R,1.500000X1.500000*%
%TD*%
%TA.AperFunction,ComponentPad*%
%ADD13C,1.500000*%
%TD*%
%TA.AperFunction,ComponentPad*%
%ADD14R,1.700000X1.700000*%
%TD*%
%TA.AperFunction,ComponentPad*%
%ADD15C,1.700000*%
%TD*%
%TA.AperFunction,ComponentPad*%
%ADD16C,1.600000*%
%TD*%
%TA.AperFunction,ComponentPad*%
%ADD17O,1.700000X1.700000*%
%TD*%
%TA.AperFunction,ComponentPad*%
%ADD18R,1.800000X1.800000*%
%TD*%
%TA.AperFunction,ComponentPad*%
%ADD19C,1.800000*%
%TD*%
%TA.AperFunction,ViaPad*%
%ADD20C,0.800000*%
%TD*%
%TA.AperFunction,Conductor*%
%ADD21C,0.500000*%
%TD*%
%TA.AperFunction,Conductor*%
%ADD22C,0.250000*%
%TD*%
%TA.AperFunction,Conductor*%
%ADD23C,0.350000*%
%TD*%
%TA.AperFunction,Profile*%
%ADD24C,0.100000*%
%TD*%
G04 APERTURE END LIST*
D10*
%TO.P,U2,1,MCLR*%
%TO.N,/MCLR*%
X121920000Y-109220000D03*
D11*
%TO.P,U2,2,A0*%
%TO.N,/A0*%
X121920000Y-111760000D03*
%TO.P,U2,3,A1*%
%TO.N,/A1*%
X121920000Y-114300000D03*
%TO.P,U2,4,B0*%
%TO.N,/B0*%
X121920000Y-116840000D03*
%TO.P,U2,5,B1*%
%TO.N,/B1*%
X121920000Y-119380000D03*
%TO.P,U2,6,B2*%
%TO.N,/B2*%
X121920000Y-121920000D03*
%TO.P,U2,7,B3*%
%TO.N,/U1TX*%
X121920000Y-124460000D03*
%TO.P,U2,8,Vss*%
%TO.N,GND*%
X121920000Y-127000000D03*
%TO.P,U2,9,A2*%
%TO.N,/U1RX*%
X121920000Y-129540000D03*
%TO.P,U2,10,A3*%
%TO.N,/A3*%
X121920000Y-132080000D03*
%TO.P,U2,11,B4*%
%TO.N,/GREEN*%
X121920000Y-134620000D03*
%TO.P,U2,12,A4*%
%TO.N,/USER*%
X121920000Y-137160000D03*
%TO.P,U2,13,Vdd*%
%TO.N,+3.3V*%
X121920000Y-139700000D03*
%TO.P,U2,14,B5*%
%TO.N,/YELLOW*%
X121920000Y-142240000D03*
%TO.P,U2,15,B6*%
%TO.N,/B6*%
X129540000Y-142240000D03*
%TO.P,U2,16,B7*%
%TO.N,/B7*%
X129540000Y-139700000D03*
%TO.P,U2,17,B8*%
%TO.N,/B8*%
X129540000Y-137160000D03*
%TO.P,U2,18,B9*%
%TO.N,/B9*%
X129540000Y-134620000D03*
%TO.P,U2,19,Vss*%
%TO.N,GND*%
X129540000Y-132080000D03*
%TO.P,U2,20,Vcap*%
%TO.N,Net-(U2-Vcap)*%
X129540000Y-129540000D03*
%TO.P,U2,21,B10*%
%TO.N,/B10*%
X129540000Y-127000000D03*
%TO.P,U2,22,B11*%
%TO.N,/B11*%
X129540000Y-124460000D03*
%TO.P,U2,23,B12*%
%TO.N,/B12*%
X129540000Y-121920000D03*
%TO.P,U2,24,B13*%
%TO.N,/B13*%
X129540000Y-119380000D03*
%TO.P,U2,25,B14*%
%TO.N,/B14*%
X129540000Y-116840000D03*
%TO.P,U2,26,B15*%
%TO.N,/B15*%
X129540000Y-114300000D03*
%TO.P,U2,27,AVss*%
%TO.N,GND*%
X129540000Y-111760000D03*
%TO.P,U2,28,AVdd*%
%TO.N,+3.3V*%
X129540000Y-109220000D03*
%TD*%
D12*
%TO.P,U1,1,VO*%
%TO.N,+3.3V*%
X109220000Y-142240000D03*
D13*
%TO.P,U1,2,GND*%
%TO.N,GND*%
X111760000Y-142240000D03*
%TO.P,U1,3,VI*%
%TO.N,/Vin*%
X114300000Y-142240000D03*
%TD*%
D14*
%TO.P,SW3,1,1*%
%TO.N,GND*%
X101680000Y-104140000D03*
D15*
%TO.P,SW3,2,2*%
%TO.N,/MCLR*%
X106680000Y-104140000D03*
%TD*%
D14*
%TO.P,SW2,1,1*%
%TO.N,GND*%
X142240000Y-104140000D03*
D15*
%TO.P,SW2,2,2*%
%TO.N,/USER*%
X147240000Y-104140000D03*
%TD*%
D14*
%TO.P,SW1,1,A*%
%TO.N,+5V*%
X121920000Y-147320000D03*
D15*
%TO.P,SW1,2,B*%
%TO.N,/Vin*%
X124420000Y-147320000D03*
%TO.P,SW1,3,C*%
%TO.N,Net-(J1-5V)*%
X126920000Y-147320000D03*
%TD*%
D16*
%TO.P,R5,1*%
%TO.N,Net-(D3-K)*%
X123190000Y-104140000D03*
D11*
%TO.P,R5,2*%
%TO.N,GND*%
X130810000Y-104140000D03*
%TD*%
D16*
%TO.P,R4,1*%
%TO.N,Net-(D2-K)*%
X106680000Y-127000000D03*
D11*
%TO.P,R4,2*%
%TO.N,/YELLOW*%
X114300000Y-127000000D03*
%TD*%
D16*
%TO.P,R3,1*%
%TO.N,Net-(D1-K)*%
X106680000Y-122300000D03*
D11*
%TO.P,R3,2*%
%TO.N,/GREEN*%
X114300000Y-122300000D03*
%TD*%
D16*
%TO.P,R2,1*%
%TO.N,+3.3V*%
X106680000Y-116840000D03*
D11*
%TO.P,R2,2*%
%TO.N,/USER*%
X114300000Y-116840000D03*
%TD*%
D16*
%TO.P,R1,1*%
%TO.N,+3.3V*%
X106680000Y-111760000D03*
D11*
%TO.P,R1,2*%
%TO.N,/MCLR*%
X114300000Y-111760000D03*
%TD*%
D14*
%TO.P,J4,1,1*%
%TO.N,/B15*%
X147500000Y-115000000D03*
D17*
%TO.P,J4,2,2*%
%TO.N,/B14*%
X147500000Y-117540000D03*
%TO.P,J4,3,3*%
%TO.N,/B13*%
X147500000Y-120080000D03*
%TO.P,J4,4,4*%
%TO.N,/B12*%
X147500000Y-122620000D03*
%TO.P,J4,5,5*%
%TO.N,/B11*%
X147500000Y-125160000D03*
%TO.P,J4,6,6*%
%TO.N,/B10*%
X147500000Y-127700000D03*
%TO.P,J4,7,7*%
%TO.N,/B9*%
X147500000Y-130240000D03*
%TO.P,J4,8,8*%
%TO.N,/B8*%
X147500000Y-132780000D03*
%TO.P,J4,9,9*%
%TO.N,/B7*%
X147500000Y-135320000D03*
%TO.P,J4,10,10*%
%TO.N,/Vin*%
X147500000Y-137860000D03*
%TO.P,J4,11,11*%
%TO.N,+3.3V*%
X147500000Y-140400000D03*
%TO.P,J4,12,12*%
%TO.N,GND*%
X147500000Y-142940000D03*
%TD*%
D14*
%TO.P,J3,1,1*%
%TO.N,/A0*%
X102500000Y-115000000D03*
D17*
%TO.P,J3,2,2*%
%TO.N,/A1*%
X102500000Y-117540000D03*
%TO.P,J3,3,3*%
%TO.N,/B0*%
X102500000Y-120080000D03*
%TO.P,J3,4,4*%
%TO.N,/B1*%
X102500000Y-122620000D03*
%TO.P,J3,5,5*%
%TO.N,/B2*%
X102500000Y-125160000D03*
%TO.P,J3,6,6*%
%TO.N,/A3*%
X102500000Y-127700000D03*
%TO.P,J3,7,7*%
%TO.N,/GREEN*%
X102500000Y-130240000D03*
%TO.P,J3,8,8*%
%TO.N,/YELLOW*%
X102500000Y-132780000D03*
%TO.P,J3,9,9*%
%TO.N,/B6*%
X102500000Y-135320000D03*
%TO.P,J3,10,10*%
%TO.N,/Vin*%
X102500000Y-137860000D03*
%TO.P,J3,11,11*%
%TO.N,+3.3V*%
X102500000Y-140400000D03*
%TO.P,J3,12,12*%
%TO.N,GND*%
X102500000Y-142940000D03*
%TD*%
D14*
%TO.P,J2,1,1*%
%TO.N,unconnected-(J2-Pad1)*%
X102500000Y-147320000D03*
D17*
%TO.P,J2,2,2*%
%TO.N,/U1TX*%
X105040000Y-147320000D03*
%TO.P,J2,3,3*%
%TO.N,/U1RX*%
X107580000Y-147320000D03*
%TO.P,J2,4,4*%
%TO.N,+5V*%
X110120000Y-147320000D03*
%TO.P,J2,5,5*%
%TO.N,unconnected-(J2-Pad5)*%
X112660000Y-147320000D03*
%TO.P,J2,6,6*%
%TO.N,GND*%
X115200000Y-147320000D03*
%TD*%
D14*
%TO.P,J1,1,5V*%
%TO.N,Net-(J1-5V)*%
X139700000Y-147320000D03*
D17*
%TO.P,J1,2,GND*%
%TO.N,GND*%
X142240000Y-147320000D03*
%TD*%
D18*
%TO.P,D3,1,K*%
%TO.N,Net-(D3-K)*%
X134620000Y-104140000D03*
D19*
%TO.P,D3,2,A*%
%TO.N,+3.3V*%
X137160000Y-104140000D03*
%TD*%
D18*
%TO.P,D2,1,K*%
%TO.N,Net-(D2-K)*%
X116840000Y-104140000D03*
D19*
%TO.P,D2,2,A*%
%TO.N,+3.3V*%
X119380000Y-104140000D03*
%TD*%
D18*
%TO.P,D1,1,K*%
%TO.N,Net-(D1-K)*%
X111760000Y-104140000D03*
D19*
%TO.P,D1,2,A*%
%TO.N,+3.3V*%
X114300000Y-104140000D03*
%TD*%
D16*
%TO.P,C6,1*%
%TO.N,+3.3V*%
X134620000Y-134620000D03*
%TO.P,C6,2*%
%TO.N,GND*%
X139620000Y-134620000D03*
%TD*%
%TO.P,C5,1*%
%TO.N,+3.3V*%
X134700000Y-127000000D03*
%TO.P,C5,2*%
%TO.N,GND*%
X139700000Y-127000000D03*
%TD*%
%TO.P,C4,1*%
%TO.N,Net-(U2-Vcap)*%
X134700000Y-119380000D03*
%TO.P,C4,2*%
%TO.N,GND*%
X139700000Y-119380000D03*
%TD*%
%TO.P,C3,1*%
%TO.N,+3.3V*%
X139700000Y-109220000D03*
%TO.P,C3,2*%
%TO.N,GND*%
X139700000Y-111720000D03*
%TD*%
%TO.P,C2,1*%
%TO.N,+3.3V*%
X134660000Y-109220000D03*
%TO.P,C2,2*%
%TO.N,GND*%
X134660000Y-111720000D03*
%TD*%
%TO.P,C1,1*%
%TO.N,/Vin*%
X134700000Y-142240000D03*
%TO.P,C1,2*%
%TO.N,GND*%
X139700000Y-142240000D03*
%TD*%
D20*
%TO.N,/MCLR*%
X109220000Y-111760000D03*
%TO.N,+3.3V*%
X127000000Y-127000000D03*
X142240000Y-137160000D03*
X132080000Y-137160000D03*
X132080000Y-144780000D03*
%TO.N,/U1TX*%
X124460000Y-124460000D03*
%TO.N,/U1RX*%
X127000000Y-129540000D03*
%TO.N,/GREEN*%
X111760000Y-129540000D03*
X119380000Y-121920000D03*
X119380000Y-132080000D03*
%TO.N,/USER*%
X116840000Y-137160000D03*
%TO.N,/YELLOW*%
X119380000Y-134620000D03*
X119380000Y-142240000D03*
%TO.N,/USER*%
X124460000Y-101600000D03*
X119380000Y-111760000D03*
%TO.N,/Vin*%
X106680000Y-139700000D03*
X106680000Y-144780000D03*
%TD*%
D21*
%TO.N,Net-(J1-5V)*%
X126920000Y-147320000D02*
X139700000Y-147320000D01*
D22*
%TO.N,/MCLR*%
X114300000Y-111760000D02*
X109220000Y-111760000D01*
D23*
%TO.N,/Vin*%
X134700000Y-144780000D02*
X140580000Y-144780000D01*
X140580000Y-144780000D02*
X147500000Y-137860000D01*
X134700000Y-142240000D02*
X134700000Y-144780000D01*
X134700000Y-144780000D02*
X133925000Y-145555000D01*
X133925000Y-145555000D02*
X126185000Y-145555000D01*
X126185000Y-145555000D02*
X124420000Y-147320000D01*
D22*
%TO.N,+3.3V*%
X127000000Y-111760000D02*
X129540000Y-109220000D01*
X127000000Y-127000000D02*
X127000000Y-111760000D01*
X142240000Y-137160000D02*
X137160000Y-137160000D01*
X137160000Y-137160000D02*
X134620000Y-134620000D01*
X132080000Y-137160000D02*
X134620000Y-134620000D01*
X127000000Y-144780000D02*
X132080000Y-144780000D01*
X121920000Y-139700000D02*
X127000000Y-144780000D01*
%TO.N,/U1TX*%
X124460000Y-124460000D02*
X121920000Y-124460000D01*
%TO.N,/U1RX*%
X121920000Y-129540000D02*
X127000000Y-129540000D01*
%TO.N,/GREEN*%
X102500000Y-130240000D02*
X111060000Y-130240000D01*
X111060000Y-130240000D02*
X111760000Y-129540000D01*
%TO.N,/A3*%
X102500000Y-127700000D02*
X104325000Y-125875000D01*
X104325000Y-125875000D02*
X115715000Y-125875000D01*
X115715000Y-125875000D02*
X121920000Y-132080000D01*
%TO.N,/B2*%
X102500000Y-125160000D02*
X118680000Y-125160000D01*
X118680000Y-125160000D02*
X121920000Y-121920000D01*
%TO.N,/GREEN*%
X119000000Y-122300000D02*
X114300000Y-122300000D01*
X121920000Y-134620000D02*
X119380000Y-132080000D01*
X119380000Y-121920000D02*
X119000000Y-122300000D01*
%TO.N,/B1*%
X102500000Y-122620000D02*
X103945000Y-121175000D01*
X103945000Y-121175000D02*
X120125000Y-121175000D01*
X120125000Y-121175000D02*
X121920000Y-119380000D01*
%TO.N,/B0*%
X102500000Y-120080000D02*
X118680000Y-120080000D01*
X118680000Y-120080000D02*
X121920000Y-116840000D01*
%TO.N,/A1*%
X102500000Y-117540000D02*
X103350000Y-118390000D01*
X103350000Y-118390000D02*
X117830000Y-118390000D01*
X117830000Y-118390000D02*
X121920000Y-114300000D01*
%TO.N,/A0*%
X116840000Y-113274695D02*
X116840000Y-111760000D01*
X115114695Y-115000000D02*
X116840000Y-113274695D01*
X102500000Y-115000000D02*
X115114695Y-115000000D01*
X116840000Y-111760000D02*
X117639999Y-110960001D01*
X117639999Y-110960001D02*
X121120001Y-110960001D01*
X121120001Y-110960001D02*
X121920000Y-111760000D01*
%TO.N,/USER*%
X121920000Y-137160000D02*
X116840000Y-137160000D01*
%TO.N,/B6*%
X102500000Y-135320000D02*
X105755000Y-138575000D01*
X105755000Y-138575000D02*
X125875000Y-138575000D01*
X125875000Y-138575000D02*
X129540000Y-142240000D01*
%TO.N,/YELLOW*%
X119380000Y-134620000D02*
X114300000Y-134620000D01*
X114300000Y-134620000D02*
X114300000Y-132080000D01*
X121920000Y-142240000D02*
X119380000Y-142240000D01*
X113600000Y-132780000D02*
X114300000Y-132080000D01*
X102500000Y-132780000D02*
X113600000Y-132780000D01*
X114300000Y-132080000D02*
X114300000Y-127000000D01*
%TO.N,Net-(D3-K)*%
X123190000Y-104140000D02*
X124315000Y-105265000D01*
X124315000Y-105265000D02*
X133495000Y-105265000D01*
X133495000Y-105265000D02*
X134620000Y-104140000D01*
%TO.N,/USER*%
X114300000Y-116840000D02*
X119380000Y-111760000D01*
X147320000Y-101600000D02*
X124460000Y-101600000D01*
X147240000Y-104140000D02*
X147240000Y-101680000D01*
X147240000Y-101680000D02*
X147320000Y-101600000D01*
%TO.N,/B7*%
X129540000Y-139700000D02*
X143120000Y-139700000D01*
X143120000Y-139700000D02*
X147500000Y-135320000D01*
%TO.N,/B8*%
X147500000Y-132780000D02*
X133920000Y-132780000D01*
X133920000Y-132780000D02*
X129540000Y-137160000D01*
%TO.N,/B9*%
X129540000Y-134620000D02*
X133920000Y-130240000D01*
X133920000Y-130240000D02*
X147500000Y-130240000D01*
%TO.N,/B10*%
X129540000Y-127000000D02*
X130665000Y-125875000D01*
X130665000Y-125875000D02*
X145675000Y-125875000D01*
X145675000Y-125875000D02*
X147500000Y-127700000D01*
%TO.N,/B11*%
X129540000Y-124460000D02*
X146800000Y-124460000D01*
X146800000Y-124460000D02*
X147500000Y-125160000D01*
%TO.N,/B12*%
X129540000Y-121920000D02*
X146800000Y-121920000D01*
X146800000Y-121920000D02*
X147500000Y-122620000D01*
%TO.N,/B13*%
X129540000Y-119380000D02*
X130665000Y-118255000D01*
X130665000Y-118255000D02*
X145675000Y-118255000D01*
X145675000Y-118255000D02*
X147500000Y-120080000D01*
%TO.N,/B14*%
X129540000Y-116840000D02*
X146800000Y-116840000D01*
X146800000Y-116840000D02*
X147500000Y-117540000D01*
%TO.N,/B15*%
X129540000Y-114300000D02*
X146800000Y-114300000D01*
X146800000Y-114300000D02*
X147500000Y-115000000D01*
%TO.N,+3.3V*%
X134660000Y-109220000D02*
X137160000Y-109220000D01*
X137160000Y-109220000D02*
X139700000Y-109220000D01*
X137160000Y-104140000D02*
X137160000Y-109220000D01*
X129540000Y-109220000D02*
X134660000Y-109220000D01*
X121920000Y-106680000D02*
X129540000Y-106680000D01*
X119380000Y-101600000D02*
X121920000Y-101600000D01*
X129540000Y-106680000D02*
X129540000Y-109220000D01*
X121920000Y-101600000D02*
X121920000Y-106680000D01*
X114300000Y-101600000D02*
X119380000Y-101600000D01*
X119380000Y-101600000D02*
X119380000Y-104140000D01*
X109220000Y-101600000D02*
X114300000Y-101600000D01*
X106680000Y-111760000D02*
X109220000Y-109220000D01*
X109220000Y-109220000D02*
X109220000Y-101600000D01*
X114300000Y-101600000D02*
X114300000Y-104140000D01*
%TO.N,/MCLR*%
X121920000Y-109220000D02*
X114300000Y-109220000D01*
X114300000Y-109220000D02*
X114300000Y-111760000D01*
%TO.N,+3.3V*%
X109220000Y-142240000D02*
X111760000Y-139700000D01*
X111760000Y-139700000D02*
X121920000Y-139700000D01*
X102500000Y-140400000D02*
X104340000Y-142240000D01*
X104340000Y-142240000D02*
X109220000Y-142240000D01*
D21*
%TO.N,/Vin*%
X114300000Y-142240000D02*
X114210050Y-142240000D01*
X114210050Y-142240000D02*
X111670050Y-144780000D01*
X111670050Y-144780000D02*
X106680000Y-144780000D01*
X106680000Y-139700000D02*
X104340000Y-139700000D01*
X104340000Y-139700000D02*
X102500000Y-137860000D01*
X121880000Y-144780000D02*
X119380000Y-144780000D01*
X124420000Y-147320000D02*
X121880000Y-144780000D01*
X119380000Y-144780000D02*
X116840000Y-142240000D01*
X116840000Y-142240000D02*
X114300000Y-142240000D01*
%TO.N,+5V*%
X116840000Y-144780000D02*
X119380000Y-147320000D01*
X110120000Y-147320000D02*
X112660000Y-144780000D01*
X112660000Y-144780000D02*
X116840000Y-144780000D01*
X119380000Y-147320000D02*
X121920000Y-147320000D01*
%TD*%
D24*
X150000000Y-100000000D02*
X100000000Y-100000000D01*
X100000000Y-150000000D02*
X150000000Y-150000000D01*
X150000000Y-150000000D02*
X150000000Y-100000000D01*
X100000000Y-150000000D02*
X100000000Y-100000000D01*
M02*
