%TF.GenerationSoftware,KiCad,Pcbnew,7.0.1-3b83917a11~172~ubuntu22.04.1*%
%TF.CreationDate,2023-04-12T17:14:37-05:00*%
%TF.ProjectId,Project,50726f6a-6563-4742-9e6b-696361645f70,rev?*%
%TF.SameCoordinates,Original*%
%TF.FileFunction,Soldermask,Top*%
%TF.FilePolarity,Negative*%
%FSLAX46Y46*%
G04 Gerber Fmt 4.6, Leading zero omitted, Abs format (unit mm)*
G04 Created by KiCad (PCBNEW 7.0.1-3b83917a11~172~ubuntu22.04.1) date 2023-04-12 17:14:37*
%MOMM*%
%LPD*%
G01*
G04 APERTURE LIST*
%ADD10R,1.600000X1.600000*%
%ADD11O,1.600000X1.600000*%
%ADD12R,1.500000X1.500000*%
%ADD13C,1.500000*%
%ADD14R,1.700000X1.700000*%
%ADD15C,1.700000*%
%ADD16C,1.600000*%
%ADD17O,1.700000X1.700000*%
%ADD18R,1.800000X1.800000*%
%ADD19C,1.800000*%
%TA.AperFunction,Profile*%
%ADD20C,0.100000*%
%TD*%
G04 APERTURE END LIST*
D10*
%TO.C,U2*%
X121920000Y-109220000D03*
D11*
X121920000Y-111760000D03*
X121920000Y-114300000D03*
X121920000Y-116840000D03*
X121920000Y-119380000D03*
X121920000Y-121920000D03*
X121920000Y-124460000D03*
X121920000Y-127000000D03*
X121920000Y-129540000D03*
X121920000Y-132080000D03*
X121920000Y-134620000D03*
X121920000Y-137160000D03*
X121920000Y-139700000D03*
X121920000Y-142240000D03*
X129540000Y-142240000D03*
X129540000Y-139700000D03*
X129540000Y-137160000D03*
X129540000Y-134620000D03*
X129540000Y-132080000D03*
X129540000Y-129540000D03*
X129540000Y-127000000D03*
X129540000Y-124460000D03*
X129540000Y-121920000D03*
X129540000Y-119380000D03*
X129540000Y-116840000D03*
X129540000Y-114300000D03*
X129540000Y-111760000D03*
X129540000Y-109220000D03*
%TD*%
D12*
%TO.C,U1*%
X109220000Y-142240000D03*
D13*
X111760000Y-142240000D03*
X114300000Y-142240000D03*
%TD*%
D14*
%TO.C,SW3*%
X101680000Y-104140000D03*
D15*
X106680000Y-104140000D03*
%TD*%
D14*
%TO.C,SW2*%
X142240000Y-104140000D03*
D15*
X147240000Y-104140000D03*
%TD*%
D14*
%TO.C,SW1*%
X121920000Y-147320000D03*
D15*
X124420000Y-147320000D03*
X126920000Y-147320000D03*
%TD*%
D16*
%TO.C,R5*%
X123190000Y-104140000D03*
D11*
X130810000Y-104140000D03*
%TD*%
D16*
%TO.C,R4*%
X106680000Y-127000000D03*
D11*
X114300000Y-127000000D03*
%TD*%
D16*
%TO.C,R3*%
X106680000Y-122300000D03*
D11*
X114300000Y-122300000D03*
%TD*%
D16*
%TO.C,R2*%
X106680000Y-116840000D03*
D11*
X114300000Y-116840000D03*
%TD*%
D16*
%TO.C,R1*%
X106680000Y-111760000D03*
D11*
X114300000Y-111760000D03*
%TD*%
D14*
%TO.C,J4*%
X147500000Y-115000000D03*
D17*
X147500000Y-117540000D03*
X147500000Y-120080000D03*
X147500000Y-122620000D03*
X147500000Y-125160000D03*
X147500000Y-127700000D03*
X147500000Y-130240000D03*
X147500000Y-132780000D03*
X147500000Y-135320000D03*
X147500000Y-137860000D03*
X147500000Y-140400000D03*
X147500000Y-142940000D03*
%TD*%
D14*
%TO.C,J3*%
X102500000Y-115000000D03*
D17*
X102500000Y-117540000D03*
X102500000Y-120080000D03*
X102500000Y-122620000D03*
X102500000Y-125160000D03*
X102500000Y-127700000D03*
X102500000Y-130240000D03*
X102500000Y-132780000D03*
X102500000Y-135320000D03*
X102500000Y-137860000D03*
X102500000Y-140400000D03*
X102500000Y-142940000D03*
%TD*%
D14*
%TO.C,J2*%
X102500000Y-147320000D03*
D17*
X105040000Y-147320000D03*
X107580000Y-147320000D03*
X110120000Y-147320000D03*
X112660000Y-147320000D03*
X115200000Y-147320000D03*
%TD*%
D14*
%TO.C,J1*%
X139700000Y-147320000D03*
D17*
X142240000Y-147320000D03*
%TD*%
D18*
%TO.C,D3*%
X134620000Y-104140000D03*
D19*
X137160000Y-104140000D03*
%TD*%
D18*
%TO.C,D2*%
X116840000Y-104140000D03*
D19*
X119380000Y-104140000D03*
%TD*%
D18*
%TO.C,D1*%
X111760000Y-104140000D03*
D19*
X114300000Y-104140000D03*
%TD*%
D16*
%TO.C,C6*%
X134620000Y-134620000D03*
X139620000Y-134620000D03*
%TD*%
%TO.C,C5*%
X134700000Y-127000000D03*
X139700000Y-127000000D03*
%TD*%
%TO.C,C4*%
X134700000Y-119380000D03*
X139700000Y-119380000D03*
%TD*%
%TO.C,C3*%
X139700000Y-109220000D03*
X139700000Y-111720000D03*
%TD*%
%TO.C,C2*%
X134660000Y-109220000D03*
X134660000Y-111720000D03*
%TD*%
%TO.C,C1*%
X134700000Y-142240000D03*
X139700000Y-142240000D03*
%TD*%
D20*
X150000000Y-100000000D02*
X100000000Y-100000000D01*
X100000000Y-150000000D02*
X150000000Y-150000000D01*
X150000000Y-150000000D02*
X150000000Y-100000000D01*
X100000000Y-150000000D02*
X100000000Y-100000000D01*
M02*
