%TF.GenerationSoftware,KiCad,Pcbnew,7.0.1-3b83917a11~172~ubuntu22.04.1*%
%TF.CreationDate,2023-04-12T17:14:37-05:00*%
%TF.ProjectId,Project,50726f6a-6563-4742-9e6b-696361645f70,rev?*%
%TF.SameCoordinates,Original*%
%TF.FileFunction,Legend,Top*%
%TF.FilePolarity,Positive*%
%FSLAX46Y46*%
G04 Gerber Fmt 4.6, Leading zero omitted, Abs format (unit mm)*
G04 Created by KiCad (PCBNEW 7.0.1-3b83917a11~172~ubuntu22.04.1) date 2023-04-12 17:14:37*
%MOMM*%
%LPD*%
G01*
G04 APERTURE LIST*
%ADD10C,0.150000*%
%ADD11C,0.100000*%
%ADD12C,0.120000*%
%ADD13C,0.500000*%
%TA.AperFunction,Profile*%
%ADD14C,0.100000*%
%TD*%
G04 APERTURE END LIST*
D10*
X143477914Y-142399596D02*
X143382676Y-142351977D01*
X143382676Y-142351977D02*
X143239819Y-142351977D01*
X143239819Y-142351977D02*
X143096962Y-142399596D01*
X143096962Y-142399596D02*
X143001724Y-142494834D01*
X143001724Y-142494834D02*
X142954105Y-142590072D01*
X142954105Y-142590072D02*
X142906486Y-142780548D01*
X142906486Y-142780548D02*
X142906486Y-142923405D01*
X142906486Y-142923405D02*
X142954105Y-143113881D01*
X142954105Y-143113881D02*
X143001724Y-143209119D01*
X143001724Y-143209119D02*
X143096962Y-143304358D01*
X143096962Y-143304358D02*
X143239819Y-143351977D01*
X143239819Y-143351977D02*
X143335057Y-143351977D01*
X143335057Y-143351977D02*
X143477914Y-143304358D01*
X143477914Y-143304358D02*
X143525533Y-143256738D01*
X143525533Y-143256738D02*
X143525533Y-142923405D01*
X143525533Y-142923405D02*
X143335057Y-142923405D01*
X143954105Y-143351977D02*
X143954105Y-142351977D01*
X143954105Y-142351977D02*
X144525533Y-143351977D01*
X144525533Y-143351977D02*
X144525533Y-142351977D01*
X145001724Y-143351977D02*
X145001724Y-142351977D01*
X145001724Y-142351977D02*
X145239819Y-142351977D01*
X145239819Y-142351977D02*
X145382676Y-142399596D01*
X145382676Y-142399596D02*
X145477914Y-142494834D01*
X145477914Y-142494834D02*
X145525533Y-142590072D01*
X145525533Y-142590072D02*
X145573152Y-142780548D01*
X145573152Y-142780548D02*
X145573152Y-142923405D01*
X145573152Y-142923405D02*
X145525533Y-143113881D01*
X145525533Y-143113881D02*
X145477914Y-143209119D01*
X145477914Y-143209119D02*
X145382676Y-143304358D01*
X145382676Y-143304358D02*
X145239819Y-143351977D01*
X145239819Y-143351977D02*
X145001724Y-143351977D01*
X142589147Y-139998981D02*
X143208194Y-139998981D01*
X143208194Y-139998981D02*
X142874861Y-140379933D01*
X142874861Y-140379933D02*
X143017718Y-140379933D01*
X143017718Y-140379933D02*
X143112956Y-140427552D01*
X143112956Y-140427552D02*
X143160575Y-140475171D01*
X143160575Y-140475171D02*
X143208194Y-140570409D01*
X143208194Y-140570409D02*
X143208194Y-140808504D01*
X143208194Y-140808504D02*
X143160575Y-140903742D01*
X143160575Y-140903742D02*
X143112956Y-140951362D01*
X143112956Y-140951362D02*
X143017718Y-140998981D01*
X143017718Y-140998981D02*
X142732004Y-140998981D01*
X142732004Y-140998981D02*
X142636766Y-140951362D01*
X142636766Y-140951362D02*
X142589147Y-140903742D01*
X143636766Y-140903742D02*
X143684385Y-140951362D01*
X143684385Y-140951362D02*
X143636766Y-140998981D01*
X143636766Y-140998981D02*
X143589147Y-140951362D01*
X143589147Y-140951362D02*
X143636766Y-140903742D01*
X143636766Y-140903742D02*
X143636766Y-140998981D01*
X144017718Y-139998981D02*
X144636765Y-139998981D01*
X144636765Y-139998981D02*
X144303432Y-140379933D01*
X144303432Y-140379933D02*
X144446289Y-140379933D01*
X144446289Y-140379933D02*
X144541527Y-140427552D01*
X144541527Y-140427552D02*
X144589146Y-140475171D01*
X144589146Y-140475171D02*
X144636765Y-140570409D01*
X144636765Y-140570409D02*
X144636765Y-140808504D01*
X144636765Y-140808504D02*
X144589146Y-140903742D01*
X144589146Y-140903742D02*
X144541527Y-140951362D01*
X144541527Y-140951362D02*
X144446289Y-140998981D01*
X144446289Y-140998981D02*
X144160575Y-140998981D01*
X144160575Y-140998981D02*
X144065337Y-140951362D01*
X144065337Y-140951362D02*
X144017718Y-140903742D01*
X144922480Y-139998981D02*
X145255813Y-140998981D01*
X145255813Y-140998981D02*
X145589146Y-139998981D01*
X143427904Y-137221673D02*
X143761237Y-138221673D01*
X143761237Y-138221673D02*
X144094570Y-137221673D01*
X144427904Y-138221673D02*
X144427904Y-137555006D01*
X144427904Y-137221673D02*
X144380285Y-137269292D01*
X144380285Y-137269292D02*
X144427904Y-137316911D01*
X144427904Y-137316911D02*
X144475523Y-137269292D01*
X144475523Y-137269292D02*
X144427904Y-137221673D01*
X144427904Y-137221673D02*
X144427904Y-137316911D01*
X144904094Y-137555006D02*
X144904094Y-138221673D01*
X144904094Y-137650244D02*
X144951713Y-137602625D01*
X144951713Y-137602625D02*
X145046951Y-137555006D01*
X145046951Y-137555006D02*
X145189808Y-137555006D01*
X145189808Y-137555006D02*
X145285046Y-137602625D01*
X145285046Y-137602625D02*
X145332665Y-137697863D01*
X145332665Y-137697863D02*
X145332665Y-138221673D01*
X144138376Y-135146529D02*
X144281233Y-135194148D01*
X144281233Y-135194148D02*
X144328852Y-135241767D01*
X144328852Y-135241767D02*
X144376471Y-135337005D01*
X144376471Y-135337005D02*
X144376471Y-135479862D01*
X144376471Y-135479862D02*
X144328852Y-135575100D01*
X144328852Y-135575100D02*
X144281233Y-135622720D01*
X144281233Y-135622720D02*
X144185995Y-135670339D01*
X144185995Y-135670339D02*
X143805043Y-135670339D01*
X143805043Y-135670339D02*
X143805043Y-134670339D01*
X143805043Y-134670339D02*
X144138376Y-134670339D01*
X144138376Y-134670339D02*
X144233614Y-134717958D01*
X144233614Y-134717958D02*
X144281233Y-134765577D01*
X144281233Y-134765577D02*
X144328852Y-134860815D01*
X144328852Y-134860815D02*
X144328852Y-134956053D01*
X144328852Y-134956053D02*
X144281233Y-135051291D01*
X144281233Y-135051291D02*
X144233614Y-135098910D01*
X144233614Y-135098910D02*
X144138376Y-135146529D01*
X144138376Y-135146529D02*
X143805043Y-135146529D01*
X144709805Y-134670339D02*
X145376471Y-134670339D01*
X145376471Y-134670339D02*
X144947900Y-135670339D01*
X144074087Y-132783889D02*
X144216944Y-132831508D01*
X144216944Y-132831508D02*
X144264563Y-132879127D01*
X144264563Y-132879127D02*
X144312182Y-132974365D01*
X144312182Y-132974365D02*
X144312182Y-133117222D01*
X144312182Y-133117222D02*
X144264563Y-133212460D01*
X144264563Y-133212460D02*
X144216944Y-133260080D01*
X144216944Y-133260080D02*
X144121706Y-133307699D01*
X144121706Y-133307699D02*
X143740754Y-133307699D01*
X143740754Y-133307699D02*
X143740754Y-132307699D01*
X143740754Y-132307699D02*
X144074087Y-132307699D01*
X144074087Y-132307699D02*
X144169325Y-132355318D01*
X144169325Y-132355318D02*
X144216944Y-132402937D01*
X144216944Y-132402937D02*
X144264563Y-132498175D01*
X144264563Y-132498175D02*
X144264563Y-132593413D01*
X144264563Y-132593413D02*
X144216944Y-132688651D01*
X144216944Y-132688651D02*
X144169325Y-132736270D01*
X144169325Y-132736270D02*
X144074087Y-132783889D01*
X144074087Y-132783889D02*
X143740754Y-132783889D01*
X144883611Y-132736270D02*
X144788373Y-132688651D01*
X144788373Y-132688651D02*
X144740754Y-132641032D01*
X144740754Y-132641032D02*
X144693135Y-132545794D01*
X144693135Y-132545794D02*
X144693135Y-132498175D01*
X144693135Y-132498175D02*
X144740754Y-132402937D01*
X144740754Y-132402937D02*
X144788373Y-132355318D01*
X144788373Y-132355318D02*
X144883611Y-132307699D01*
X144883611Y-132307699D02*
X145074087Y-132307699D01*
X145074087Y-132307699D02*
X145169325Y-132355318D01*
X145169325Y-132355318D02*
X145216944Y-132402937D01*
X145216944Y-132402937D02*
X145264563Y-132498175D01*
X145264563Y-132498175D02*
X145264563Y-132545794D01*
X145264563Y-132545794D02*
X145216944Y-132641032D01*
X145216944Y-132641032D02*
X145169325Y-132688651D01*
X145169325Y-132688651D02*
X145074087Y-132736270D01*
X145074087Y-132736270D02*
X144883611Y-132736270D01*
X144883611Y-132736270D02*
X144788373Y-132783889D01*
X144788373Y-132783889D02*
X144740754Y-132831508D01*
X144740754Y-132831508D02*
X144693135Y-132926746D01*
X144693135Y-132926746D02*
X144693135Y-133117222D01*
X144693135Y-133117222D02*
X144740754Y-133212460D01*
X144740754Y-133212460D02*
X144788373Y-133260080D01*
X144788373Y-133260080D02*
X144883611Y-133307699D01*
X144883611Y-133307699D02*
X145074087Y-133307699D01*
X145074087Y-133307699D02*
X145169325Y-133260080D01*
X145169325Y-133260080D02*
X145216944Y-133212460D01*
X145216944Y-133212460D02*
X145264563Y-133117222D01*
X145264563Y-133117222D02*
X145264563Y-132926746D01*
X145264563Y-132926746D02*
X145216944Y-132831508D01*
X145216944Y-132831508D02*
X145169325Y-132783889D01*
X145169325Y-132783889D02*
X145074087Y-132736270D01*
X144009797Y-130244452D02*
X144152654Y-130292071D01*
X144152654Y-130292071D02*
X144200273Y-130339690D01*
X144200273Y-130339690D02*
X144247892Y-130434928D01*
X144247892Y-130434928D02*
X144247892Y-130577785D01*
X144247892Y-130577785D02*
X144200273Y-130673023D01*
X144200273Y-130673023D02*
X144152654Y-130720643D01*
X144152654Y-130720643D02*
X144057416Y-130768262D01*
X144057416Y-130768262D02*
X143676464Y-130768262D01*
X143676464Y-130768262D02*
X143676464Y-129768262D01*
X143676464Y-129768262D02*
X144009797Y-129768262D01*
X144009797Y-129768262D02*
X144105035Y-129815881D01*
X144105035Y-129815881D02*
X144152654Y-129863500D01*
X144152654Y-129863500D02*
X144200273Y-129958738D01*
X144200273Y-129958738D02*
X144200273Y-130053976D01*
X144200273Y-130053976D02*
X144152654Y-130149214D01*
X144152654Y-130149214D02*
X144105035Y-130196833D01*
X144105035Y-130196833D02*
X144009797Y-130244452D01*
X144009797Y-130244452D02*
X143676464Y-130244452D01*
X144724083Y-130768262D02*
X144914559Y-130768262D01*
X144914559Y-130768262D02*
X145009797Y-130720643D01*
X145009797Y-130720643D02*
X145057416Y-130673023D01*
X145057416Y-130673023D02*
X145152654Y-130530166D01*
X145152654Y-130530166D02*
X145200273Y-130339690D01*
X145200273Y-130339690D02*
X145200273Y-129958738D01*
X145200273Y-129958738D02*
X145152654Y-129863500D01*
X145152654Y-129863500D02*
X145105035Y-129815881D01*
X145105035Y-129815881D02*
X145009797Y-129768262D01*
X145009797Y-129768262D02*
X144819321Y-129768262D01*
X144819321Y-129768262D02*
X144724083Y-129815881D01*
X144724083Y-129815881D02*
X144676464Y-129863500D01*
X144676464Y-129863500D02*
X144628845Y-129958738D01*
X144628845Y-129958738D02*
X144628845Y-130196833D01*
X144628845Y-130196833D02*
X144676464Y-130292071D01*
X144676464Y-130292071D02*
X144724083Y-130339690D01*
X144724083Y-130339690D02*
X144819321Y-130387309D01*
X144819321Y-130387309D02*
X145009797Y-130387309D01*
X145009797Y-130387309D02*
X145105035Y-130339690D01*
X145105035Y-130339690D02*
X145152654Y-130292071D01*
X145152654Y-130292071D02*
X145200273Y-130196833D01*
X143105633Y-127769305D02*
X143248490Y-127816924D01*
X143248490Y-127816924D02*
X143296109Y-127864543D01*
X143296109Y-127864543D02*
X143343728Y-127959781D01*
X143343728Y-127959781D02*
X143343728Y-128102638D01*
X143343728Y-128102638D02*
X143296109Y-128197876D01*
X143296109Y-128197876D02*
X143248490Y-128245496D01*
X143248490Y-128245496D02*
X143153252Y-128293115D01*
X143153252Y-128293115D02*
X142772300Y-128293115D01*
X142772300Y-128293115D02*
X142772300Y-127293115D01*
X142772300Y-127293115D02*
X143105633Y-127293115D01*
X143105633Y-127293115D02*
X143200871Y-127340734D01*
X143200871Y-127340734D02*
X143248490Y-127388353D01*
X143248490Y-127388353D02*
X143296109Y-127483591D01*
X143296109Y-127483591D02*
X143296109Y-127578829D01*
X143296109Y-127578829D02*
X143248490Y-127674067D01*
X143248490Y-127674067D02*
X143200871Y-127721686D01*
X143200871Y-127721686D02*
X143105633Y-127769305D01*
X143105633Y-127769305D02*
X142772300Y-127769305D01*
X144296109Y-128293115D02*
X143724681Y-128293115D01*
X144010395Y-128293115D02*
X144010395Y-127293115D01*
X144010395Y-127293115D02*
X143915157Y-127435972D01*
X143915157Y-127435972D02*
X143819919Y-127531210D01*
X143819919Y-127531210D02*
X143724681Y-127578829D01*
X144915157Y-127293115D02*
X145010395Y-127293115D01*
X145010395Y-127293115D02*
X145105633Y-127340734D01*
X145105633Y-127340734D02*
X145153252Y-127388353D01*
X145153252Y-127388353D02*
X145200871Y-127483591D01*
X145200871Y-127483591D02*
X145248490Y-127674067D01*
X145248490Y-127674067D02*
X145248490Y-127912162D01*
X145248490Y-127912162D02*
X145200871Y-128102638D01*
X145200871Y-128102638D02*
X145153252Y-128197876D01*
X145153252Y-128197876D02*
X145105633Y-128245496D01*
X145105633Y-128245496D02*
X145010395Y-128293115D01*
X145010395Y-128293115D02*
X144915157Y-128293115D01*
X144915157Y-128293115D02*
X144819919Y-128245496D01*
X144819919Y-128245496D02*
X144772300Y-128197876D01*
X144772300Y-128197876D02*
X144724681Y-128102638D01*
X144724681Y-128102638D02*
X144677062Y-127912162D01*
X144677062Y-127912162D02*
X144677062Y-127674067D01*
X144677062Y-127674067D02*
X144724681Y-127483591D01*
X144724681Y-127483591D02*
X144772300Y-127388353D01*
X144772300Y-127388353D02*
X144819919Y-127340734D01*
X144819919Y-127340734D02*
X144915157Y-127293115D01*
X143236891Y-125131180D02*
X143379748Y-125178799D01*
X143379748Y-125178799D02*
X143427367Y-125226418D01*
X143427367Y-125226418D02*
X143474986Y-125321656D01*
X143474986Y-125321656D02*
X143474986Y-125464513D01*
X143474986Y-125464513D02*
X143427367Y-125559751D01*
X143427367Y-125559751D02*
X143379748Y-125607371D01*
X143379748Y-125607371D02*
X143284510Y-125654990D01*
X143284510Y-125654990D02*
X142903558Y-125654990D01*
X142903558Y-125654990D02*
X142903558Y-124654990D01*
X142903558Y-124654990D02*
X143236891Y-124654990D01*
X143236891Y-124654990D02*
X143332129Y-124702609D01*
X143332129Y-124702609D02*
X143379748Y-124750228D01*
X143379748Y-124750228D02*
X143427367Y-124845466D01*
X143427367Y-124845466D02*
X143427367Y-124940704D01*
X143427367Y-124940704D02*
X143379748Y-125035942D01*
X143379748Y-125035942D02*
X143332129Y-125083561D01*
X143332129Y-125083561D02*
X143236891Y-125131180D01*
X143236891Y-125131180D02*
X142903558Y-125131180D01*
X144427367Y-125654990D02*
X143855939Y-125654990D01*
X144141653Y-125654990D02*
X144141653Y-124654990D01*
X144141653Y-124654990D02*
X144046415Y-124797847D01*
X144046415Y-124797847D02*
X143951177Y-124893085D01*
X143951177Y-124893085D02*
X143855939Y-124940704D01*
X145379748Y-125654990D02*
X144808320Y-125654990D01*
X145094034Y-125654990D02*
X145094034Y-124654990D01*
X145094034Y-124654990D02*
X144998796Y-124797847D01*
X144998796Y-124797847D02*
X144903558Y-124893085D01*
X144903558Y-124893085D02*
X144808320Y-124940704D01*
X143074507Y-122639961D02*
X143217364Y-122687580D01*
X143217364Y-122687580D02*
X143264983Y-122735199D01*
X143264983Y-122735199D02*
X143312602Y-122830437D01*
X143312602Y-122830437D02*
X143312602Y-122973294D01*
X143312602Y-122973294D02*
X143264983Y-123068532D01*
X143264983Y-123068532D02*
X143217364Y-123116152D01*
X143217364Y-123116152D02*
X143122126Y-123163771D01*
X143122126Y-123163771D02*
X142741174Y-123163771D01*
X142741174Y-123163771D02*
X142741174Y-122163771D01*
X142741174Y-122163771D02*
X143074507Y-122163771D01*
X143074507Y-122163771D02*
X143169745Y-122211390D01*
X143169745Y-122211390D02*
X143217364Y-122259009D01*
X143217364Y-122259009D02*
X143264983Y-122354247D01*
X143264983Y-122354247D02*
X143264983Y-122449485D01*
X143264983Y-122449485D02*
X143217364Y-122544723D01*
X143217364Y-122544723D02*
X143169745Y-122592342D01*
X143169745Y-122592342D02*
X143074507Y-122639961D01*
X143074507Y-122639961D02*
X142741174Y-122639961D01*
X144264983Y-123163771D02*
X143693555Y-123163771D01*
X143979269Y-123163771D02*
X143979269Y-122163771D01*
X143979269Y-122163771D02*
X143884031Y-122306628D01*
X143884031Y-122306628D02*
X143788793Y-122401866D01*
X143788793Y-122401866D02*
X143693555Y-122449485D01*
X144645936Y-122259009D02*
X144693555Y-122211390D01*
X144693555Y-122211390D02*
X144788793Y-122163771D01*
X144788793Y-122163771D02*
X145026888Y-122163771D01*
X145026888Y-122163771D02*
X145122126Y-122211390D01*
X145122126Y-122211390D02*
X145169745Y-122259009D01*
X145169745Y-122259009D02*
X145217364Y-122354247D01*
X145217364Y-122354247D02*
X145217364Y-122449485D01*
X145217364Y-122449485D02*
X145169745Y-122592342D01*
X145169745Y-122592342D02*
X144598317Y-123163771D01*
X144598317Y-123163771D02*
X145217364Y-123163771D01*
X143169923Y-119974624D02*
X143312780Y-120022243D01*
X143312780Y-120022243D02*
X143360399Y-120069862D01*
X143360399Y-120069862D02*
X143408018Y-120165100D01*
X143408018Y-120165100D02*
X143408018Y-120307957D01*
X143408018Y-120307957D02*
X143360399Y-120403195D01*
X143360399Y-120403195D02*
X143312780Y-120450815D01*
X143312780Y-120450815D02*
X143217542Y-120498434D01*
X143217542Y-120498434D02*
X142836590Y-120498434D01*
X142836590Y-120498434D02*
X142836590Y-119498434D01*
X142836590Y-119498434D02*
X143169923Y-119498434D01*
X143169923Y-119498434D02*
X143265161Y-119546053D01*
X143265161Y-119546053D02*
X143312780Y-119593672D01*
X143312780Y-119593672D02*
X143360399Y-119688910D01*
X143360399Y-119688910D02*
X143360399Y-119784148D01*
X143360399Y-119784148D02*
X143312780Y-119879386D01*
X143312780Y-119879386D02*
X143265161Y-119927005D01*
X143265161Y-119927005D02*
X143169923Y-119974624D01*
X143169923Y-119974624D02*
X142836590Y-119974624D01*
X144360399Y-120498434D02*
X143788971Y-120498434D01*
X144074685Y-120498434D02*
X144074685Y-119498434D01*
X144074685Y-119498434D02*
X143979447Y-119641291D01*
X143979447Y-119641291D02*
X143884209Y-119736529D01*
X143884209Y-119736529D02*
X143788971Y-119784148D01*
X144693733Y-119498434D02*
X145312780Y-119498434D01*
X145312780Y-119498434D02*
X144979447Y-119879386D01*
X144979447Y-119879386D02*
X145122304Y-119879386D01*
X145122304Y-119879386D02*
X145217542Y-119927005D01*
X145217542Y-119927005D02*
X145265161Y-119974624D01*
X145265161Y-119974624D02*
X145312780Y-120069862D01*
X145312780Y-120069862D02*
X145312780Y-120307957D01*
X145312780Y-120307957D02*
X145265161Y-120403195D01*
X145265161Y-120403195D02*
X145217542Y-120450815D01*
X145217542Y-120450815D02*
X145122304Y-120498434D01*
X145122304Y-120498434D02*
X144836590Y-120498434D01*
X144836590Y-120498434D02*
X144741352Y-120450815D01*
X144741352Y-120450815D02*
X144693733Y-120403195D01*
X143181656Y-117492993D02*
X143324513Y-117540612D01*
X143324513Y-117540612D02*
X143372132Y-117588231D01*
X143372132Y-117588231D02*
X143419751Y-117683469D01*
X143419751Y-117683469D02*
X143419751Y-117826326D01*
X143419751Y-117826326D02*
X143372132Y-117921564D01*
X143372132Y-117921564D02*
X143324513Y-117969184D01*
X143324513Y-117969184D02*
X143229275Y-118016803D01*
X143229275Y-118016803D02*
X142848323Y-118016803D01*
X142848323Y-118016803D02*
X142848323Y-117016803D01*
X142848323Y-117016803D02*
X143181656Y-117016803D01*
X143181656Y-117016803D02*
X143276894Y-117064422D01*
X143276894Y-117064422D02*
X143324513Y-117112041D01*
X143324513Y-117112041D02*
X143372132Y-117207279D01*
X143372132Y-117207279D02*
X143372132Y-117302517D01*
X143372132Y-117302517D02*
X143324513Y-117397755D01*
X143324513Y-117397755D02*
X143276894Y-117445374D01*
X143276894Y-117445374D02*
X143181656Y-117492993D01*
X143181656Y-117492993D02*
X142848323Y-117492993D01*
X144372132Y-118016803D02*
X143800704Y-118016803D01*
X144086418Y-118016803D02*
X144086418Y-117016803D01*
X144086418Y-117016803D02*
X143991180Y-117159660D01*
X143991180Y-117159660D02*
X143895942Y-117254898D01*
X143895942Y-117254898D02*
X143800704Y-117302517D01*
X145229275Y-117350136D02*
X145229275Y-118016803D01*
X144991180Y-116969184D02*
X144753085Y-117683469D01*
X144753085Y-117683469D02*
X145372132Y-117683469D01*
X143154869Y-115135710D02*
X143297726Y-115183329D01*
X143297726Y-115183329D02*
X143345345Y-115230948D01*
X143345345Y-115230948D02*
X143392964Y-115326186D01*
X143392964Y-115326186D02*
X143392964Y-115469043D01*
X143392964Y-115469043D02*
X143345345Y-115564281D01*
X143345345Y-115564281D02*
X143297726Y-115611901D01*
X143297726Y-115611901D02*
X143202488Y-115659520D01*
X143202488Y-115659520D02*
X142821536Y-115659520D01*
X142821536Y-115659520D02*
X142821536Y-114659520D01*
X142821536Y-114659520D02*
X143154869Y-114659520D01*
X143154869Y-114659520D02*
X143250107Y-114707139D01*
X143250107Y-114707139D02*
X143297726Y-114754758D01*
X143297726Y-114754758D02*
X143345345Y-114849996D01*
X143345345Y-114849996D02*
X143345345Y-114945234D01*
X143345345Y-114945234D02*
X143297726Y-115040472D01*
X143297726Y-115040472D02*
X143250107Y-115088091D01*
X143250107Y-115088091D02*
X143154869Y-115135710D01*
X143154869Y-115135710D02*
X142821536Y-115135710D01*
X144345345Y-115659520D02*
X143773917Y-115659520D01*
X144059631Y-115659520D02*
X144059631Y-114659520D01*
X144059631Y-114659520D02*
X143964393Y-114802377D01*
X143964393Y-114802377D02*
X143869155Y-114897615D01*
X143869155Y-114897615D02*
X143773917Y-114945234D01*
X145250107Y-114659520D02*
X144773917Y-114659520D01*
X144773917Y-114659520D02*
X144726298Y-115135710D01*
X144726298Y-115135710D02*
X144773917Y-115088091D01*
X144773917Y-115088091D02*
X144869155Y-115040472D01*
X144869155Y-115040472D02*
X145107250Y-115040472D01*
X145107250Y-115040472D02*
X145202488Y-115088091D01*
X145202488Y-115088091D02*
X145250107Y-115135710D01*
X145250107Y-115135710D02*
X145297726Y-115230948D01*
X145297726Y-115230948D02*
X145297726Y-115469043D01*
X145297726Y-115469043D02*
X145250107Y-115564281D01*
X145250107Y-115564281D02*
X145202488Y-115611901D01*
X145202488Y-115611901D02*
X145107250Y-115659520D01*
X145107250Y-115659520D02*
X144869155Y-115659520D01*
X144869155Y-115659520D02*
X144773917Y-115611901D01*
X144773917Y-115611901D02*
X144726298Y-115564281D01*
X104919182Y-142548026D02*
X104823944Y-142500407D01*
X104823944Y-142500407D02*
X104681087Y-142500407D01*
X104681087Y-142500407D02*
X104538230Y-142548026D01*
X104538230Y-142548026D02*
X104442992Y-142643264D01*
X104442992Y-142643264D02*
X104395373Y-142738502D01*
X104395373Y-142738502D02*
X104347754Y-142928978D01*
X104347754Y-142928978D02*
X104347754Y-143071835D01*
X104347754Y-143071835D02*
X104395373Y-143262311D01*
X104395373Y-143262311D02*
X104442992Y-143357549D01*
X104442992Y-143357549D02*
X104538230Y-143452788D01*
X104538230Y-143452788D02*
X104681087Y-143500407D01*
X104681087Y-143500407D02*
X104776325Y-143500407D01*
X104776325Y-143500407D02*
X104919182Y-143452788D01*
X104919182Y-143452788D02*
X104966801Y-143405168D01*
X104966801Y-143405168D02*
X104966801Y-143071835D01*
X104966801Y-143071835D02*
X104776325Y-143071835D01*
X105395373Y-143500407D02*
X105395373Y-142500407D01*
X105395373Y-142500407D02*
X105966801Y-143500407D01*
X105966801Y-143500407D02*
X105966801Y-142500407D01*
X106442992Y-143500407D02*
X106442992Y-142500407D01*
X106442992Y-142500407D02*
X106681087Y-142500407D01*
X106681087Y-142500407D02*
X106823944Y-142548026D01*
X106823944Y-142548026D02*
X106919182Y-142643264D01*
X106919182Y-142643264D02*
X106966801Y-142738502D01*
X106966801Y-142738502D02*
X107014420Y-142928978D01*
X107014420Y-142928978D02*
X107014420Y-143071835D01*
X107014420Y-143071835D02*
X106966801Y-143262311D01*
X106966801Y-143262311D02*
X106919182Y-143357549D01*
X106919182Y-143357549D02*
X106823944Y-143452788D01*
X106823944Y-143452788D02*
X106681087Y-143500407D01*
X106681087Y-143500407D02*
X106442992Y-143500407D01*
X104346424Y-140255417D02*
X104965471Y-140255417D01*
X104965471Y-140255417D02*
X104632138Y-140636369D01*
X104632138Y-140636369D02*
X104774995Y-140636369D01*
X104774995Y-140636369D02*
X104870233Y-140683988D01*
X104870233Y-140683988D02*
X104917852Y-140731607D01*
X104917852Y-140731607D02*
X104965471Y-140826845D01*
X104965471Y-140826845D02*
X104965471Y-141064940D01*
X104965471Y-141064940D02*
X104917852Y-141160178D01*
X104917852Y-141160178D02*
X104870233Y-141207798D01*
X104870233Y-141207798D02*
X104774995Y-141255417D01*
X104774995Y-141255417D02*
X104489281Y-141255417D01*
X104489281Y-141255417D02*
X104394043Y-141207798D01*
X104394043Y-141207798D02*
X104346424Y-141160178D01*
X105394043Y-141160178D02*
X105441662Y-141207798D01*
X105441662Y-141207798D02*
X105394043Y-141255417D01*
X105394043Y-141255417D02*
X105346424Y-141207798D01*
X105346424Y-141207798D02*
X105394043Y-141160178D01*
X105394043Y-141160178D02*
X105394043Y-141255417D01*
X105774995Y-140255417D02*
X106394042Y-140255417D01*
X106394042Y-140255417D02*
X106060709Y-140636369D01*
X106060709Y-140636369D02*
X106203566Y-140636369D01*
X106203566Y-140636369D02*
X106298804Y-140683988D01*
X106298804Y-140683988D02*
X106346423Y-140731607D01*
X106346423Y-140731607D02*
X106394042Y-140826845D01*
X106394042Y-140826845D02*
X106394042Y-141064940D01*
X106394042Y-141064940D02*
X106346423Y-141160178D01*
X106346423Y-141160178D02*
X106298804Y-141207798D01*
X106298804Y-141207798D02*
X106203566Y-141255417D01*
X106203566Y-141255417D02*
X105917852Y-141255417D01*
X105917852Y-141255417D02*
X105822614Y-141207798D01*
X105822614Y-141207798D02*
X105774995Y-141160178D01*
X106679757Y-140255417D02*
X107013090Y-141255417D01*
X107013090Y-141255417D02*
X107346423Y-140255417D01*
X104327814Y-137350974D02*
X104661147Y-138350974D01*
X104661147Y-138350974D02*
X104994480Y-137350974D01*
X105327814Y-138350974D02*
X105327814Y-137684307D01*
X105327814Y-137350974D02*
X105280195Y-137398593D01*
X105280195Y-137398593D02*
X105327814Y-137446212D01*
X105327814Y-137446212D02*
X105375433Y-137398593D01*
X105375433Y-137398593D02*
X105327814Y-137350974D01*
X105327814Y-137350974D02*
X105327814Y-137446212D01*
X105804004Y-137684307D02*
X105804004Y-138350974D01*
X105804004Y-137779545D02*
X105851623Y-137731926D01*
X105851623Y-137731926D02*
X105946861Y-137684307D01*
X105946861Y-137684307D02*
X106089718Y-137684307D01*
X106089718Y-137684307D02*
X106184956Y-137731926D01*
X106184956Y-137731926D02*
X106232575Y-137827164D01*
X106232575Y-137827164D02*
X106232575Y-138350974D01*
X104711427Y-135350732D02*
X104854284Y-135398351D01*
X104854284Y-135398351D02*
X104901903Y-135445970D01*
X104901903Y-135445970D02*
X104949522Y-135541208D01*
X104949522Y-135541208D02*
X104949522Y-135684065D01*
X104949522Y-135684065D02*
X104901903Y-135779303D01*
X104901903Y-135779303D02*
X104854284Y-135826923D01*
X104854284Y-135826923D02*
X104759046Y-135874542D01*
X104759046Y-135874542D02*
X104378094Y-135874542D01*
X104378094Y-135874542D02*
X104378094Y-134874542D01*
X104378094Y-134874542D02*
X104711427Y-134874542D01*
X104711427Y-134874542D02*
X104806665Y-134922161D01*
X104806665Y-134922161D02*
X104854284Y-134969780D01*
X104854284Y-134969780D02*
X104901903Y-135065018D01*
X104901903Y-135065018D02*
X104901903Y-135160256D01*
X104901903Y-135160256D02*
X104854284Y-135255494D01*
X104854284Y-135255494D02*
X104806665Y-135303113D01*
X104806665Y-135303113D02*
X104711427Y-135350732D01*
X104711427Y-135350732D02*
X104378094Y-135350732D01*
X105806665Y-134874542D02*
X105616189Y-134874542D01*
X105616189Y-134874542D02*
X105520951Y-134922161D01*
X105520951Y-134922161D02*
X105473332Y-134969780D01*
X105473332Y-134969780D02*
X105378094Y-135112637D01*
X105378094Y-135112637D02*
X105330475Y-135303113D01*
X105330475Y-135303113D02*
X105330475Y-135684065D01*
X105330475Y-135684065D02*
X105378094Y-135779303D01*
X105378094Y-135779303D02*
X105425713Y-135826923D01*
X105425713Y-135826923D02*
X105520951Y-135874542D01*
X105520951Y-135874542D02*
X105711427Y-135874542D01*
X105711427Y-135874542D02*
X105806665Y-135826923D01*
X105806665Y-135826923D02*
X105854284Y-135779303D01*
X105854284Y-135779303D02*
X105901903Y-135684065D01*
X105901903Y-135684065D02*
X105901903Y-135445970D01*
X105901903Y-135445970D02*
X105854284Y-135350732D01*
X105854284Y-135350732D02*
X105806665Y-135303113D01*
X105806665Y-135303113D02*
X105711427Y-135255494D01*
X105711427Y-135255494D02*
X105520951Y-135255494D01*
X105520951Y-135255494D02*
X105425713Y-135303113D01*
X105425713Y-135303113D02*
X105378094Y-135350732D01*
X105378094Y-135350732D02*
X105330475Y-135445970D01*
X104661147Y-132783053D02*
X104661147Y-133259244D01*
X104327814Y-132259244D02*
X104661147Y-132783053D01*
X104661147Y-132783053D02*
X104994480Y-132259244D01*
X105327814Y-132735434D02*
X105661147Y-132735434D01*
X105804004Y-133259244D02*
X105327814Y-133259244D01*
X105327814Y-133259244D02*
X105327814Y-132259244D01*
X105327814Y-132259244D02*
X105804004Y-132259244D01*
X106708766Y-133259244D02*
X106232576Y-133259244D01*
X106232576Y-133259244D02*
X106232576Y-132259244D01*
X107518290Y-133259244D02*
X107042100Y-133259244D01*
X107042100Y-133259244D02*
X107042100Y-132259244D01*
X108042100Y-132259244D02*
X108232576Y-132259244D01*
X108232576Y-132259244D02*
X108327814Y-132306863D01*
X108327814Y-132306863D02*
X108423052Y-132402101D01*
X108423052Y-132402101D02*
X108470671Y-132592577D01*
X108470671Y-132592577D02*
X108470671Y-132925910D01*
X108470671Y-132925910D02*
X108423052Y-133116386D01*
X108423052Y-133116386D02*
X108327814Y-133211625D01*
X108327814Y-133211625D02*
X108232576Y-133259244D01*
X108232576Y-133259244D02*
X108042100Y-133259244D01*
X108042100Y-133259244D02*
X107946862Y-133211625D01*
X107946862Y-133211625D02*
X107851624Y-133116386D01*
X107851624Y-133116386D02*
X107804005Y-132925910D01*
X107804005Y-132925910D02*
X107804005Y-132592577D01*
X107804005Y-132592577D02*
X107851624Y-132402101D01*
X107851624Y-132402101D02*
X107946862Y-132306863D01*
X107946862Y-132306863D02*
X108042100Y-132259244D01*
X108804005Y-132259244D02*
X109042100Y-133259244D01*
X109042100Y-133259244D02*
X109232576Y-132544958D01*
X109232576Y-132544958D02*
X109423052Y-133259244D01*
X109423052Y-133259244D02*
X109661148Y-132259244D01*
X104994480Y-129755449D02*
X104899242Y-129707830D01*
X104899242Y-129707830D02*
X104756385Y-129707830D01*
X104756385Y-129707830D02*
X104613528Y-129755449D01*
X104613528Y-129755449D02*
X104518290Y-129850687D01*
X104518290Y-129850687D02*
X104470671Y-129945925D01*
X104470671Y-129945925D02*
X104423052Y-130136401D01*
X104423052Y-130136401D02*
X104423052Y-130279258D01*
X104423052Y-130279258D02*
X104470671Y-130469734D01*
X104470671Y-130469734D02*
X104518290Y-130564972D01*
X104518290Y-130564972D02*
X104613528Y-130660211D01*
X104613528Y-130660211D02*
X104756385Y-130707830D01*
X104756385Y-130707830D02*
X104851623Y-130707830D01*
X104851623Y-130707830D02*
X104994480Y-130660211D01*
X104994480Y-130660211D02*
X105042099Y-130612591D01*
X105042099Y-130612591D02*
X105042099Y-130279258D01*
X105042099Y-130279258D02*
X104851623Y-130279258D01*
X106042099Y-130707830D02*
X105708766Y-130231639D01*
X105470671Y-130707830D02*
X105470671Y-129707830D01*
X105470671Y-129707830D02*
X105851623Y-129707830D01*
X105851623Y-129707830D02*
X105946861Y-129755449D01*
X105946861Y-129755449D02*
X105994480Y-129803068D01*
X105994480Y-129803068D02*
X106042099Y-129898306D01*
X106042099Y-129898306D02*
X106042099Y-130041163D01*
X106042099Y-130041163D02*
X105994480Y-130136401D01*
X105994480Y-130136401D02*
X105946861Y-130184020D01*
X105946861Y-130184020D02*
X105851623Y-130231639D01*
X105851623Y-130231639D02*
X105470671Y-130231639D01*
X106470671Y-130184020D02*
X106804004Y-130184020D01*
X106946861Y-130707830D02*
X106470671Y-130707830D01*
X106470671Y-130707830D02*
X106470671Y-129707830D01*
X106470671Y-129707830D02*
X106946861Y-129707830D01*
X107375433Y-130184020D02*
X107708766Y-130184020D01*
X107851623Y-130707830D02*
X107375433Y-130707830D01*
X107375433Y-130707830D02*
X107375433Y-129707830D01*
X107375433Y-129707830D02*
X107851623Y-129707830D01*
X108280195Y-130707830D02*
X108280195Y-129707830D01*
X108280195Y-129707830D02*
X108851623Y-130707830D01*
X108851623Y-130707830D02*
X108851623Y-129707830D01*
X104353620Y-128755730D02*
X104829810Y-128755730D01*
X104258382Y-129041445D02*
X104591715Y-128041445D01*
X104591715Y-128041445D02*
X104925048Y-129041445D01*
X105163144Y-128041445D02*
X105782191Y-128041445D01*
X105782191Y-128041445D02*
X105448858Y-128422397D01*
X105448858Y-128422397D02*
X105591715Y-128422397D01*
X105591715Y-128422397D02*
X105686953Y-128470016D01*
X105686953Y-128470016D02*
X105734572Y-128517635D01*
X105734572Y-128517635D02*
X105782191Y-128612873D01*
X105782191Y-128612873D02*
X105782191Y-128850968D01*
X105782191Y-128850968D02*
X105734572Y-128946206D01*
X105734572Y-128946206D02*
X105686953Y-128993826D01*
X105686953Y-128993826D02*
X105591715Y-129041445D01*
X105591715Y-129041445D02*
X105306001Y-129041445D01*
X105306001Y-129041445D02*
X105210763Y-128993826D01*
X105210763Y-128993826D02*
X105163144Y-128946206D01*
X104730714Y-125080876D02*
X104873571Y-125128495D01*
X104873571Y-125128495D02*
X104921190Y-125176114D01*
X104921190Y-125176114D02*
X104968809Y-125271352D01*
X104968809Y-125271352D02*
X104968809Y-125414209D01*
X104968809Y-125414209D02*
X104921190Y-125509447D01*
X104921190Y-125509447D02*
X104873571Y-125557067D01*
X104873571Y-125557067D02*
X104778333Y-125604686D01*
X104778333Y-125604686D02*
X104397381Y-125604686D01*
X104397381Y-125604686D02*
X104397381Y-124604686D01*
X104397381Y-124604686D02*
X104730714Y-124604686D01*
X104730714Y-124604686D02*
X104825952Y-124652305D01*
X104825952Y-124652305D02*
X104873571Y-124699924D01*
X104873571Y-124699924D02*
X104921190Y-124795162D01*
X104921190Y-124795162D02*
X104921190Y-124890400D01*
X104921190Y-124890400D02*
X104873571Y-124985638D01*
X104873571Y-124985638D02*
X104825952Y-125033257D01*
X104825952Y-125033257D02*
X104730714Y-125080876D01*
X104730714Y-125080876D02*
X104397381Y-125080876D01*
X105349762Y-124699924D02*
X105397381Y-124652305D01*
X105397381Y-124652305D02*
X105492619Y-124604686D01*
X105492619Y-124604686D02*
X105730714Y-124604686D01*
X105730714Y-124604686D02*
X105825952Y-124652305D01*
X105825952Y-124652305D02*
X105873571Y-124699924D01*
X105873571Y-124699924D02*
X105921190Y-124795162D01*
X105921190Y-124795162D02*
X105921190Y-124890400D01*
X105921190Y-124890400D02*
X105873571Y-125033257D01*
X105873571Y-125033257D02*
X105302143Y-125604686D01*
X105302143Y-125604686D02*
X105921190Y-125604686D01*
X104788575Y-123711509D02*
X104931432Y-123759128D01*
X104931432Y-123759128D02*
X104979051Y-123806747D01*
X104979051Y-123806747D02*
X105026670Y-123901985D01*
X105026670Y-123901985D02*
X105026670Y-124044842D01*
X105026670Y-124044842D02*
X104979051Y-124140080D01*
X104979051Y-124140080D02*
X104931432Y-124187700D01*
X104931432Y-124187700D02*
X104836194Y-124235319D01*
X104836194Y-124235319D02*
X104455242Y-124235319D01*
X104455242Y-124235319D02*
X104455242Y-123235319D01*
X104455242Y-123235319D02*
X104788575Y-123235319D01*
X104788575Y-123235319D02*
X104883813Y-123282938D01*
X104883813Y-123282938D02*
X104931432Y-123330557D01*
X104931432Y-123330557D02*
X104979051Y-123425795D01*
X104979051Y-123425795D02*
X104979051Y-123521033D01*
X104979051Y-123521033D02*
X104931432Y-123616271D01*
X104931432Y-123616271D02*
X104883813Y-123663890D01*
X104883813Y-123663890D02*
X104788575Y-123711509D01*
X104788575Y-123711509D02*
X104455242Y-123711509D01*
X105979051Y-124235319D02*
X105407623Y-124235319D01*
X105693337Y-124235319D02*
X105693337Y-123235319D01*
X105693337Y-123235319D02*
X105598099Y-123378176D01*
X105598099Y-123378176D02*
X105502861Y-123473414D01*
X105502861Y-123473414D02*
X105407623Y-123521033D01*
X104688283Y-120024020D02*
X104831140Y-120071639D01*
X104831140Y-120071639D02*
X104878759Y-120119258D01*
X104878759Y-120119258D02*
X104926378Y-120214496D01*
X104926378Y-120214496D02*
X104926378Y-120357353D01*
X104926378Y-120357353D02*
X104878759Y-120452591D01*
X104878759Y-120452591D02*
X104831140Y-120500211D01*
X104831140Y-120500211D02*
X104735902Y-120547830D01*
X104735902Y-120547830D02*
X104354950Y-120547830D01*
X104354950Y-120547830D02*
X104354950Y-119547830D01*
X104354950Y-119547830D02*
X104688283Y-119547830D01*
X104688283Y-119547830D02*
X104783521Y-119595449D01*
X104783521Y-119595449D02*
X104831140Y-119643068D01*
X104831140Y-119643068D02*
X104878759Y-119738306D01*
X104878759Y-119738306D02*
X104878759Y-119833544D01*
X104878759Y-119833544D02*
X104831140Y-119928782D01*
X104831140Y-119928782D02*
X104783521Y-119976401D01*
X104783521Y-119976401D02*
X104688283Y-120024020D01*
X104688283Y-120024020D02*
X104354950Y-120024020D01*
X105545426Y-119547830D02*
X105640664Y-119547830D01*
X105640664Y-119547830D02*
X105735902Y-119595449D01*
X105735902Y-119595449D02*
X105783521Y-119643068D01*
X105783521Y-119643068D02*
X105831140Y-119738306D01*
X105831140Y-119738306D02*
X105878759Y-119928782D01*
X105878759Y-119928782D02*
X105878759Y-120166877D01*
X105878759Y-120166877D02*
X105831140Y-120357353D01*
X105831140Y-120357353D02*
X105783521Y-120452591D01*
X105783521Y-120452591D02*
X105735902Y-120500211D01*
X105735902Y-120500211D02*
X105640664Y-120547830D01*
X105640664Y-120547830D02*
X105545426Y-120547830D01*
X105545426Y-120547830D02*
X105450188Y-120500211D01*
X105450188Y-120500211D02*
X105402569Y-120452591D01*
X105402569Y-120452591D02*
X105354950Y-120357353D01*
X105354950Y-120357353D02*
X105307331Y-120166877D01*
X105307331Y-120166877D02*
X105307331Y-119928782D01*
X105307331Y-119928782D02*
X105354950Y-119738306D01*
X105354950Y-119738306D02*
X105402569Y-119643068D01*
X105402569Y-119643068D02*
X105450188Y-119595449D01*
X105450188Y-119595449D02*
X105545426Y-119547830D01*
X104399908Y-118480009D02*
X104876098Y-118480009D01*
X104304670Y-118765724D02*
X104638003Y-117765724D01*
X104638003Y-117765724D02*
X104971336Y-118765724D01*
X105828479Y-118765724D02*
X105257051Y-118765724D01*
X105542765Y-118765724D02*
X105542765Y-117765724D01*
X105542765Y-117765724D02*
X105447527Y-117908581D01*
X105447527Y-117908581D02*
X105352289Y-118003819D01*
X105352289Y-118003819D02*
X105257051Y-118051438D01*
X104515629Y-114383481D02*
X104991819Y-114383481D01*
X104420391Y-114669196D02*
X104753724Y-113669196D01*
X104753724Y-113669196D02*
X105087057Y-114669196D01*
X105610867Y-113669196D02*
X105706105Y-113669196D01*
X105706105Y-113669196D02*
X105801343Y-113716815D01*
X105801343Y-113716815D02*
X105848962Y-113764434D01*
X105848962Y-113764434D02*
X105896581Y-113859672D01*
X105896581Y-113859672D02*
X105944200Y-114050148D01*
X105944200Y-114050148D02*
X105944200Y-114288243D01*
X105944200Y-114288243D02*
X105896581Y-114478719D01*
X105896581Y-114478719D02*
X105848962Y-114573957D01*
X105848962Y-114573957D02*
X105801343Y-114621577D01*
X105801343Y-114621577D02*
X105706105Y-114669196D01*
X105706105Y-114669196D02*
X105610867Y-114669196D01*
X105610867Y-114669196D02*
X105515629Y-114621577D01*
X105515629Y-114621577D02*
X105468010Y-114573957D01*
X105468010Y-114573957D02*
X105420391Y-114478719D01*
X105420391Y-114478719D02*
X105372772Y-114288243D01*
X105372772Y-114288243D02*
X105372772Y-114050148D01*
X105372772Y-114050148D02*
X105420391Y-113859672D01*
X105420391Y-113859672D02*
X105468010Y-113764434D01*
X105468010Y-113764434D02*
X105515629Y-113716815D01*
X105515629Y-113716815D02*
X105610867Y-113669196D01*
%TO.C,U2*%
X124968095Y-106352619D02*
X124968095Y-107162142D01*
X124968095Y-107162142D02*
X125015714Y-107257380D01*
X125015714Y-107257380D02*
X125063333Y-107305000D01*
X125063333Y-107305000D02*
X125158571Y-107352619D01*
X125158571Y-107352619D02*
X125349047Y-107352619D01*
X125349047Y-107352619D02*
X125444285Y-107305000D01*
X125444285Y-107305000D02*
X125491904Y-107257380D01*
X125491904Y-107257380D02*
X125539523Y-107162142D01*
X125539523Y-107162142D02*
X125539523Y-106352619D01*
X125968095Y-106447857D02*
X126015714Y-106400238D01*
X126015714Y-106400238D02*
X126110952Y-106352619D01*
X126110952Y-106352619D02*
X126349047Y-106352619D01*
X126349047Y-106352619D02*
X126444285Y-106400238D01*
X126444285Y-106400238D02*
X126491904Y-106447857D01*
X126491904Y-106447857D02*
X126539523Y-106543095D01*
X126539523Y-106543095D02*
X126539523Y-106638333D01*
X126539523Y-106638333D02*
X126491904Y-106781190D01*
X126491904Y-106781190D02*
X125920476Y-107352619D01*
X125920476Y-107352619D02*
X126539523Y-107352619D01*
%TO.C,U1*%
X110998095Y-138142619D02*
X110998095Y-138952142D01*
X110998095Y-138952142D02*
X111045714Y-139047380D01*
X111045714Y-139047380D02*
X111093333Y-139095000D01*
X111093333Y-139095000D02*
X111188571Y-139142619D01*
X111188571Y-139142619D02*
X111379047Y-139142619D01*
X111379047Y-139142619D02*
X111474285Y-139095000D01*
X111474285Y-139095000D02*
X111521904Y-139047380D01*
X111521904Y-139047380D02*
X111569523Y-138952142D01*
X111569523Y-138952142D02*
X111569523Y-138142619D01*
X112569523Y-139142619D02*
X111998095Y-139142619D01*
X112283809Y-139142619D02*
X112283809Y-138142619D01*
X112283809Y-138142619D02*
X112188571Y-138285476D01*
X112188571Y-138285476D02*
X112093333Y-138380714D01*
X112093333Y-138380714D02*
X111998095Y-138428333D01*
%TO.C,SW3*%
X104555000Y-102933332D02*
X104602619Y-102790475D01*
X104602619Y-102790475D02*
X104602619Y-102552380D01*
X104602619Y-102552380D02*
X104555000Y-102457142D01*
X104555000Y-102457142D02*
X104507380Y-102409523D01*
X104507380Y-102409523D02*
X104412142Y-102361904D01*
X104412142Y-102361904D02*
X104316904Y-102361904D01*
X104316904Y-102361904D02*
X104221666Y-102409523D01*
X104221666Y-102409523D02*
X104174047Y-102457142D01*
X104174047Y-102457142D02*
X104126428Y-102552380D01*
X104126428Y-102552380D02*
X104078809Y-102742856D01*
X104078809Y-102742856D02*
X104031190Y-102838094D01*
X104031190Y-102838094D02*
X103983571Y-102885713D01*
X103983571Y-102885713D02*
X103888333Y-102933332D01*
X103888333Y-102933332D02*
X103793095Y-102933332D01*
X103793095Y-102933332D02*
X103697857Y-102885713D01*
X103697857Y-102885713D02*
X103650238Y-102838094D01*
X103650238Y-102838094D02*
X103602619Y-102742856D01*
X103602619Y-102742856D02*
X103602619Y-102504761D01*
X103602619Y-102504761D02*
X103650238Y-102361904D01*
X103602619Y-102028570D02*
X104602619Y-101790475D01*
X104602619Y-101790475D02*
X103888333Y-101599999D01*
X103888333Y-101599999D02*
X104602619Y-101409523D01*
X104602619Y-101409523D02*
X103602619Y-101171428D01*
X103602619Y-100885713D02*
X103602619Y-100266666D01*
X103602619Y-100266666D02*
X103983571Y-100599999D01*
X103983571Y-100599999D02*
X103983571Y-100457142D01*
X103983571Y-100457142D02*
X104031190Y-100361904D01*
X104031190Y-100361904D02*
X104078809Y-100314285D01*
X104078809Y-100314285D02*
X104174047Y-100266666D01*
X104174047Y-100266666D02*
X104412142Y-100266666D01*
X104412142Y-100266666D02*
X104507380Y-100314285D01*
X104507380Y-100314285D02*
X104555000Y-100361904D01*
X104555000Y-100361904D02*
X104602619Y-100457142D01*
X104602619Y-100457142D02*
X104602619Y-100742856D01*
X104602619Y-100742856D02*
X104555000Y-100838094D01*
X104555000Y-100838094D02*
X104507380Y-100885713D01*
%TO.C,SW2*%
X139885000Y-105473332D02*
X139932619Y-105330475D01*
X139932619Y-105330475D02*
X139932619Y-105092380D01*
X139932619Y-105092380D02*
X139885000Y-104997142D01*
X139885000Y-104997142D02*
X139837380Y-104949523D01*
X139837380Y-104949523D02*
X139742142Y-104901904D01*
X139742142Y-104901904D02*
X139646904Y-104901904D01*
X139646904Y-104901904D02*
X139551666Y-104949523D01*
X139551666Y-104949523D02*
X139504047Y-104997142D01*
X139504047Y-104997142D02*
X139456428Y-105092380D01*
X139456428Y-105092380D02*
X139408809Y-105282856D01*
X139408809Y-105282856D02*
X139361190Y-105378094D01*
X139361190Y-105378094D02*
X139313571Y-105425713D01*
X139313571Y-105425713D02*
X139218333Y-105473332D01*
X139218333Y-105473332D02*
X139123095Y-105473332D01*
X139123095Y-105473332D02*
X139027857Y-105425713D01*
X139027857Y-105425713D02*
X138980238Y-105378094D01*
X138980238Y-105378094D02*
X138932619Y-105282856D01*
X138932619Y-105282856D02*
X138932619Y-105044761D01*
X138932619Y-105044761D02*
X138980238Y-104901904D01*
X138932619Y-104568570D02*
X139932619Y-104330475D01*
X139932619Y-104330475D02*
X139218333Y-104139999D01*
X139218333Y-104139999D02*
X139932619Y-103949523D01*
X139932619Y-103949523D02*
X138932619Y-103711428D01*
X139027857Y-103378094D02*
X138980238Y-103330475D01*
X138980238Y-103330475D02*
X138932619Y-103235237D01*
X138932619Y-103235237D02*
X138932619Y-102997142D01*
X138932619Y-102997142D02*
X138980238Y-102901904D01*
X138980238Y-102901904D02*
X139027857Y-102854285D01*
X139027857Y-102854285D02*
X139123095Y-102806666D01*
X139123095Y-102806666D02*
X139218333Y-102806666D01*
X139218333Y-102806666D02*
X139361190Y-102854285D01*
X139361190Y-102854285D02*
X139932619Y-103425713D01*
X139932619Y-103425713D02*
X139932619Y-102806666D01*
D11*
%TO.C,SW1*%
X130862705Y-146848734D02*
X131005562Y-146896353D01*
X131005562Y-146896353D02*
X131243657Y-146896353D01*
X131243657Y-146896353D02*
X131338895Y-146848734D01*
X131338895Y-146848734D02*
X131386514Y-146801114D01*
X131386514Y-146801114D02*
X131434133Y-146705876D01*
X131434133Y-146705876D02*
X131434133Y-146610638D01*
X131434133Y-146610638D02*
X131386514Y-146515400D01*
X131386514Y-146515400D02*
X131338895Y-146467781D01*
X131338895Y-146467781D02*
X131243657Y-146420162D01*
X131243657Y-146420162D02*
X131053181Y-146372543D01*
X131053181Y-146372543D02*
X130957943Y-146324924D01*
X130957943Y-146324924D02*
X130910324Y-146277305D01*
X130910324Y-146277305D02*
X130862705Y-146182067D01*
X130862705Y-146182067D02*
X130862705Y-146086829D01*
X130862705Y-146086829D02*
X130910324Y-145991591D01*
X130910324Y-145991591D02*
X130957943Y-145943972D01*
X130957943Y-145943972D02*
X131053181Y-145896353D01*
X131053181Y-145896353D02*
X131291276Y-145896353D01*
X131291276Y-145896353D02*
X131434133Y-145943972D01*
X131767467Y-145896353D02*
X132005562Y-146896353D01*
X132005562Y-146896353D02*
X132196038Y-146182067D01*
X132196038Y-146182067D02*
X132386514Y-146896353D01*
X132386514Y-146896353D02*
X132624610Y-145896353D01*
X133529371Y-146896353D02*
X132957943Y-146896353D01*
X133243657Y-146896353D02*
X133243657Y-145896353D01*
X133243657Y-145896353D02*
X133148419Y-146039210D01*
X133148419Y-146039210D02*
X133053181Y-146134448D01*
X133053181Y-146134448D02*
X132957943Y-146182067D01*
D10*
%TO.C,R5*%
X126833333Y-102232619D02*
X126500000Y-101756428D01*
X126261905Y-102232619D02*
X126261905Y-101232619D01*
X126261905Y-101232619D02*
X126642857Y-101232619D01*
X126642857Y-101232619D02*
X126738095Y-101280238D01*
X126738095Y-101280238D02*
X126785714Y-101327857D01*
X126785714Y-101327857D02*
X126833333Y-101423095D01*
X126833333Y-101423095D02*
X126833333Y-101565952D01*
X126833333Y-101565952D02*
X126785714Y-101661190D01*
X126785714Y-101661190D02*
X126738095Y-101708809D01*
X126738095Y-101708809D02*
X126642857Y-101756428D01*
X126642857Y-101756428D02*
X126261905Y-101756428D01*
X127738095Y-101232619D02*
X127261905Y-101232619D01*
X127261905Y-101232619D02*
X127214286Y-101708809D01*
X127214286Y-101708809D02*
X127261905Y-101661190D01*
X127261905Y-101661190D02*
X127357143Y-101613571D01*
X127357143Y-101613571D02*
X127595238Y-101613571D01*
X127595238Y-101613571D02*
X127690476Y-101661190D01*
X127690476Y-101661190D02*
X127738095Y-101708809D01*
X127738095Y-101708809D02*
X127785714Y-101804047D01*
X127785714Y-101804047D02*
X127785714Y-102042142D01*
X127785714Y-102042142D02*
X127738095Y-102137380D01*
X127738095Y-102137380D02*
X127690476Y-102185000D01*
X127690476Y-102185000D02*
X127595238Y-102232619D01*
X127595238Y-102232619D02*
X127357143Y-102232619D01*
X127357143Y-102232619D02*
X127261905Y-102185000D01*
X127261905Y-102185000D02*
X127214286Y-102137380D01*
%TO.C,R4*%
X110323333Y-125092619D02*
X109990000Y-124616428D01*
X109751905Y-125092619D02*
X109751905Y-124092619D01*
X109751905Y-124092619D02*
X110132857Y-124092619D01*
X110132857Y-124092619D02*
X110228095Y-124140238D01*
X110228095Y-124140238D02*
X110275714Y-124187857D01*
X110275714Y-124187857D02*
X110323333Y-124283095D01*
X110323333Y-124283095D02*
X110323333Y-124425952D01*
X110323333Y-124425952D02*
X110275714Y-124521190D01*
X110275714Y-124521190D02*
X110228095Y-124568809D01*
X110228095Y-124568809D02*
X110132857Y-124616428D01*
X110132857Y-124616428D02*
X109751905Y-124616428D01*
X111180476Y-124425952D02*
X111180476Y-125092619D01*
X110942381Y-124045000D02*
X110704286Y-124759285D01*
X110704286Y-124759285D02*
X111323333Y-124759285D01*
%TO.C,R3*%
X110323333Y-120392619D02*
X109990000Y-119916428D01*
X109751905Y-120392619D02*
X109751905Y-119392619D01*
X109751905Y-119392619D02*
X110132857Y-119392619D01*
X110132857Y-119392619D02*
X110228095Y-119440238D01*
X110228095Y-119440238D02*
X110275714Y-119487857D01*
X110275714Y-119487857D02*
X110323333Y-119583095D01*
X110323333Y-119583095D02*
X110323333Y-119725952D01*
X110323333Y-119725952D02*
X110275714Y-119821190D01*
X110275714Y-119821190D02*
X110228095Y-119868809D01*
X110228095Y-119868809D02*
X110132857Y-119916428D01*
X110132857Y-119916428D02*
X109751905Y-119916428D01*
X110656667Y-119392619D02*
X111275714Y-119392619D01*
X111275714Y-119392619D02*
X110942381Y-119773571D01*
X110942381Y-119773571D02*
X111085238Y-119773571D01*
X111085238Y-119773571D02*
X111180476Y-119821190D01*
X111180476Y-119821190D02*
X111228095Y-119868809D01*
X111228095Y-119868809D02*
X111275714Y-119964047D01*
X111275714Y-119964047D02*
X111275714Y-120202142D01*
X111275714Y-120202142D02*
X111228095Y-120297380D01*
X111228095Y-120297380D02*
X111180476Y-120345000D01*
X111180476Y-120345000D02*
X111085238Y-120392619D01*
X111085238Y-120392619D02*
X110799524Y-120392619D01*
X110799524Y-120392619D02*
X110704286Y-120345000D01*
X110704286Y-120345000D02*
X110656667Y-120297380D01*
%TO.C,R2*%
X110323333Y-114932619D02*
X109990000Y-114456428D01*
X109751905Y-114932619D02*
X109751905Y-113932619D01*
X109751905Y-113932619D02*
X110132857Y-113932619D01*
X110132857Y-113932619D02*
X110228095Y-113980238D01*
X110228095Y-113980238D02*
X110275714Y-114027857D01*
X110275714Y-114027857D02*
X110323333Y-114123095D01*
X110323333Y-114123095D02*
X110323333Y-114265952D01*
X110323333Y-114265952D02*
X110275714Y-114361190D01*
X110275714Y-114361190D02*
X110228095Y-114408809D01*
X110228095Y-114408809D02*
X110132857Y-114456428D01*
X110132857Y-114456428D02*
X109751905Y-114456428D01*
X110704286Y-114027857D02*
X110751905Y-113980238D01*
X110751905Y-113980238D02*
X110847143Y-113932619D01*
X110847143Y-113932619D02*
X111085238Y-113932619D01*
X111085238Y-113932619D02*
X111180476Y-113980238D01*
X111180476Y-113980238D02*
X111228095Y-114027857D01*
X111228095Y-114027857D02*
X111275714Y-114123095D01*
X111275714Y-114123095D02*
X111275714Y-114218333D01*
X111275714Y-114218333D02*
X111228095Y-114361190D01*
X111228095Y-114361190D02*
X110656667Y-114932619D01*
X110656667Y-114932619D02*
X111275714Y-114932619D01*
%TO.C,R1*%
X110323333Y-109852619D02*
X109990000Y-109376428D01*
X109751905Y-109852619D02*
X109751905Y-108852619D01*
X109751905Y-108852619D02*
X110132857Y-108852619D01*
X110132857Y-108852619D02*
X110228095Y-108900238D01*
X110228095Y-108900238D02*
X110275714Y-108947857D01*
X110275714Y-108947857D02*
X110323333Y-109043095D01*
X110323333Y-109043095D02*
X110323333Y-109185952D01*
X110323333Y-109185952D02*
X110275714Y-109281190D01*
X110275714Y-109281190D02*
X110228095Y-109328809D01*
X110228095Y-109328809D02*
X110132857Y-109376428D01*
X110132857Y-109376428D02*
X109751905Y-109376428D01*
X111275714Y-109852619D02*
X110704286Y-109852619D01*
X110990000Y-109852619D02*
X110990000Y-108852619D01*
X110990000Y-108852619D02*
X110894762Y-108995476D01*
X110894762Y-108995476D02*
X110799524Y-109090714D01*
X110799524Y-109090714D02*
X110704286Y-109138333D01*
%TO.C,J4*%
X147166666Y-111692619D02*
X147166666Y-112406904D01*
X147166666Y-112406904D02*
X147119047Y-112549761D01*
X147119047Y-112549761D02*
X147023809Y-112645000D01*
X147023809Y-112645000D02*
X146880952Y-112692619D01*
X146880952Y-112692619D02*
X146785714Y-112692619D01*
X148071428Y-112025952D02*
X148071428Y-112692619D01*
X147833333Y-111645000D02*
X147595238Y-112359285D01*
X147595238Y-112359285D02*
X148214285Y-112359285D01*
%TO.C,J3*%
X102166666Y-111692619D02*
X102166666Y-112406904D01*
X102166666Y-112406904D02*
X102119047Y-112549761D01*
X102119047Y-112549761D02*
X102023809Y-112645000D01*
X102023809Y-112645000D02*
X101880952Y-112692619D01*
X101880952Y-112692619D02*
X101785714Y-112692619D01*
X102547619Y-111692619D02*
X103166666Y-111692619D01*
X103166666Y-111692619D02*
X102833333Y-112073571D01*
X102833333Y-112073571D02*
X102976190Y-112073571D01*
X102976190Y-112073571D02*
X103071428Y-112121190D01*
X103071428Y-112121190D02*
X103119047Y-112168809D01*
X103119047Y-112168809D02*
X103166666Y-112264047D01*
X103166666Y-112264047D02*
X103166666Y-112502142D01*
X103166666Y-112502142D02*
X103119047Y-112597380D01*
X103119047Y-112597380D02*
X103071428Y-112645000D01*
X103071428Y-112645000D02*
X102976190Y-112692619D01*
X102976190Y-112692619D02*
X102690476Y-112692619D01*
X102690476Y-112692619D02*
X102595238Y-112645000D01*
X102595238Y-112645000D02*
X102547619Y-112597380D01*
%TO.C,J2*%
X104467625Y-145401668D02*
X105181910Y-145401668D01*
X105181910Y-145401668D02*
X105324767Y-145449287D01*
X105324767Y-145449287D02*
X105420006Y-145544525D01*
X105420006Y-145544525D02*
X105467625Y-145687382D01*
X105467625Y-145687382D02*
X105467625Y-145782620D01*
X104562863Y-144973096D02*
X104515244Y-144925477D01*
X104515244Y-144925477D02*
X104467625Y-144830239D01*
X104467625Y-144830239D02*
X104467625Y-144592144D01*
X104467625Y-144592144D02*
X104515244Y-144496906D01*
X104515244Y-144496906D02*
X104562863Y-144449287D01*
X104562863Y-144449287D02*
X104658101Y-144401668D01*
X104658101Y-144401668D02*
X104753339Y-144401668D01*
X104753339Y-144401668D02*
X104896196Y-144449287D01*
X104896196Y-144449287D02*
X105467625Y-145020715D01*
X105467625Y-145020715D02*
X105467625Y-144401668D01*
%TO.C,J1*%
X133473002Y-148517186D02*
X134187287Y-148517186D01*
X134187287Y-148517186D02*
X134330144Y-148564805D01*
X134330144Y-148564805D02*
X134425383Y-148660043D01*
X134425383Y-148660043D02*
X134473002Y-148802900D01*
X134473002Y-148802900D02*
X134473002Y-148898138D01*
X134473002Y-147517186D02*
X134473002Y-148088614D01*
X134473002Y-147802900D02*
X133473002Y-147802900D01*
X133473002Y-147802900D02*
X133615859Y-147898138D01*
X133615859Y-147898138D02*
X133711097Y-147993376D01*
X133711097Y-147993376D02*
X133758716Y-148088614D01*
%TO.C,D3*%
X135151905Y-101642619D02*
X135151905Y-100642619D01*
X135151905Y-100642619D02*
X135390000Y-100642619D01*
X135390000Y-100642619D02*
X135532857Y-100690238D01*
X135532857Y-100690238D02*
X135628095Y-100785476D01*
X135628095Y-100785476D02*
X135675714Y-100880714D01*
X135675714Y-100880714D02*
X135723333Y-101071190D01*
X135723333Y-101071190D02*
X135723333Y-101214047D01*
X135723333Y-101214047D02*
X135675714Y-101404523D01*
X135675714Y-101404523D02*
X135628095Y-101499761D01*
X135628095Y-101499761D02*
X135532857Y-101595000D01*
X135532857Y-101595000D02*
X135390000Y-101642619D01*
X135390000Y-101642619D02*
X135151905Y-101642619D01*
X136056667Y-100642619D02*
X136675714Y-100642619D01*
X136675714Y-100642619D02*
X136342381Y-101023571D01*
X136342381Y-101023571D02*
X136485238Y-101023571D01*
X136485238Y-101023571D02*
X136580476Y-101071190D01*
X136580476Y-101071190D02*
X136628095Y-101118809D01*
X136628095Y-101118809D02*
X136675714Y-101214047D01*
X136675714Y-101214047D02*
X136675714Y-101452142D01*
X136675714Y-101452142D02*
X136628095Y-101547380D01*
X136628095Y-101547380D02*
X136580476Y-101595000D01*
X136580476Y-101595000D02*
X136485238Y-101642619D01*
X136485238Y-101642619D02*
X136199524Y-101642619D01*
X136199524Y-101642619D02*
X136104286Y-101595000D01*
X136104286Y-101595000D02*
X136056667Y-101547380D01*
%TO.C,D2*%
X117371905Y-101642619D02*
X117371905Y-100642619D01*
X117371905Y-100642619D02*
X117610000Y-100642619D01*
X117610000Y-100642619D02*
X117752857Y-100690238D01*
X117752857Y-100690238D02*
X117848095Y-100785476D01*
X117848095Y-100785476D02*
X117895714Y-100880714D01*
X117895714Y-100880714D02*
X117943333Y-101071190D01*
X117943333Y-101071190D02*
X117943333Y-101214047D01*
X117943333Y-101214047D02*
X117895714Y-101404523D01*
X117895714Y-101404523D02*
X117848095Y-101499761D01*
X117848095Y-101499761D02*
X117752857Y-101595000D01*
X117752857Y-101595000D02*
X117610000Y-101642619D01*
X117610000Y-101642619D02*
X117371905Y-101642619D01*
X118324286Y-100737857D02*
X118371905Y-100690238D01*
X118371905Y-100690238D02*
X118467143Y-100642619D01*
X118467143Y-100642619D02*
X118705238Y-100642619D01*
X118705238Y-100642619D02*
X118800476Y-100690238D01*
X118800476Y-100690238D02*
X118848095Y-100737857D01*
X118848095Y-100737857D02*
X118895714Y-100833095D01*
X118895714Y-100833095D02*
X118895714Y-100928333D01*
X118895714Y-100928333D02*
X118848095Y-101071190D01*
X118848095Y-101071190D02*
X118276667Y-101642619D01*
X118276667Y-101642619D02*
X118895714Y-101642619D01*
%TO.C,D1*%
X112291905Y-101642619D02*
X112291905Y-100642619D01*
X112291905Y-100642619D02*
X112530000Y-100642619D01*
X112530000Y-100642619D02*
X112672857Y-100690238D01*
X112672857Y-100690238D02*
X112768095Y-100785476D01*
X112768095Y-100785476D02*
X112815714Y-100880714D01*
X112815714Y-100880714D02*
X112863333Y-101071190D01*
X112863333Y-101071190D02*
X112863333Y-101214047D01*
X112863333Y-101214047D02*
X112815714Y-101404523D01*
X112815714Y-101404523D02*
X112768095Y-101499761D01*
X112768095Y-101499761D02*
X112672857Y-101595000D01*
X112672857Y-101595000D02*
X112530000Y-101642619D01*
X112530000Y-101642619D02*
X112291905Y-101642619D01*
X113815714Y-101642619D02*
X113244286Y-101642619D01*
X113530000Y-101642619D02*
X113530000Y-100642619D01*
X113530000Y-100642619D02*
X113434762Y-100785476D01*
X113434762Y-100785476D02*
X113339524Y-100880714D01*
X113339524Y-100880714D02*
X113244286Y-100928333D01*
%TO.C,C6*%
X136953333Y-132137380D02*
X136905714Y-132185000D01*
X136905714Y-132185000D02*
X136762857Y-132232619D01*
X136762857Y-132232619D02*
X136667619Y-132232619D01*
X136667619Y-132232619D02*
X136524762Y-132185000D01*
X136524762Y-132185000D02*
X136429524Y-132089761D01*
X136429524Y-132089761D02*
X136381905Y-131994523D01*
X136381905Y-131994523D02*
X136334286Y-131804047D01*
X136334286Y-131804047D02*
X136334286Y-131661190D01*
X136334286Y-131661190D02*
X136381905Y-131470714D01*
X136381905Y-131470714D02*
X136429524Y-131375476D01*
X136429524Y-131375476D02*
X136524762Y-131280238D01*
X136524762Y-131280238D02*
X136667619Y-131232619D01*
X136667619Y-131232619D02*
X136762857Y-131232619D01*
X136762857Y-131232619D02*
X136905714Y-131280238D01*
X136905714Y-131280238D02*
X136953333Y-131327857D01*
X137810476Y-131232619D02*
X137620000Y-131232619D01*
X137620000Y-131232619D02*
X137524762Y-131280238D01*
X137524762Y-131280238D02*
X137477143Y-131327857D01*
X137477143Y-131327857D02*
X137381905Y-131470714D01*
X137381905Y-131470714D02*
X137334286Y-131661190D01*
X137334286Y-131661190D02*
X137334286Y-132042142D01*
X137334286Y-132042142D02*
X137381905Y-132137380D01*
X137381905Y-132137380D02*
X137429524Y-132185000D01*
X137429524Y-132185000D02*
X137524762Y-132232619D01*
X137524762Y-132232619D02*
X137715238Y-132232619D01*
X137715238Y-132232619D02*
X137810476Y-132185000D01*
X137810476Y-132185000D02*
X137858095Y-132137380D01*
X137858095Y-132137380D02*
X137905714Y-132042142D01*
X137905714Y-132042142D02*
X137905714Y-131804047D01*
X137905714Y-131804047D02*
X137858095Y-131708809D01*
X137858095Y-131708809D02*
X137810476Y-131661190D01*
X137810476Y-131661190D02*
X137715238Y-131613571D01*
X137715238Y-131613571D02*
X137524762Y-131613571D01*
X137524762Y-131613571D02*
X137429524Y-131661190D01*
X137429524Y-131661190D02*
X137381905Y-131708809D01*
X137381905Y-131708809D02*
X137334286Y-131804047D01*
%TO.C,C5*%
X137033333Y-124517380D02*
X136985714Y-124565000D01*
X136985714Y-124565000D02*
X136842857Y-124612619D01*
X136842857Y-124612619D02*
X136747619Y-124612619D01*
X136747619Y-124612619D02*
X136604762Y-124565000D01*
X136604762Y-124565000D02*
X136509524Y-124469761D01*
X136509524Y-124469761D02*
X136461905Y-124374523D01*
X136461905Y-124374523D02*
X136414286Y-124184047D01*
X136414286Y-124184047D02*
X136414286Y-124041190D01*
X136414286Y-124041190D02*
X136461905Y-123850714D01*
X136461905Y-123850714D02*
X136509524Y-123755476D01*
X136509524Y-123755476D02*
X136604762Y-123660238D01*
X136604762Y-123660238D02*
X136747619Y-123612619D01*
X136747619Y-123612619D02*
X136842857Y-123612619D01*
X136842857Y-123612619D02*
X136985714Y-123660238D01*
X136985714Y-123660238D02*
X137033333Y-123707857D01*
X137938095Y-123612619D02*
X137461905Y-123612619D01*
X137461905Y-123612619D02*
X137414286Y-124088809D01*
X137414286Y-124088809D02*
X137461905Y-124041190D01*
X137461905Y-124041190D02*
X137557143Y-123993571D01*
X137557143Y-123993571D02*
X137795238Y-123993571D01*
X137795238Y-123993571D02*
X137890476Y-124041190D01*
X137890476Y-124041190D02*
X137938095Y-124088809D01*
X137938095Y-124088809D02*
X137985714Y-124184047D01*
X137985714Y-124184047D02*
X137985714Y-124422142D01*
X137985714Y-124422142D02*
X137938095Y-124517380D01*
X137938095Y-124517380D02*
X137890476Y-124565000D01*
X137890476Y-124565000D02*
X137795238Y-124612619D01*
X137795238Y-124612619D02*
X137557143Y-124612619D01*
X137557143Y-124612619D02*
X137461905Y-124565000D01*
X137461905Y-124565000D02*
X137414286Y-124517380D01*
%TO.C,C4*%
X137033333Y-116897380D02*
X136985714Y-116945000D01*
X136985714Y-116945000D02*
X136842857Y-116992619D01*
X136842857Y-116992619D02*
X136747619Y-116992619D01*
X136747619Y-116992619D02*
X136604762Y-116945000D01*
X136604762Y-116945000D02*
X136509524Y-116849761D01*
X136509524Y-116849761D02*
X136461905Y-116754523D01*
X136461905Y-116754523D02*
X136414286Y-116564047D01*
X136414286Y-116564047D02*
X136414286Y-116421190D01*
X136414286Y-116421190D02*
X136461905Y-116230714D01*
X136461905Y-116230714D02*
X136509524Y-116135476D01*
X136509524Y-116135476D02*
X136604762Y-116040238D01*
X136604762Y-116040238D02*
X136747619Y-115992619D01*
X136747619Y-115992619D02*
X136842857Y-115992619D01*
X136842857Y-115992619D02*
X136985714Y-116040238D01*
X136985714Y-116040238D02*
X137033333Y-116087857D01*
X137890476Y-116325952D02*
X137890476Y-116992619D01*
X137652381Y-115945000D02*
X137414286Y-116659285D01*
X137414286Y-116659285D02*
X138033333Y-116659285D01*
%TO.C,C3*%
X142367380Y-110636666D02*
X142415000Y-110684285D01*
X142415000Y-110684285D02*
X142462619Y-110827142D01*
X142462619Y-110827142D02*
X142462619Y-110922380D01*
X142462619Y-110922380D02*
X142415000Y-111065237D01*
X142415000Y-111065237D02*
X142319761Y-111160475D01*
X142319761Y-111160475D02*
X142224523Y-111208094D01*
X142224523Y-111208094D02*
X142034047Y-111255713D01*
X142034047Y-111255713D02*
X141891190Y-111255713D01*
X141891190Y-111255713D02*
X141700714Y-111208094D01*
X141700714Y-111208094D02*
X141605476Y-111160475D01*
X141605476Y-111160475D02*
X141510238Y-111065237D01*
X141510238Y-111065237D02*
X141462619Y-110922380D01*
X141462619Y-110922380D02*
X141462619Y-110827142D01*
X141462619Y-110827142D02*
X141510238Y-110684285D01*
X141510238Y-110684285D02*
X141557857Y-110636666D01*
X141462619Y-110303332D02*
X141462619Y-109684285D01*
X141462619Y-109684285D02*
X141843571Y-110017618D01*
X141843571Y-110017618D02*
X141843571Y-109874761D01*
X141843571Y-109874761D02*
X141891190Y-109779523D01*
X141891190Y-109779523D02*
X141938809Y-109731904D01*
X141938809Y-109731904D02*
X142034047Y-109684285D01*
X142034047Y-109684285D02*
X142272142Y-109684285D01*
X142272142Y-109684285D02*
X142367380Y-109731904D01*
X142367380Y-109731904D02*
X142415000Y-109779523D01*
X142415000Y-109779523D02*
X142462619Y-109874761D01*
X142462619Y-109874761D02*
X142462619Y-110160475D01*
X142462619Y-110160475D02*
X142415000Y-110255713D01*
X142415000Y-110255713D02*
X142367380Y-110303332D01*
%TO.C,C2*%
X137327380Y-110636666D02*
X137375000Y-110684285D01*
X137375000Y-110684285D02*
X137422619Y-110827142D01*
X137422619Y-110827142D02*
X137422619Y-110922380D01*
X137422619Y-110922380D02*
X137375000Y-111065237D01*
X137375000Y-111065237D02*
X137279761Y-111160475D01*
X137279761Y-111160475D02*
X137184523Y-111208094D01*
X137184523Y-111208094D02*
X136994047Y-111255713D01*
X136994047Y-111255713D02*
X136851190Y-111255713D01*
X136851190Y-111255713D02*
X136660714Y-111208094D01*
X136660714Y-111208094D02*
X136565476Y-111160475D01*
X136565476Y-111160475D02*
X136470238Y-111065237D01*
X136470238Y-111065237D02*
X136422619Y-110922380D01*
X136422619Y-110922380D02*
X136422619Y-110827142D01*
X136422619Y-110827142D02*
X136470238Y-110684285D01*
X136470238Y-110684285D02*
X136517857Y-110636666D01*
X136517857Y-110255713D02*
X136470238Y-110208094D01*
X136470238Y-110208094D02*
X136422619Y-110112856D01*
X136422619Y-110112856D02*
X136422619Y-109874761D01*
X136422619Y-109874761D02*
X136470238Y-109779523D01*
X136470238Y-109779523D02*
X136517857Y-109731904D01*
X136517857Y-109731904D02*
X136613095Y-109684285D01*
X136613095Y-109684285D02*
X136708333Y-109684285D01*
X136708333Y-109684285D02*
X136851190Y-109731904D01*
X136851190Y-109731904D02*
X137422619Y-110303332D01*
X137422619Y-110303332D02*
X137422619Y-109684285D01*
%TO.C,C1*%
X137033333Y-139757380D02*
X136985714Y-139805000D01*
X136985714Y-139805000D02*
X136842857Y-139852619D01*
X136842857Y-139852619D02*
X136747619Y-139852619D01*
X136747619Y-139852619D02*
X136604762Y-139805000D01*
X136604762Y-139805000D02*
X136509524Y-139709761D01*
X136509524Y-139709761D02*
X136461905Y-139614523D01*
X136461905Y-139614523D02*
X136414286Y-139424047D01*
X136414286Y-139424047D02*
X136414286Y-139281190D01*
X136414286Y-139281190D02*
X136461905Y-139090714D01*
X136461905Y-139090714D02*
X136509524Y-138995476D01*
X136509524Y-138995476D02*
X136604762Y-138900238D01*
X136604762Y-138900238D02*
X136747619Y-138852619D01*
X136747619Y-138852619D02*
X136842857Y-138852619D01*
X136842857Y-138852619D02*
X136985714Y-138900238D01*
X136985714Y-138900238D02*
X137033333Y-138947857D01*
X137985714Y-139852619D02*
X137414286Y-139852619D01*
X137700000Y-139852619D02*
X137700000Y-138852619D01*
X137700000Y-138852619D02*
X137604762Y-138995476D01*
X137604762Y-138995476D02*
X137509524Y-139090714D01*
X137509524Y-139090714D02*
X137414286Y-139138333D01*
D12*
%TO.C,U2*%
X123080000Y-143570000D02*
X128380000Y-143570000D01*
X130870000Y-107830000D02*
X120590000Y-107830000D01*
X130870000Y-143630000D02*
X130870000Y-107830000D01*
X128380000Y-107890000D02*
X126730000Y-107890000D01*
X120590000Y-143630000D02*
X130870000Y-143630000D01*
X128380000Y-143570000D02*
X128380000Y-107890000D01*
X123080000Y-107890000D02*
X123080000Y-143570000D01*
X124730000Y-107890000D02*
X123080000Y-107890000D01*
X120590000Y-107830000D02*
X120590000Y-143630000D01*
X124730000Y-107890000D02*
G75*
G03*
X126730000Y-107890000I1000000J0D01*
G01*
%TO.C,U1*%
X109960000Y-144090000D02*
X113560000Y-144090000D01*
X114116400Y-141141193D02*
G75*
G03*
X111760000Y-139640000I-2356400J-1098807D01*
G01*
X111760000Y-139640001D02*
G75*
G03*
X109403601Y-141141193I0J-2599999D01*
G01*
X109435817Y-143362795D02*
G75*
G03*
X109960001Y-144089999I2324183J1122795D01*
G01*
X113559999Y-144089999D02*
G75*
G03*
X114084183Y-143362795I-1799999J1849999D01*
G01*
%TO.C,SW3*%
X100350000Y-108140000D02*
X108090000Y-108140000D01*
X100350000Y-108140000D02*
X100350000Y-100140000D01*
X108090000Y-108140000D02*
X108090000Y-100140000D01*
X100350000Y-100140000D02*
X108090000Y-100140000D01*
%TO.C,SW2*%
X140910000Y-108140000D02*
X148650000Y-108140000D01*
X140910000Y-108140000D02*
X140910000Y-100140000D01*
X148650000Y-108140000D02*
X148650000Y-100140000D01*
X140910000Y-100140000D02*
X148650000Y-100140000D01*
D13*
%TO.C,SW1*%
X118420000Y-145320000D02*
X130420000Y-145320000D01*
X118420000Y-149320000D02*
X118420000Y-145320000D01*
X130420000Y-145320000D02*
X130420000Y-149320000D01*
X130420000Y-149320000D02*
X118420000Y-149320000D01*
D12*
%TO.C,R5*%
X130270000Y-105510000D02*
X130270000Y-105180000D01*
X123730000Y-102770000D02*
X130270000Y-102770000D01*
X123730000Y-105510000D02*
X130270000Y-105510000D01*
X123730000Y-105180000D02*
X123730000Y-105510000D01*
X123730000Y-103100000D02*
X123730000Y-102770000D01*
X130270000Y-102770000D02*
X130270000Y-103100000D01*
%TO.C,R4*%
X113760000Y-128370000D02*
X113760000Y-128040000D01*
X107220000Y-125630000D02*
X113760000Y-125630000D01*
X107220000Y-128370000D02*
X113760000Y-128370000D01*
X107220000Y-128040000D02*
X107220000Y-128370000D01*
X107220000Y-125960000D02*
X107220000Y-125630000D01*
X113760000Y-125630000D02*
X113760000Y-125960000D01*
%TO.C,R3*%
X113760000Y-123670000D02*
X113760000Y-123340000D01*
X107220000Y-120930000D02*
X113760000Y-120930000D01*
X107220000Y-123670000D02*
X113760000Y-123670000D01*
X107220000Y-123340000D02*
X107220000Y-123670000D01*
X107220000Y-121260000D02*
X107220000Y-120930000D01*
X113760000Y-120930000D02*
X113760000Y-121260000D01*
%TO.C,R2*%
X113760000Y-118210000D02*
X113760000Y-117880000D01*
X107220000Y-115470000D02*
X113760000Y-115470000D01*
X107220000Y-118210000D02*
X113760000Y-118210000D01*
X107220000Y-117880000D02*
X107220000Y-118210000D01*
X107220000Y-115800000D02*
X107220000Y-115470000D01*
X113760000Y-115470000D02*
X113760000Y-115800000D01*
%TO.C,R1*%
X113760000Y-113130000D02*
X113760000Y-112800000D01*
X107220000Y-110390000D02*
X113760000Y-110390000D01*
X107220000Y-113130000D02*
X113760000Y-113130000D01*
X107220000Y-112800000D02*
X107220000Y-113130000D01*
X107220000Y-110720000D02*
X107220000Y-110390000D01*
X113760000Y-110390000D02*
X113760000Y-110720000D01*
%TO.C,J4*%
X147500000Y-113670000D02*
X148830000Y-113670000D01*
X146170000Y-116270000D02*
X146170000Y-144270000D01*
X146170000Y-144270000D02*
X148830000Y-144270000D01*
X146170000Y-116270000D02*
X148830000Y-116270000D01*
X148830000Y-116270000D02*
X148830000Y-144270000D01*
X148830000Y-113670000D02*
X148830000Y-115000000D01*
%TO.C,J3*%
X102500000Y-113670000D02*
X103830000Y-113670000D01*
X101170000Y-116270000D02*
X101170000Y-144270000D01*
X101170000Y-144270000D02*
X103830000Y-144270000D01*
X101170000Y-116270000D02*
X103830000Y-116270000D01*
X103830000Y-116270000D02*
X103830000Y-144270000D01*
X103830000Y-113670000D02*
X103830000Y-115000000D01*
%TO.C,J2*%
X116530000Y-148650000D02*
X116530000Y-145990000D01*
X103770000Y-148650000D02*
X116530000Y-148650000D01*
X101170000Y-145990000D02*
X102500000Y-145990000D01*
X103770000Y-145990000D02*
X116530000Y-145990000D01*
X103770000Y-148650000D02*
X103770000Y-145990000D01*
X101170000Y-147320000D02*
X101170000Y-145990000D01*
%TO.C,J1*%
X140970000Y-148650000D02*
X143570000Y-148650000D01*
X140970000Y-145990000D02*
X143570000Y-145990000D01*
X140970000Y-148650000D02*
X140970000Y-145990000D01*
X138370000Y-147320000D02*
X138370000Y-145990000D01*
X138370000Y-145990000D02*
X139700000Y-145990000D01*
X143570000Y-148650000D02*
X143570000Y-145990000D01*
%TO.C,D3*%
X134330000Y-102904000D02*
X134330000Y-103060000D01*
X134330000Y-105220000D02*
X134330000Y-105376000D01*
X136931129Y-103060164D02*
G75*
G03*
X134849040Y-103060001I-1041129J-1079836D01*
G01*
X134330001Y-105375515D02*
G75*
G03*
X137562334Y-105218608I1559999J1235515D01*
G01*
X134849040Y-105219999D02*
G75*
G03*
X136931129Y-105219836I1040960J1079999D01*
G01*
X137562334Y-103061392D02*
G75*
G03*
X134330001Y-102904485I-1672334J-1078608D01*
G01*
%TO.C,D2*%
X116550000Y-102904000D02*
X116550000Y-103060000D01*
X116550000Y-105220000D02*
X116550000Y-105376000D01*
X119151129Y-103060164D02*
G75*
G03*
X117069040Y-103060001I-1041129J-1079836D01*
G01*
X116550001Y-105375515D02*
G75*
G03*
X119782334Y-105218608I1559999J1235515D01*
G01*
X117069040Y-105219999D02*
G75*
G03*
X119151129Y-105219836I1040960J1079999D01*
G01*
X119782334Y-103061392D02*
G75*
G03*
X116550001Y-102904485I-1672334J-1078608D01*
G01*
%TO.C,D1*%
X111470000Y-102904000D02*
X111470000Y-103060000D01*
X111470000Y-105220000D02*
X111470000Y-105376000D01*
X114071129Y-103060164D02*
G75*
G03*
X111989040Y-103060001I-1041129J-1079836D01*
G01*
X111470001Y-105375515D02*
G75*
G03*
X114702334Y-105218608I1559999J1235515D01*
G01*
X111989040Y-105219999D02*
G75*
G03*
X114071129Y-105219836I1040960J1079999D01*
G01*
X114702334Y-103061392D02*
G75*
G03*
X111470001Y-102904485I-1672334J-1078608D01*
G01*
%TO.C,C6*%
X134450000Y-132899000D02*
X134450000Y-133565000D01*
X139790000Y-132899000D02*
X139790000Y-133565000D01*
X139790000Y-135675000D02*
X139790000Y-136341000D01*
X134450000Y-132899000D02*
X139790000Y-132899000D01*
X134450000Y-135675000D02*
X134450000Y-136341000D01*
X134450000Y-136341000D02*
X139790000Y-136341000D01*
%TO.C,C5*%
X134530000Y-125279000D02*
X134530000Y-125945000D01*
X139870000Y-125279000D02*
X139870000Y-125945000D01*
X139870000Y-128055000D02*
X139870000Y-128721000D01*
X134530000Y-125279000D02*
X139870000Y-125279000D01*
X134530000Y-128055000D02*
X134530000Y-128721000D01*
X134530000Y-128721000D02*
X139870000Y-128721000D01*
%TO.C,C4*%
X134530000Y-117659000D02*
X134530000Y-118325000D01*
X139870000Y-117659000D02*
X139870000Y-118325000D01*
X139870000Y-120435000D02*
X139870000Y-121101000D01*
X134530000Y-117659000D02*
X139870000Y-117659000D01*
X134530000Y-120435000D02*
X134530000Y-121101000D01*
X134530000Y-121101000D02*
X139870000Y-121101000D01*
%TO.C,C3*%
X140870000Y-108650000D02*
X140870000Y-112290000D01*
X138530000Y-108650000D02*
X138530000Y-112290000D01*
X138775000Y-108650000D02*
X138530000Y-108650000D01*
X138775000Y-112290000D02*
X138530000Y-112290000D01*
X140870000Y-112290000D02*
X140625000Y-112290000D01*
X140870000Y-108650000D02*
X140625000Y-108650000D01*
%TO.C,C2*%
X135830000Y-108650000D02*
X135830000Y-112290000D01*
X133490000Y-108650000D02*
X133490000Y-112290000D01*
X133735000Y-108650000D02*
X133490000Y-108650000D01*
X133735000Y-112290000D02*
X133490000Y-112290000D01*
X135830000Y-112290000D02*
X135585000Y-112290000D01*
X135830000Y-108650000D02*
X135585000Y-108650000D01*
%TO.C,C1*%
X134530000Y-140519000D02*
X134530000Y-141185000D01*
X139870000Y-140519000D02*
X139870000Y-141185000D01*
X139870000Y-143295000D02*
X139870000Y-143961000D01*
X134530000Y-140519000D02*
X139870000Y-140519000D01*
X134530000Y-143295000D02*
X134530000Y-143961000D01*
X134530000Y-143961000D02*
X139870000Y-143961000D01*
%TD*%
D14*
X150000000Y-100000000D02*
X100000000Y-100000000D01*
X100000000Y-150000000D02*
X150000000Y-150000000D01*
X150000000Y-150000000D02*
X150000000Y-100000000D01*
X100000000Y-150000000D02*
X100000000Y-100000000D01*
M02*
